<?xml version="1.0" encoding="UTF-8" standalone="no"?>
<!-- Created with Inkscape (http://www.inkscape.org/) -->

<svg
   xmlns:dc="http://purl.org/dc/elements/1.1/"
   xmlns:cc="http://creativecommons.org/ns#"
   xmlns:rdf="http://www.w3.org/1999/02/22-rdf-syntax-ns#"
   xmlns:svg="http://www.w3.org/2000/svg"
   xmlns="http://www.w3.org/2000/svg"
   xmlns:sodipodi="http://sodipodi.sourceforge.net/DTD/sodipodi-0.dtd"
   xmlns:inkscape="http://www.inkscape.org/namespaces/inkscape"
   width="250"
   height="250"
   viewBox="0 0 66.145831 66.145835"
   version="1.1"
   id="svg1537"
   sodipodi:docname="Tux_junior-10.svg"
   inkscape:version="0.92.5 (2060ec1f9f, 2020-04-08)">
  <defs
     id="defs1531" />
  <sodipodi:namedview
     id="base"
     pagecolor="#ffffff"
     bordercolor="#666666"
     borderopacity="1.0"
     inkscape:pageopacity="0.0"
     inkscape:pageshadow="2"
     inkscape:zoom="1.9247463"
     inkscape:cx="77.520911"
     inkscape:cy="560"
     inkscape:document-units="mm"
     inkscape:current-layer="layer1"
     showgrid="false"
     units="px"
     inkscape:window-width="1920"
     inkscape:window-height="1043"
     inkscape:window-x="1920"
     inkscape:window-y="0"
     inkscape:window-maximized="1" />
  <metadata
     id="metadata1534">
    <rdf:RDF>
      <cc:Work
         rdf:about="">
        <dc:format>image/svg+xml</dc:format>
        <dc:type
           rdf:resource="http://purl.org/dc/dcmitype/StillImage" />
        <dc:title />
      </cc:Work>
    </rdf:RDF>
  </metadata>
  <g
     inkscape:label="Calque 1"
     inkscape:groupmode="layer"
     id="layer1"
     transform="translate(0,-230.85415)">
    <rect
       style="opacity:1;fill:#ffffff;fill-opacity:1;stroke:#000000;stroke-width:0;stroke-miterlimit:4;stroke-dasharray:none;stroke-opacity:1"
       id="rect5827"
       width="66.145836"
       height="66.145836"
       x="-1.2715658e-06"
       y="230.85414" />
    <g
       style="display:inline"
       id="g7603"
       transform="matrix(0.24897515,-0.08953052,0.08953052,0.24897515,-529.12825,216.81377)"
       inkscape:transform-center-x="56.16831">
      <path
         style="fill:#1a1a1a;stroke:#000000;stroke-width:0.19063042;stroke-linecap:butt;stroke-linejoin:miter;stroke-miterlimit:4;stroke-dasharray:none;stroke-opacity:1"
         d="m 1870.6739,895.69022 c 1.9472,-5.78633 7.77,-16.54558 12.1744,-20.64127 4.1693,-3.136 11.5027,12.63617 16.3682,12.24241 6.3195,0.17986 12.4557,-1.45965 18.7363,-1.78543 11.001,-1.00346 22.6421,-2.33176 33.0551,2.44882 3.1639,1.30539 7.2319,2.82513 8.2234,6.59491 17.5282,15.76894 21.2318,42.18176 10.5716,58.09569 -25.4553,9.9857 6.6435,9.99294 -10.2244,10.18254 -7.3998,8.14631 -30.3973,9.65913 -52.9348,7.23607 -17.7761,-6.01369 -30.4782,-11.9472 -36.8365,-22.54401 -7.4549,-7.59774 -3.7133,-40.24147 0.8667,-51.82973 z"
         id="path7320"
         inkscape:connector-curvature="0"
         sodipodi:nodetypes="ccccccccccc" />
      <path
         style="fill:#f8efff;fill-opacity:1;stroke:#000000;stroke-width:0.37843746px;stroke-linecap:butt;stroke-linejoin:miter;stroke-opacity:1"
         d="m 1918.5308,902.19316 c 1.5551,7.10952 1.7369,11.58481 3.2685,20.14925 0.9194,7.25873 -1.5031,22.72422 -1.194,30.00084 1.2185,2.84885 5.3696,7.06257 8.0087,7.22689 9.362,1.39154 18.8929,-0.27994 25.2849,-5.19047 3.2486,0.89632 14.1799,-2.01298 15.4097,-7.18115 10.5362,-27.29831 -4.389,-41.93962 -15.2521,-46.17341 -14.923,0.33582 -22.1775,2.91194 -35.5257,1.16805 z"
         id="path7330"
         inkscape:connector-curvature="0"
         sodipodi:nodetypes="cccccccc" />
      <path
         style="fill:#ffffff;fill-opacity:1;stroke:none"
         d="m 1919.3893,903.86629 c 0.1999,7.30463 7.9114,30.34585 2.7403,40.08011 9.1064,-4.06098 24.2296,-5.82464 30.7904,7.98372 13.4824,-16.13017 2.4937,-42.2563 -8.1242,-48.92858 -8.0597,3.65631 -19.54,3.2082 -25.4065,0.86475 z"
         id="path7340"
         inkscape:connector-curvature="0"
         sodipodi:nodetypes="ccccc" />
      <g
         transform="translate(22.820814,-187.66948)"
         id="g7595">
        <path
           style="fill:#ffb124;fill-opacity:1;stroke:#000000;stroke-width:1.86857951;stroke-linecap:butt;stroke-linejoin:miter;stroke-miterlimit:4;stroke-dasharray:none;stroke-opacity:1"
           d="m 1945.7203,1149.6173 c -2.7502,-0.5636 -6.2325,-2.2643 -7.0171,-6.4696 -1.0346,-4.1736 0.5614,-9.1656 3.6827,-10.0529 1.8869,-1.6871 1.0154,-5.4253 -0.3104,-7.5957 -1.8136,-2.7481 -3.3505,-5.7928 -4.3904,-9.1827 -1.6331,-5.2757 -2.9925,-10.8531 -3.2144,-16.4483 -0.125,-4.6134 1.4423,-9.6535 4.9221,-10.7046 2.6825,-1.0202 5.5171,-1.3714 8.2152,-2.3148 3.6172,-0.6557 8.2073,0.5668 10.4108,5.3574 1.4699,4.3305 1.3479,9.0693 2.3369,13.5408 1.1847,7.7325 2.5771,15.4456 3.313,23.2384 -0.51,4.2014 2.4046,7.9704 1.9503,12.1723 0.2647,6.3453 0.7825,12.7382 2.0191,18.9989 0.01,4.2378 -3.5237,5.5799 -6.151,5.4505 -3.2351,0.3732 -6.7009,1.6957 -9.8726,-0.7886 -3.0117,-2.0297 -4.7994,-6.2573 -5.7931,-10.388 -0.4961,-1.5315 -1.0337,-3.5396 -0.1007,-4.8131 z"
           id="path7318"
           inkscape:connector-curvature="0" />
        <path
           sodipodi:nodetypes="cccccc"
           inkscape:connector-curvature="0"
           id="path7324"
           d="m 1936.2068,1103.598 c 1.5454,-13.7934 20.6429,-21.1488 19.3979,16.8918 1.539,-2.8763 3.6511,0.8953 5.3574,0.4314 -3.006,-45.0062 -14.0135,-30.7509 -22.9267,-28.7369 -1.8838,3.071 -2.3345,6.9006 -1.8286,11.4137 z"
           style="fill:#fde00c;fill-opacity:0.65882353;stroke:none" />
        <g
           transform="rotate(-89.207568,1096.0494,101.90222)"
           id="g7332">
          <path
             style="fill:#ff9f39;fill-opacity:1;stroke:#000000;stroke-width:1.86857951;stroke-linecap:butt;stroke-linejoin:miter;stroke-miterlimit:4;stroke-dasharray:none;stroke-opacity:1"
             d="m 60.679934,950.11044 c 0.93291,-2.97403 3.092165,-6.58879 7.365147,-6.81828 4.275545,-0.51294 9.00371,2.02665 9.457541,5.63577 1.414443,2.3576 5.23655,1.95977 7.567335,0.81614 2.969358,-1.5977 6.195123,-2.84213 9.694971,-3.48061 5.449032,-1.00998 11.159652,-1.66946 16.732902,-1.06026 4.58741,0.56649 9.36715,3.0816 9.9344,7.11443 0.64533,3.14109 0.60721,6.3489 1.17435,9.4956 0.15692,4.12527 -1.67939,9.04579 -6.7255,10.76484 -4.49028,0.97302 -9.16843,0.11195 -13.73289,0.52888 -18.993242,1.64692 -37.202943,-1.2968 -54.894509,-0.22059 -4.199169,-0.64105 -5.047908,-4.77459 -4.561915,-7.67822 0.07131,-3.65685 -0.767119,-7.71579 2.126017,-10.86496 2.420968,-3.04087 6.852672,-4.38316 11.080145,-4.85706 1.584845,-0.3177 3.647455,-0.60859 4.782006,0.62432 z"
             id="path7334"
             inkscape:connector-curvature="0"
             sodipodi:nodetypes="ccccccccccccccc" />
          <path
             style="fill:#fde00c;fill-opacity:0.65882353;stroke:none"
             d="m 118.95438,950.45245 c 1.38424,1.75575 5.28091,15.90604 -2.32932,20.2734 -3.25764,2.38253 -61.862851,0.83301 -68.929183,0.98272 -2.869635,-1.61594 -3.750766,-11.20799 -1.213366,-14.78355 1.268699,-1.78778 8.018826,-6.19926 12.899253,-4.74929 3.482533,4.29501 3.787507,4.89145 4.301509,2.26223 1.509635,-7.72207 8.485537,-13.79572 13.51153,-3.08851 6.241681,6.71754 23.135587,-12.78083 41.759577,-0.897 z"
             id="path7336"
             inkscape:connector-curvature="0"
             sodipodi:nodetypes="cccscscc" />
          <path
             sodipodi:nodetypes="ccccc"
             style="fill:#fdf90c;fill-opacity:0.65882353;stroke:none"
             d="m 81.576108,953.92913 c 6.705676,-6.30491 23.457082,-6.78209 29.306932,-6.6066 2.52803,-0.35658 10.25816,2.13258 8.72547,8.6503 -3.87675,0.53051 -7.66327,-2.48991 -11.6636,-2.56852 -2.1655,-0.16233 -23.888435,1.74916 -26.368802,0.52482 z"
             id="path7338"
             inkscape:connector-curvature="0" />
        </g>
      </g>
      <g
         id="g7420"
         transform="rotate(-53.501984,1401.6366,149.35645)">
        <g
           id="g7422"
           transform="matrix(1.1905349,-0.81872567,0.88610436,1.2885124,-554.89167,-143.17847)"
           style="fill:#000000">
          <path
             style="fill:#000000;stroke:#000000;stroke-width:0.43743804px;stroke-linecap:butt;stroke-linejoin:miter;stroke-opacity:1"
             d="m 471.85629,1192.6554 c -2.91334,14.9727 -11.50424,30.8342 -5.33917,46.0442 11.28434,14.336 29.07916,-5.2565 21.78325,-19.1341 -0.17395,-11.2628 -3.1653,-26.1701 -16.44408,-26.9101 z"
             id="path7424"
             inkscape:connector-curvature="0" />
        </g>
        <path
           style="fill:#6f6f91;fill-opacity:1;stroke:none"
           d="m 1109.1452,1071.483 c 11.8907,-0.1394 12.569,-19.9325 7.9876,-31.5685 -5.5366,-14.15 -23.7589,-26.1983 -31.5613,-30.4462 -1.3788,-2.2609 -13.0438,-5.8497 -11.8267,-1.9195 0.9345,3.0399 10.4721,2.1177 12.3204,4.5282 12.9131,4.3964 20.7851,21.4239 25.7579,34.0367 2.548,7.5647 2.4726,17.8033 -2.6779,25.3693 z"
           id="path7426"
           inkscape:connector-curvature="0"
           sodipodi:nodetypes="ccccccc" />
        <path
           style="fill:none;stroke:#d989eb;stroke-width:1px;stroke-linecap:butt;stroke-linejoin:miter;stroke-opacity:0.77777782"
           d="m 1074.4999,1035.998 c 11.9732,33.2487 25.1287,37.7534 32.6935,36.2627 7.825,-2.1877 10.539,-6.6624 11.6218,-9.5689 4.6277,-12.4224 1.7702,-30.9018 -31.4608,-53.079"
           id="path7428"
           inkscape:connector-curvature="0"
           sodipodi:nodetypes="ccsc" />
      </g>
      <g
         transform="rotate(-40.868211,2047.6925,964.71107)"
         id="g7476">
        <g
           id="g7471"
           transform="translate(19.162393,-84.213675)">
          <g
             id="g7438"
             transform="rotate(-1.9729575,-1730.3184,-41111.586)">
            <path
               style="fill:#000000;stroke:#000000;stroke-width:1px;stroke-linecap:butt;stroke-linejoin:miter;stroke-opacity:1"
               d="m 547.98345,1091.6176 c 5.66479,6.4848 12.50177,4.2425 16.04731,4.7232 15.6632,-6.4468 13.1406,-26.7349 1.71413,-29.3392 -3.38233,-1.8203 -0.94603,2.6272 -7.18434,1.2006 -7.7393,4.7502 -12.0053,16.0884 -10.5771,23.4154 z"
               id="path7440"
               inkscape:connector-curvature="0"
               sodipodi:nodetypes="ccccc" />
            <path
               style="fill:#7a6f91;fill-opacity:1;stroke:#000000;stroke-width:1px;stroke-linecap:butt;stroke-linejoin:miter;stroke-opacity:1"
               d="m 572.83593,1085.285 c -6.22561,12.1709 -17.21087,8.2134 -22.08067,7.7036 -2.02054,-0.5443 -4.53732,-1.0509 -0.99191,-0.5843 10.86966,-1.232 18.77155,-7.9514 16.43659,-23.0165 8.25824,4.5881 8.97633,9.2455 6.63599,15.8972 z"
               id="path7442"
               inkscape:connector-curvature="0"
               sodipodi:nodetypes="ccccc" />
          </g>
        </g>
      </g>
      <g
         transform="rotate(26.186482,1011.7538,4809.4187)"
         id="g7342">
        <g
           style="display:inline"
           id="g7344">
          <path
             inkscape:connector-curvature="0"
             id="path7346"
             d="m 54.745204,893.08613 c -19.670925,-10.8331 -29.062091,-37.68025 -20.682741,-59.07034 4.46137,-14.25394 13.158284,-28.41647 27.162522,-34.07071 14.512845,-7.0087 31.355935,-10.01222 46.929015,-5.14811 14.97135,4.31539 27.74105,15.77991 33.88175,30.58705 7.51342,16.91083 8.49027,37.72032 -0.11986,54.38872 -10.07431,16.79846 -29.4643,25.78875 -48.104894,26.4243 -10.358028,0.46231 -20.26579,-3.04582 -29.761555,-6.89611 -4.668727,-1.71339 -9.38122,-3.77057 -13.013475,-7.36746"
             style="fill:#000000;stroke:#000000;stroke-width:0.19063042;stroke-linecap:butt;stroke-linejoin:miter;stroke-miterlimit:4;stroke-dasharray:none;stroke-opacity:1" />
          <path
             sodipodi:nodetypes="ccccccc"
             inkscape:connector-curvature="0"
             id="path7348"
             d="m 131.89659,812.40054 c -20.83671,-2.47935 -56.051819,-5.39886 -65.114023,15.72677 -6.834216,15.77745 -8.201198,38.52669 8.396721,46.58406 9.177056,4.90656 19.710482,5.99243 29.881782,6.07798 6.4473,-0.77343 12.70317,-3.37976 19.28463,-2.68429 6.93378,-0.19897 12.4483,0.26418 17.57338,-5.04358 11.31501,-18.63644 1.13975,-49.478 -10.02249,-60.66094 z"
             style="fill:#cc91cc;fill-opacity:1;stroke:#000000;stroke-width:1.86857915;stroke-linecap:butt;stroke-linejoin:miter;stroke-miterlimit:4;stroke-dasharray:none;stroke-opacity:1" />
          <path
             sodipodi:nodetypes="ccccc"
             inkscape:connector-curvature="0"
             id="path7350"
             d="m 65.423024,844.11617 c -5.253844,24.81212 18.89439,38.75102 38.800486,33.32209 10.57688,-6.08608 17.48202,-6.86494 33.27367,-1.67502 14.18798,-10.95732 8.54176,-48.81712 -6.44693,-60.79011 -13.61021,-1.59702 -62.153709,-10.88147 -65.627226,29.14304 z"
             style="fill:#f8efff;fill-opacity:1;stroke:none" />
          <path
             inkscape:connector-curvature="0"
             id="path7352"
             d="m 140.55139,840.42347 c -1.35281,1.66272 -3.48015,2.61865 -4.01476,5.09691 -0.99823,4.18585 -0.37044,8.62244 -1.07892,12.86375 -0.0612,2.48107 -0.50042,5.28466 0.7931,7.43229 1.66454,2.66635 4.48112,4.31918 7.21951,3.81594 2.12803,-0.83124 3.1493,-3.80558 2.99373,-6.38556 0.58619,-5.76267 1.41052,-11.70013 0.24665,-17.43968 -0.57357,-2.91323 -2.81726,-5.34646 -5.30265,-5.24683 -0.28673,-0.0328 -0.57354,-0.0705 -0.85666,-0.13679 z"
             style="fill:#0b0b28;stroke:#000000;stroke-width:0.19200477;stroke-linecap:butt;stroke-linejoin:miter;stroke-miterlimit:4;stroke-dasharray:none;stroke-opacity:1" />
          <path
             style="fill:#0b0b28;stroke:#000000;stroke-width:0.20109792;stroke-linecap:butt;stroke-linejoin:miter;stroke-miterlimit:4;stroke-dasharray:none;stroke-opacity:1"
             d="m 126.51083,840.06059 c -1.46578,1.68337 -3.77073,2.65118 -4.35001,5.16022 -1.08156,4.23786 -0.40136,8.72957 -1.169,13.02358 -0.0663,2.51189 -0.5422,5.35031 0.85933,7.52462 1.80352,2.69948 4.8553,4.37284 7.82234,3.86335 2.3057,-0.84157 3.41223,-3.85286 3.24372,-6.46489 0.63511,-5.83427 1.52827,-11.84549 0.26722,-17.65635 -0.62145,-2.94943 -3.0525,-5.41289 -5.74543,-5.31202 -0.31066,-0.0332 -0.62142,-0.0713 -0.92817,-0.13849 z"
             id="path7354"
             inkscape:connector-curvature="0" />
          <ellipse
             ry="11.111678"
             rx="5.0507627"
             cy="423.03714"
             cx="-271.73105"
             transform="matrix(0.36719216,0,0,0.38035553,229.97342,687.27728)"
             id="path7356"
             style="fill:#aa87de;fill-opacity:1;stroke:none" />
          <ellipse
             ry="11.111678"
             rx="5.0507627"
             cy="423.03714"
             cx="-271.73105"
             style="fill:#aa87de;fill-opacity:1;stroke:none"
             id="path7358"
             transform="matrix(0.36719216,0,0,0.38035553,243.01188,687.64017)" />
          <path
             sodipodi:nodetypes="cccccc"
             inkscape:connector-curvature="0"
             id="path7360"
             d="m 114.09243,800.48982 c -12.16838,-6.46671 -39.922075,-6.44153 -56.949807,5.67596 -13.929073,10.46476 -22.156995,32.05888 -21.852026,49.53797 -1.469121,8.09351 15.76593,29.63429 16.779517,25.33985 -12.089498,-15.61999 -13.028496,-47.08536 -0.599786,-61.22391 13.279916,-24.86954 45.70636,-22.60738 62.622102,-19.32987 z"
             style="fill:#7a6f91;fill-opacity:1;stroke:none" />
          <path
             sodipodi:nodetypes="ccccc"
             inkscape:connector-curvature="0"
             id="path7362"
             d="m 97.253424,816.6696 c -22.392479,2.48791 -26.653791,14.97133 -28.246864,25.65542 -2.792091,10.91804 1.222737,25.81562 13.467458,28.70402 10.326807,2.4454 -3.658256,-7.68694 -3.326425,-12.30724 -4.02842,-16.11394 9.913975,-31.75406 18.105831,-42.0522 z"
             style="fill:#ffffff;fill-opacity:0.65882353;stroke:none" />
          <ellipse
             ry="1.8144295"
             rx="2.1773155"
             cy="127.43235"
             cx="126.28429"
             transform="matrix(0.41666667,0,0,1,90.822512,719.53409)"
             id="path7364"
             style="fill:#ffffff;fill-opacity:1;stroke:none" />
          <ellipse
             ry="1.8144295"
             rx="2.1773155"
             cy="127.43235"
             cx="126.28429"
             style="fill:#ffffff;fill-opacity:1;stroke:none"
             id="path7366"
             transform="matrix(0.41666667,0,0,1,77.758619,719.53409)" />
          <path
             sodipodi:nodetypes="cccccccc"
             inkscape:connector-curvature="0"
             id="path7368"
             d="m 92.868532,882.61797 c -5.939958,6.103 -6.65355,7.82824 -4.3773,12.69515 11.444745,9.26888 25.836268,3.66431 39.101178,4.06211 5.44017,-0.0102 12.54688,-3.10725 14.62177,-8.49951 1.43349,-3.41199 0.88485,-7.55308 -1.48507,-10.37357 -2.92127,-3.9772 -7.71334,-5.62886 -12.23511,-6.67357 -15.53028,-3.82674 -23.06577,1.32639 -34.918361,8.08231 z"
             style="fill:#ff9f39;fill-opacity:1;stroke:#000000;stroke-width:1.56960642;stroke-linecap:butt;stroke-linejoin:miter;stroke-miterlimit:4;stroke-dasharray:none;stroke-opacity:1" />
          <path
             sodipodi:nodetypes="ccccc"
             inkscape:connector-curvature="0"
             id="path7370"
             d="m 94.352079,887.437 c 2.800207,-1.48803 0.162247,-0.55831 0.162247,-0.55831 0.47755,8.78707 12.538944,12.07223 26.053004,12.24306 1.48183,0.67284 3.18777,2.4287 1.63547,1.31927 -15.79943,-1.0054 -28.649516,-3.76254 -27.850721,-13.00402 z"
             style="fill:#000000;stroke:#000000;stroke-width:0;stroke-linecap:butt;stroke-linejoin:miter;stroke-miterlimit:4;stroke-dasharray:none;stroke-opacity:1" />
          <path
             style="fill:#fde00c;fill-opacity:0.65700486;stroke:none"
             d="m 140.74376,890.22676 c -2.17077,11.20197 -40.58577,11.67624 -44.769801,-7.62803 20.474151,-15.54479 48.164501,-7.25003 44.769801,7.62803 z"
             id="path7372"
             inkscape:connector-curvature="0"
             sodipodi:nodetypes="ccc" />
          <path
             sodipodi:nodetypes="cccc"
             inkscape:connector-curvature="0"
             id="path7374"
             d="m 106.29664,877.27306 c 5.4545,2.41607 17.57432,-4.83362 30.89376,4.56721 1.96382,-0.009 -2.93175,-3.92454 -3.54836,-4.18608 -11.45092,-4.96921 -17.60181,-2.9809 -27.3454,-0.38113 z"
             style="fill:#fdf90c;fill-opacity:0.65882353;stroke:none" />
          <path
             sodipodi:nodetypes="ccc"
             inkscape:connector-curvature="0"
             id="path7376"
             d="m 91.714747,885.80731 c -6.511783,8.61388 3.22071,12.76079 6.560212,10.84357 -4.718213,-0.0144 -7.027015,-5.36871 -6.560212,-10.84357 z"
             style="opacity:0.44392527;fill:#ffdb00;fill-opacity:1;stroke:none" />
        </g>
        <path
           style="fill:#000000;stroke:#000000;stroke-width:0.19063042;stroke-linecap:butt;stroke-linejoin:miter;stroke-miterlimit:4;stroke-dasharray:none;stroke-opacity:1"
           d="m 54.745204,893.08613 c -19.670925,-10.8331 -29.062091,-37.68025 -20.682741,-59.07034 4.46137,-14.25394 13.158284,-28.41647 27.162522,-34.07071 14.512845,-7.0087 31.355935,-10.01222 46.929015,-5.14811 14.97135,4.31539 27.74105,15.77991 33.88175,30.58705 7.51342,16.91083 8.49027,37.72032 -0.11986,54.38872 -10.07431,16.79846 -29.4643,25.78875 -48.104894,26.4243 -10.358028,0.46231 -20.26579,-3.04582 -29.761555,-6.89611 -4.668727,-1.71339 -9.38122,-3.77057 -13.013475,-7.36746"
           id="path7378"
           inkscape:connector-curvature="0" />
        <path
           style="fill:#cc91cc;fill-opacity:1;stroke:#000000;stroke-width:1.86857915;stroke-linecap:butt;stroke-linejoin:miter;stroke-miterlimit:4;stroke-dasharray:none;stroke-opacity:1"
           d="m 131.89659,812.40054 c -20.83671,-2.47935 -56.051819,-5.39886 -65.114023,15.72677 -6.834216,15.77745 -8.201198,38.52669 8.396721,46.58406 9.177056,4.90656 19.710482,5.99243 29.881782,6.07798 6.4473,-0.77343 12.70317,-3.37976 19.28463,-2.68429 6.93378,-0.19897 12.4483,0.26418 17.57338,-5.04358 11.31501,-18.63644 1.13975,-49.478 -10.02249,-60.66094 z"
           id="path7380"
           inkscape:connector-curvature="0"
           sodipodi:nodetypes="ccccccc" />
        <path
           style="fill:#f8efff;fill-opacity:1;stroke:none"
           d="m 65.423024,844.11617 c -5.253844,24.81212 18.89439,38.75102 38.800486,33.32209 10.57688,-6.08608 17.48202,-6.86494 33.27367,-1.67502 14.18798,-10.95732 8.54176,-48.81712 -6.44693,-60.79011 -13.61021,-1.59702 -62.153709,-10.88147 -65.627226,29.14304 z"
           id="path7382"
           inkscape:connector-curvature="0"
           sodipodi:nodetypes="ccccc" />
        <path
           style="fill:#0b0b28;stroke:#000000;stroke-width:0.19200477;stroke-linecap:butt;stroke-linejoin:miter;stroke-miterlimit:4;stroke-dasharray:none;stroke-opacity:1"
           d="m 140.55139,840.42347 c -1.35281,1.66272 -3.48015,2.61865 -4.01476,5.09691 -0.99823,4.18585 -0.37044,8.62244 -1.07892,12.86375 -0.0612,2.48107 -0.50042,5.28466 0.7931,7.43229 1.66454,2.66635 4.48112,4.31918 7.21951,3.81594 2.12803,-0.83124 3.1493,-3.80558 2.99373,-6.38556 0.58619,-5.76267 1.41052,-11.70013 0.24665,-17.43968 -0.57357,-2.91323 -2.81726,-5.34646 -5.30265,-5.24683 -0.28673,-0.0328 -0.57354,-0.0705 -0.85666,-0.13679 z"
           id="path7384"
           inkscape:connector-curvature="0" />
        <path
           inkscape:connector-curvature="0"
           id="path7386"
           d="m 126.51083,840.06059 c -1.46578,1.68337 -3.77073,2.65118 -4.35001,5.16022 -1.08156,4.23786 -0.40136,8.72957 -1.169,13.02358 -0.0663,2.51189 -0.5422,5.35031 0.85933,7.52462 1.80352,2.69948 4.8553,4.37284 7.82234,3.86335 2.3057,-0.84157 3.41223,-3.85286 3.24372,-6.46489 0.63511,-5.83427 1.52827,-11.84549 0.26722,-17.65635 -0.62145,-2.94943 -3.0525,-5.41289 -5.74543,-5.31202 -0.31066,-0.0332 -0.62142,-0.0713 -0.92817,-0.13849 z"
           style="fill:#0b0b28;stroke:#000000;stroke-width:0.20109792;stroke-linecap:butt;stroke-linejoin:miter;stroke-miterlimit:4;stroke-dasharray:none;stroke-opacity:1" />
        <ellipse
           ry="11.111678"
           rx="5.0507627"
           cy="423.03714"
           cx="-271.73105"
           style="fill:#aa87de;fill-opacity:1;stroke:none"
           id="path7388"
           transform="matrix(0.36719216,0,0,0.38035553,229.97342,687.27728)" />
        <ellipse
           ry="11.111678"
           rx="5.0507627"
           cy="423.03714"
           cx="-271.73105"
           transform="matrix(0.36719216,0,0,0.38035553,243.01188,687.64017)"
           id="path7390"
           style="fill:#aa87de;fill-opacity:1;stroke:none" />
        <path
           style="fill:#7a6f91;fill-opacity:1;stroke:none"
           d="m 114.09243,800.48982 c -12.16838,-6.46671 -39.922075,-6.44153 -56.949807,5.67596 -13.929073,10.46476 -22.156995,32.05888 -21.852026,49.53797 -1.469121,8.09351 15.76593,29.63429 16.779517,25.33985 -12.089498,-15.61999 -13.028496,-47.08536 -0.599786,-61.22391 13.279916,-24.86954 45.70636,-22.60738 62.622102,-19.32987 z"
           id="path7392"
           inkscape:connector-curvature="0"
           sodipodi:nodetypes="cccccc" />
        <path
           style="fill:#ffffff;fill-opacity:0.65882353;stroke:none"
           d="m 97.253424,816.6696 c -22.392479,2.48791 -26.653791,14.97133 -28.246864,25.65542 -2.792091,10.91804 1.222737,25.81562 13.467458,28.70402 10.326807,2.4454 -3.658256,-7.68694 -3.326425,-12.30724 -4.02842,-16.11394 9.913975,-31.75406 18.105831,-42.0522 z"
           id="path7394"
           inkscape:connector-curvature="0"
           sodipodi:nodetypes="ccccc" />
        <ellipse
           ry="1.8144295"
           rx="2.1773155"
           cy="127.43235"
           cx="126.28429"
           style="fill:#ffffff;fill-opacity:1;stroke:none"
           id="path7396"
           transform="matrix(0.41666667,0,0,1,90.822512,719.53409)" />
        <ellipse
           ry="1.8144295"
           rx="2.1773155"
           cy="127.43235"
           cx="126.28429"
           transform="matrix(0.41666667,0,0,1,77.758619,719.53409)"
           id="path7398"
           style="fill:#ffffff;fill-opacity:1;stroke:none" />
        <path
           style="fill:#ff9f39;fill-opacity:1;stroke:#000000;stroke-width:1.56960642;stroke-linecap:butt;stroke-linejoin:miter;stroke-miterlimit:4;stroke-dasharray:none;stroke-opacity:1"
           d="m 92.868532,882.61797 c -5.939958,6.103 -6.65355,7.82824 -4.3773,12.69515 11.444745,9.26888 25.836268,3.66431 39.101178,4.06211 5.44017,-0.0102 12.54688,-3.10725 14.62177,-8.49951 1.43349,-3.41199 0.88485,-7.55308 -1.48507,-10.37357 -2.92127,-3.9772 -7.71334,-5.62886 -12.23511,-6.67357 -15.53028,-3.82674 -23.06577,1.32639 -34.918361,8.08231 z"
           id="path7400"
           inkscape:connector-curvature="0"
           sodipodi:nodetypes="cccccccc" />
        <path
           style="fill:#000000;stroke:#000000;stroke-width:0;stroke-linecap:butt;stroke-linejoin:miter;stroke-miterlimit:4;stroke-dasharray:none;stroke-opacity:1"
           d="m 94.352079,887.437 c 2.800207,-1.48803 0.162247,-0.55831 0.162247,-0.55831 0.47755,8.78707 12.538944,12.07223 26.053004,12.24306 1.48183,0.67284 3.18777,2.4287 1.63547,1.31927 -15.79943,-1.0054 -28.649516,-3.76254 -27.850721,-13.00402 z"
           id="path7402"
           inkscape:connector-curvature="0"
           sodipodi:nodetypes="ccccc" />
        <path
           sodipodi:nodetypes="ccc"
           inkscape:connector-curvature="0"
           id="path7404"
           d="m 140.74376,890.22676 c -2.17077,11.20197 -40.58577,11.67624 -44.769801,-7.62803 20.474151,-15.54479 48.164501,-7.25003 44.769801,7.62803 z"
           style="fill:#fde00c;fill-opacity:0.65700486;stroke:none" />
        <path
           style="fill:#fdf90c;fill-opacity:0.65882353;stroke:none"
           d="m 106.29664,877.27306 c 5.4545,2.41607 17.57432,-4.83362 30.89376,4.56721 1.96382,-0.009 -2.93175,-3.92454 -3.54836,-4.18608 -11.45092,-4.96921 -17.60181,-2.9809 -27.3454,-0.38113 z"
           id="path7406"
           inkscape:connector-curvature="0"
           sodipodi:nodetypes="cccc" />
        <path
           style="opacity:0.44392527;fill:#ffdb00;fill-opacity:1;stroke:none"
           d="m 91.714747,885.80731 c -6.511783,8.61388 3.22071,12.76079 6.560212,10.84357 -4.718213,-0.0144 -7.027015,-5.36871 -6.560212,-10.84357 z"
           id="path7408"
           inkscape:connector-curvature="0"
           sodipodi:nodetypes="ccc" />
      </g>
    </g>
  </g>
</svg>
