<?xml version="1.0" encoding="UTF-8" standalone="no"?>
<!-- Created with Inkscape (http://www.inkscape.org/) -->

<svg
   xmlns:dc="http://purl.org/dc/elements/1.1/"
   xmlns:cc="http://creativecommons.org/ns#"
   xmlns:rdf="http://www.w3.org/1999/02/22-rdf-syntax-ns#"
   xmlns:svg="http://www.w3.org/2000/svg"
   xmlns="http://www.w3.org/2000/svg"
   xmlns:sodipodi="http://sodipodi.sourceforge.net/DTD/sodipodi-0.dtd"
   xmlns:inkscape="http://www.inkscape.org/namespaces/inkscape"
   width="250"
   height="250"
   viewBox="0 0 66.145831 66.145835"
   version="1.1"
   id="svg1537"
   sodipodi:docname="Tux_junior-0.svg"
   inkscape:version="0.92.5 (2060ec1f9f, 2020-04-08)">
  <defs
     id="defs1531" />
  <sodipodi:namedview
     id="base"
     pagecolor="#ffffff"
     bordercolor="#666666"
     borderopacity="1.0"
     inkscape:pageopacity="0.0"
     inkscape:pageshadow="2"
     inkscape:zoom="0.48118658"
     inkscape:cx="-286.42316"
     inkscape:cy="560"
     inkscape:document-units="mm"
     inkscape:current-layer="layer1"
     showgrid="false"
     units="px"
     inkscape:window-width="1920"
     inkscape:window-height="1043"
     inkscape:window-x="1920"
     inkscape:window-y="0"
     inkscape:window-maximized="1" />
  <metadata
     id="metadata1534">
    <rdf:RDF>
      <cc:Work
         rdf:about="">
        <dc:format>image/svg+xml</dc:format>
        <dc:type
           rdf:resource="http://purl.org/dc/dcmitype/StillImage" />
        <dc:title />
      </cc:Work>
    </rdf:RDF>
  </metadata>
  <g
     inkscape:label="Calque 1"
     inkscape:groupmode="layer"
     id="layer1"
     transform="translate(0,-230.85415)">
    <rect
       style="opacity:1;fill:#ffffff;fill-opacity:1;stroke:#000000;stroke-width:0;stroke-miterlimit:4;stroke-dasharray:none;stroke-opacity:1"
       id="rect5827"
       width="66.145836"
       height="66.145836"
       x="-1.2715658e-06"
       y="230.85414" />
    <g
       id="g2227"
       transform="translate(59.742275,141.30361)">
      <path
         style="display:inline;fill:#ffb124;fill-opacity:1;stroke:#000000;stroke-width:0.49439499;stroke-linecap:butt;stroke-linejoin:miter;stroke-miterlimit:4;stroke-dasharray:none;stroke-opacity:1"
         d="m -26.289802,141.22629 c 0.246832,-0.70055 0.818134,-1.55205 1.948694,-1.60611 1.131239,-0.12083 2.382232,0.4774 2.502308,1.32757 0.374237,0.55535 1.385503,0.46164 2.002192,0.19225 0.78564,-0.37636 1.639125,-0.6695 2.565127,-0.8199 1.441723,-0.23791 2.952658,-0.39326 4.427247,-0.24975 1.213752,0.13344 2.478392,0.7259 2.628477,1.67588 0.170743,0.7399 0.160657,1.49555 0.310713,2.23679 0.04152,0.97176 -0.444338,2.13084 -1.779455,2.53579 -1.188053,0.22921 -2.425814,0.0265 -3.633494,0.12456 -2.069518,0.0319 -4.141462,0.11888 -6.210607,0.031 -1.082892,-0.28508 -2.175849,0.34306 -3.260858,0.0726 -1.672731,-0.15925 -3.367095,-0.25397 -5.052709,-0.15544 -1.11103,-0.15102 -1.335592,-1.12472 -1.207006,-1.80869 0.01887,-0.86143 -0.202967,-1.81756 0.562508,-2.55937 0.640548,-0.7163 1.813104,-1.03251 2.931622,-1.14414 0.419324,-0.0748 0.965058,-0.14336 1.265241,0.14706 z"
         id="path4865"
         inkscape:connector-curvature="0" />
      <path
         sodipodi:nodetypes="ccccccccccc"
         inkscape:connector-curvature="0"
         id="path4859"
         d="m -38.66071,126.42773 c 0.515192,-1.53097 0.888204,-2.04248 2.053546,-3.12613 1.103111,-0.82973 2.167711,1.00811 3.455045,0.90393 1.67205,0.0476 3.295583,-0.3862 4.957328,-0.4724 2.910679,-0.2655 5.990725,-0.61694 8.745821,0.64792 0.837123,0.34538 1.91343,0.74748 2.175785,1.7449 4.637649,4.1722 5.61756,11.16059 2.797051,15.37115 -6.735051,2.64205 -6.114151,-0.42474 -8.709197,-0.37458 -2.624976,0.006 -5.240755,-0.34819 -7.868227,-0.22022 -2.568538,0.01 -5.20767,0.18706 -7.690496,-0.61534 -1.972437,-2.01024 -1.128448,-10.79317 0.08334,-13.85923 z"
         style="display:inline;fill:#1a1a1a;stroke:#000000;stroke-width:0.05043763;stroke-linecap:butt;stroke-linejoin:miter;stroke-miterlimit:4;stroke-dasharray:none;stroke-opacity:1" />
      <path
         inkscape:transform-center-y="36.71999"
         inkscape:transform-center-x="-36.774375"
         style="display:inline;fill:#6f6f91;fill-opacity:1;stroke:none;stroke-width:0.26458332"
         d="m -34.243353,138.24745 c 2.01579,-0.1188 3.816809,-1.30681 4.38483,-2.85087 0.344235,-0.83182 0.25438,-1.71606 0.28025,-2.57802 -0.07637,-2.28932 -0.947952,-4.49839 -1.198357,-6.77259 0.06145,-0.48807 -0.720565,-1.18341 -1.048924,-0.47116 -0.255235,0.55012 0.01448,1.12854 0.02,1.69252 0.273531,2.4438 0.784729,4.96341 -0.06863,7.37231 -0.48411,1.20026 -1.07301,2.41637 -2.107456,3.38767 -0.08398,0.0758 -0.171207,0.1493 -0.261713,0.22014 z"
         id="path5664"
         inkscape:connector-curvature="0" />
      <path
         sodipodi:nodetypes="cccccc"
         inkscape:connector-curvature="0"
         id="path5765"
         d="m -13.88447,140.39107 c 3.5598,0.90216 4.79956,6.17301 -5.12672,4.4758 0.698494,0.50704 -0.366239,0.92474 -0.306113,1.38874 11.905232,0.83397 8.565349,-2.56502 8.358665,-4.97391 -0.737082,-0.60444 -1.724634,-0.8606 -2.925829,-0.89063 z"
         style="display:inline;fill:#fde00c;fill-opacity:0.65882353;stroke:none;stroke-width:0.26458332" />
      <path
         sodipodi:nodetypes="ccc"
         inkscape:connector-curvature="0"
         id="path5793"
         d="m -36.783706,130.54969 c -1.296781,2.57139 -0.185083,7.53518 1.477825,7.6447 1.265883,0.25009 3.30285,-0.24492 4.305572,-1.19964"
         style="display:inline;fill:none;stroke:#d989eb;stroke-width:0.26458332px;stroke-linecap:butt;stroke-linejoin:miter;stroke-opacity:0.77777782" />
      <path
         sodipodi:nodetypes="ccc"
         inkscape:connector-curvature="0"
         id="path5804"
         d="m -31.01504,137.03147 c 0.783388,-0.6963 1.089303,-1.32038 1.377107,-2.38121 0.406659,-2.12608 -0.719079,-6.96054 -1.10554,-8.88883"
         style="display:inline;fill:none;stroke:#9c91b9;stroke-width:0.26458332px;stroke-linecap:butt;stroke-linejoin:miter;stroke-opacity:1" />
      <path
         sodipodi:nodetypes="cccccccc"
         inkscape:connector-curvature="0"
         id="path4861"
         d="m -28.041877,128.1483 c 0.411463,1.88106 0.459571,3.06514 0.864791,5.33115 0.243264,1.92054 -0.264248,5.0785 -0.182477,7.00377 0.32239,0.75376 1.287271,0.66783 1.985538,0.71131 2.477024,0.36818 4.198225,0.85989 6.689963,0.76145 0.859531,0.23715 3.751779,-0.5326 4.077158,-1.90002 2.7877,-7.22267 -1.161264,-11.09652 -4.035457,-12.21671 -3.948369,0.0888 -5.867784,0.77045 -9.399516,0.30905 z"
         style="display:inline;fill:#f8efff;fill-opacity:1;stroke:#000000;stroke-width:0.10012824px;stroke-linecap:butt;stroke-linejoin:miter;stroke-opacity:1" />
      <g
         transform="matrix(0.26458333,0,0,0.26458333,-51.857835,-110.92197)"
         id="g5896"
         style="display:inline">
        <path
           style="fill:#ff9f39;fill-opacity:1;stroke:#000000;stroke-width:1.86857951;stroke-linecap:butt;stroke-linejoin:miter;stroke-miterlimit:4;stroke-dasharray:none;stroke-opacity:1"
           d="m 60.679934,950.11044 c 0.93291,-2.97403 3.092165,-6.58879 7.365147,-6.81828 4.275545,-0.51294 9.00371,2.02665 9.457541,5.63577 1.414443,2.3576 5.23655,1.95977 7.567335,0.81614 2.969358,-1.5977 6.195123,-2.84213 9.694971,-3.48061 5.449032,-1.00998 11.159652,-1.66946 16.732902,-1.06026 4.58741,0.56649 9.36715,3.0816 9.9344,7.11443 0.64533,3.14109 0.60721,6.3489 1.17435,9.4956 0.15692,4.12527 -1.67939,9.04579 -6.7255,10.76484 -4.49028,0.97302 -9.16843,0.11195 -13.73289,0.52888 -18.993242,1.64692 -37.202943,-1.2968 -54.894509,-0.22059 -4.199169,-0.64105 -5.047908,-4.77459 -4.561915,-7.67822 0.07131,-3.65685 -0.767119,-7.71579 2.126017,-10.86496 2.420968,-3.04087 6.852672,-4.38316 11.080145,-4.85706 1.584845,-0.3177 3.647455,-0.60859 4.782006,0.62432 z"
           id="path4867"
           inkscape:connector-curvature="0"
           sodipodi:nodetypes="ccccccccccccccc" />
        <path
           style="fill:#fde00c;fill-opacity:0.65882353;stroke:none"
           d="m 118.95438,950.45245 c 1.38424,1.75575 5.28091,15.90604 -2.32932,20.2734 -3.25764,2.38253 -61.862851,0.83301 -68.929183,0.98272 -2.869635,-1.61594 -3.750766,-11.20799 -1.213366,-14.78355 1.268699,-1.78778 8.018826,-6.19926 12.899253,-4.74929 3.482533,4.29501 3.787507,4.89145 4.301509,2.26223 1.509635,-7.72207 8.485537,-13.79572 13.51153,-3.08851 6.241681,6.71754 23.135587,-12.78083 41.759577,-0.897 z"
           id="path4885"
           inkscape:connector-curvature="0"
           sodipodi:nodetypes="cccscscc" />
        <path
           sodipodi:nodetypes="ccccc"
           style="fill:#fdf90c;fill-opacity:0.65882353;stroke:none"
           d="m 81.576108,953.92913 c 6.705676,-6.30491 23.457082,-6.78209 29.306932,-6.6066 2.52803,-0.35658 10.25816,2.13258 8.72547,8.6503 -3.87675,0.53051 -7.66327,-2.48991 -11.6636,-2.56852 -2.1655,-0.16233 -23.888435,1.74916 -26.368802,0.52482 z"
           id="path5865"
           inkscape:connector-curvature="0" />
      </g>
      <path
         sodipodi:nodetypes="ccccc"
         inkscape:connector-curvature="0"
         id="path5905"
         d="m -27.814712,128.59098 c 0.05288,1.93268 2.093206,8.029 0.725024,10.60453 2.409392,-1.07447 6.41076,-1.54111 8.146631,2.11236 3.567224,-4.26778 0.659788,-11.18032 -2.149542,-12.94569 -2.132441,0.9674 -5.169934,0.84884 -6.722113,0.2288 z"
         style="display:inline;fill:#ffffff;fill-opacity:1;stroke:none;stroke-width:0.26458332" />
      <g
         id="g6098"
         style="display:inline"
         transform="matrix(0.26458333,0,0,0.26458333,-51.857835,-111.45114)">
        <g
           id="g6029"
           style="display:inline">
          <path
             style="fill:#000000;stroke:#000000;stroke-width:0.19063042;stroke-linecap:butt;stroke-linejoin:miter;stroke-miterlimit:4;stroke-dasharray:none;stroke-opacity:1"
             d="m 54.745204,893.08613 c -19.670925,-10.8331 -29.062091,-37.68025 -20.682741,-59.07034 4.46137,-14.25394 13.158284,-28.41647 27.162522,-34.07071 14.512845,-7.0087 31.355935,-10.01222 46.929015,-5.14811 14.97135,4.31539 27.74105,15.77991 33.88175,30.58705 7.51342,16.91083 8.49027,37.72032 -0.11986,54.38872 -10.07431,16.79846 -29.4643,25.78875 -48.104894,26.4243 -10.358028,0.46231 -20.26579,-3.04582 -29.761555,-6.89611 -4.668727,-1.71339 -9.38122,-3.77057 -13.013475,-7.36746"
             id="path4869"
             inkscape:connector-curvature="0" />
          <path
             style="fill:#cc91cc;fill-opacity:1;stroke:#000000;stroke-width:1.86857915;stroke-linecap:butt;stroke-linejoin:miter;stroke-miterlimit:4;stroke-dasharray:none;stroke-opacity:1"
             d="m 131.89659,812.40054 c -20.83671,-2.47935 -56.051819,-5.39886 -65.114023,15.72677 -6.834216,15.77745 -8.201198,38.52669 8.396721,46.58406 9.177056,4.90656 19.710482,5.99243 29.881782,6.07798 6.4473,-0.77343 12.70317,-3.37976 19.28463,-2.68429 6.93378,-0.19897 12.4483,0.26418 17.57338,-5.04358 11.31501,-18.63644 1.13975,-49.478 -10.02249,-60.66094 z"
             id="path4871"
             inkscape:connector-curvature="0"
             sodipodi:nodetypes="ccccccc" />
          <path
             style="fill:#f8efff;fill-opacity:1;stroke:none"
             d="m 65.423024,844.11617 c -5.253844,24.81212 18.89439,38.75102 38.800486,33.32209 10.57688,-6.08608 17.48202,-6.86494 33.27367,-1.67502 14.18798,-10.95732 8.54176,-48.81712 -6.44693,-60.79011 -13.61021,-1.59702 -62.153709,-10.88147 -65.627226,29.14304 z"
             id="path4879"
             inkscape:connector-curvature="0"
             sodipodi:nodetypes="ccccc" />
          <path
             style="fill:#0b0b28;stroke:#000000;stroke-width:0.19200477;stroke-linecap:butt;stroke-linejoin:miter;stroke-miterlimit:4;stroke-dasharray:none;stroke-opacity:1"
             d="m 140.55139,840.42347 c -1.35281,1.66272 -3.48015,2.61865 -4.01476,5.09691 -0.99823,4.18585 -0.37044,8.62244 -1.07892,12.86375 -0.0612,2.48107 -0.50042,5.28466 0.7931,7.43229 1.66454,2.66635 4.48112,4.31918 7.21951,3.81594 2.12803,-0.83124 3.1493,-3.80558 2.99373,-6.38556 0.58619,-5.76267 1.41052,-11.70013 0.24665,-17.43968 -0.57357,-2.91323 -2.81726,-5.34646 -5.30265,-5.24683 -0.28673,-0.0328 -0.57354,-0.0705 -0.85666,-0.13679 z"
             id="path4881"
             inkscape:connector-curvature="0" />
          <path
             inkscape:connector-curvature="0"
             id="path4883"
             d="m 126.51083,840.06059 c -1.46578,1.68337 -3.77073,2.65118 -4.35001,5.16022 -1.08156,4.23786 -0.40136,8.72957 -1.169,13.02358 -0.0663,2.51189 -0.5422,5.35031 0.85933,7.52462 1.80352,2.69948 4.8553,4.37284 7.82234,3.86335 2.3057,-0.84157 3.41223,-3.85286 3.24372,-6.46489 0.63511,-5.83427 1.52827,-11.84549 0.26722,-17.65635 -0.62145,-2.94943 -3.0525,-5.41289 -5.74543,-5.31202 -0.31066,-0.0332 -0.62142,-0.0713 -0.92817,-0.13849 z"
             style="fill:#0b0b28;stroke:#000000;stroke-width:0.20109792;stroke-linecap:butt;stroke-linejoin:miter;stroke-miterlimit:4;stroke-dasharray:none;stroke-opacity:1" />
          <ellipse
             style="fill:#aa87de;fill-opacity:1;stroke:none"
             id="path4889"
             transform="matrix(0.36719216,0,0,0.38035553,229.97342,687.27728)"
             cx="-271.73105"
             cy="423.03714"
             rx="5.0507627"
             ry="11.111678" />
          <ellipse
             transform="matrix(0.36719216,0,0,0.38035553,243.01188,687.64017)"
             id="path4891"
             style="fill:#aa87de;fill-opacity:1;stroke:none"
             cx="-271.73105"
             cy="423.03714"
             rx="5.0507627"
             ry="11.111678" />
          <path
             style="fill:#7a6f91;fill-opacity:1;stroke:none"
             d="m 114.09243,800.48982 c -12.16838,-6.46671 -39.922075,-6.44153 -56.949807,5.67596 -13.929073,10.46476 -22.156995,32.05888 -21.852026,49.53797 -1.469121,8.09351 15.76593,29.63429 16.779517,25.33985 -12.089498,-15.61999 -13.028496,-47.08536 -0.599786,-61.22391 13.279916,-24.86954 45.70636,-22.60738 62.622102,-19.32987 z"
             id="path4895"
             inkscape:connector-curvature="0"
             sodipodi:nodetypes="cccccc" />
          <path
             style="fill:#ffffff;fill-opacity:0.65882353;stroke:none"
             d="m 97.253424,816.6696 c -22.392479,2.48791 -26.653791,14.97133 -28.246864,25.65542 -2.792091,10.91804 1.222737,25.81562 13.467458,28.70402 10.326807,2.4454 -3.658256,-7.68694 -3.326425,-12.30724 -4.02842,-16.11394 9.913975,-31.75406 18.105831,-42.0522 z"
             id="path5869"
             inkscape:connector-curvature="0"
             sodipodi:nodetypes="ccccc" />
          <ellipse
             style="fill:#ffffff;fill-opacity:1;stroke:none"
             id="path5901"
             transform="matrix(0.41666667,0,0,1,90.822512,719.53409)"
             cx="126.28429"
             cy="127.43235"
             rx="2.1773155"
             ry="1.8144295" />
          <ellipse
             transform="matrix(0.41666667,0,0,1,77.758619,719.53409)"
             id="path5903"
             style="fill:#ffffff;fill-opacity:1;stroke:none"
             cx="126.28429"
             cy="127.43235"
             rx="2.1773155"
             ry="1.8144295" />
          <path
             style="fill:#ff9f39;fill-opacity:1;stroke:#000000;stroke-width:1.56960642;stroke-linecap:butt;stroke-linejoin:miter;stroke-miterlimit:4;stroke-dasharray:none;stroke-opacity:1"
             d="m 92.868532,882.61797 c -5.939958,6.103 -6.65355,7.82824 -4.3773,12.69515 11.444745,9.26888 25.836268,3.66431 39.101178,4.06211 5.44017,-0.0102 12.54688,-3.10725 14.62177,-8.49951 1.43349,-3.41199 0.88485,-7.55308 -1.48507,-10.37357 -2.92127,-3.9772 -7.71334,-5.62886 -12.23511,-6.67357 -15.53028,-3.82674 -23.06577,1.32639 -34.918361,8.08231 z"
             id="path4873"
             inkscape:connector-curvature="0"
             sodipodi:nodetypes="cccccccc" />
          <path
             style="fill:#000000;stroke:#000000;stroke-width:0;stroke-linecap:butt;stroke-linejoin:miter;stroke-miterlimit:4;stroke-dasharray:none;stroke-opacity:1"
             d="m 94.352079,887.437 c 2.800207,-1.48803 0.162247,-0.55831 0.162247,-0.55831 0.47755,8.78707 12.538944,12.07223 26.053004,12.24306 1.48183,0.67284 3.18777,2.4287 1.63547,1.31927 -15.79943,-1.0054 -28.649516,-3.76254 -27.850721,-13.00402 z"
             id="path4875"
             inkscape:connector-curvature="0"
             sodipodi:nodetypes="ccccc" />
          <path
             sodipodi:nodetypes="ccc"
             inkscape:connector-curvature="0"
             id="path5687"
             d="m 140.74376,890.22676 c -2.17077,11.20197 -40.58577,11.67624 -44.769801,-7.62803 20.474151,-15.54479 48.164501,-7.25003 44.769801,7.62803 z"
             style="fill:#fde00c;fill-opacity:0.65700486;stroke:none" />
          <path
             style="fill:#fdf90c;fill-opacity:0.65882353;stroke:none"
             d="m 106.29664,877.27306 c 5.4545,2.41607 17.57432,-4.83362 30.89376,4.56721 1.96382,-0.009 -2.93175,-3.92454 -3.54836,-4.18608 -11.45092,-4.96921 -17.60181,-2.9809 -27.3454,-0.38113 z"
             id="path5867"
             inkscape:connector-curvature="0"
             sodipodi:nodetypes="cccc" />
          <path
             style="opacity:0.44392527;fill:#ffdb00;fill-opacity:1;stroke:none"
             d="m 91.714747,885.80731 c -6.511783,8.61388 3.22071,12.76079 6.560212,10.84357 -4.718213,-0.0144 -7.027015,-5.36871 -6.560212,-10.84357 z"
             id="path5873"
             inkscape:connector-curvature="0"
             sodipodi:nodetypes="ccc" />
        </g>
        <path
           inkscape:connector-curvature="0"
           id="path6049"
           d="m 54.745204,893.08613 c -19.670925,-10.8331 -29.062091,-37.68025 -20.682741,-59.07034 4.46137,-14.25394 13.158284,-28.41647 27.162522,-34.07071 14.512845,-7.0087 31.355935,-10.01222 46.929015,-5.14811 14.97135,4.31539 27.74105,15.77991 33.88175,30.58705 7.51342,16.91083 8.49027,37.72032 -0.11986,54.38872 -10.07431,16.79846 -29.4643,25.78875 -48.104894,26.4243 -10.358028,0.46231 -20.26579,-3.04582 -29.761555,-6.89611 -4.668727,-1.71339 -9.38122,-3.77057 -13.013475,-7.36746"
           style="fill:#000000;stroke:#000000;stroke-width:0.19063042;stroke-linecap:butt;stroke-linejoin:miter;stroke-miterlimit:4;stroke-dasharray:none;stroke-opacity:1" />
        <path
           sodipodi:nodetypes="ccccccc"
           inkscape:connector-curvature="0"
           id="path6051"
           d="m 131.89659,812.40054 c -20.83671,-2.47935 -56.051819,-5.39886 -65.114023,15.72677 -6.834216,15.77745 -8.201198,38.52669 8.396721,46.58406 9.177056,4.90656 19.710482,5.99243 29.881782,6.07798 6.4473,-0.77343 12.70317,-3.37976 19.28463,-2.68429 6.93378,-0.19897 12.4483,0.26418 17.57338,-5.04358 11.31501,-18.63644 1.13975,-49.478 -10.02249,-60.66094 z"
           style="fill:#cc91cc;fill-opacity:1;stroke:#000000;stroke-width:1.86857915;stroke-linecap:butt;stroke-linejoin:miter;stroke-miterlimit:4;stroke-dasharray:none;stroke-opacity:1" />
        <path
           sodipodi:nodetypes="ccccc"
           inkscape:connector-curvature="0"
           id="path6053"
           d="m 65.423024,844.11617 c -5.253844,24.81212 18.89439,38.75102 38.800486,33.32209 10.57688,-6.08608 17.48202,-6.86494 33.27367,-1.67502 14.18798,-10.95732 8.54176,-48.81712 -6.44693,-60.79011 -13.61021,-1.59702 -62.153709,-10.88147 -65.627226,29.14304 z"
           style="fill:#f8efff;fill-opacity:1;stroke:none" />
        <path
           inkscape:connector-curvature="0"
           id="path6055"
           d="m 140.55139,840.42347 c -1.35281,1.66272 -3.48015,2.61865 -4.01476,5.09691 -0.99823,4.18585 -0.37044,8.62244 -1.07892,12.86375 -0.0612,2.48107 -0.50042,5.28466 0.7931,7.43229 1.66454,2.66635 4.48112,4.31918 7.21951,3.81594 2.12803,-0.83124 3.1493,-3.80558 2.99373,-6.38556 0.58619,-5.76267 1.41052,-11.70013 0.24665,-17.43968 -0.57357,-2.91323 -2.81726,-5.34646 -5.30265,-5.24683 -0.28673,-0.0328 -0.57354,-0.0705 -0.85666,-0.13679 z"
           style="fill:#0b0b28;stroke:#000000;stroke-width:0.19200477;stroke-linecap:butt;stroke-linejoin:miter;stroke-miterlimit:4;stroke-dasharray:none;stroke-opacity:1" />
        <path
           style="fill:#0b0b28;stroke:#000000;stroke-width:0.20109792;stroke-linecap:butt;stroke-linejoin:miter;stroke-miterlimit:4;stroke-dasharray:none;stroke-opacity:1"
           d="m 126.51083,840.06059 c -1.46578,1.68337 -3.77073,2.65118 -4.35001,5.16022 -1.08156,4.23786 -0.40136,8.72957 -1.169,13.02358 -0.0663,2.51189 -0.5422,5.35031 0.85933,7.52462 1.80352,2.69948 4.8553,4.37284 7.82234,3.86335 2.3057,-0.84157 3.41223,-3.85286 3.24372,-6.46489 0.63511,-5.83427 1.52827,-11.84549 0.26722,-17.65635 -0.62145,-2.94943 -3.0525,-5.41289 -5.74543,-5.31202 -0.31066,-0.0332 -0.62142,-0.0713 -0.92817,-0.13849 z"
           id="path6057"
           inkscape:connector-curvature="0" />
        <ellipse
           transform="matrix(0.36719216,0,0,0.38035553,229.97342,687.27728)"
           id="path6059"
           style="fill:#aa87de;fill-opacity:1;stroke:none"
           cx="-271.73105"
           cy="423.03714"
           rx="5.0507627"
           ry="11.111678" />
        <ellipse
           style="fill:#aa87de;fill-opacity:1;stroke:none"
           id="path6061"
           transform="matrix(0.36719216,0,0,0.38035553,243.01188,687.64017)"
           cx="-271.73105"
           cy="423.03714"
           rx="5.0507627"
           ry="11.111678" />
        <path
           sodipodi:nodetypes="cccccc"
           inkscape:connector-curvature="0"
           id="path6063"
           d="m 114.09243,800.48982 c -12.16838,-6.46671 -39.922075,-6.44153 -56.949807,5.67596 -13.929073,10.46476 -22.156995,32.05888 -21.852026,49.53797 -1.469121,8.09351 15.76593,29.63429 16.779517,25.33985 -12.089498,-15.61999 -13.028496,-47.08536 -0.599786,-61.22391 13.279916,-24.86954 45.70636,-22.60738 62.622102,-19.32987 z"
           style="fill:#7a6f91;fill-opacity:1;stroke:none" />
        <path
           sodipodi:nodetypes="ccccc"
           inkscape:connector-curvature="0"
           id="path6065"
           d="m 97.253424,816.6696 c -22.392479,2.48791 -26.653791,14.97133 -28.246864,25.65542 -2.792091,10.91804 1.222737,25.81562 13.467458,28.70402 10.326807,2.4454 -3.658256,-7.68694 -3.326425,-12.30724 -4.02842,-16.11394 9.913975,-31.75406 18.105831,-42.0522 z"
           style="fill:#ffffff;fill-opacity:0.65882353;stroke:none" />
        <ellipse
           transform="matrix(0.41666667,0,0,1,90.822512,719.53409)"
           id="path6067"
           style="fill:#ffffff;fill-opacity:1;stroke:none"
           cx="126.28429"
           cy="127.43235"
           rx="2.1773155"
           ry="1.8144295" />
        <ellipse
           style="fill:#ffffff;fill-opacity:1;stroke:none"
           id="path6069"
           transform="matrix(0.41666667,0,0,1,77.758619,719.53409)"
           cx="126.28429"
           cy="127.43235"
           rx="2.1773155"
           ry="1.8144295" />
        <path
           sodipodi:nodetypes="cccccccc"
           inkscape:connector-curvature="0"
           id="path6071"
           d="m 92.868532,882.61797 c -5.939958,6.103 -6.65355,7.82824 -4.3773,12.69515 11.444745,9.26888 25.836268,3.66431 39.101178,4.06211 5.44017,-0.0102 12.54688,-3.10725 14.62177,-8.49951 1.43349,-3.41199 0.88485,-7.55308 -1.48507,-10.37357 -2.92127,-3.9772 -7.71334,-5.62886 -12.23511,-6.67357 -15.53028,-3.82674 -23.06577,1.32639 -34.918361,8.08231 z"
           style="fill:#ff9f39;fill-opacity:1;stroke:#000000;stroke-width:1.56960642;stroke-linecap:butt;stroke-linejoin:miter;stroke-miterlimit:4;stroke-dasharray:none;stroke-opacity:1" />
        <path
           sodipodi:nodetypes="ccccc"
           inkscape:connector-curvature="0"
           id="path6073"
           d="m 94.352079,887.437 c 2.800207,-1.48803 0.162247,-0.55831 0.162247,-0.55831 0.47755,8.78707 12.538944,12.07223 26.053004,12.24306 1.48183,0.67284 3.18777,2.4287 1.63547,1.31927 -15.79943,-1.0054 -28.649516,-3.76254 -27.850721,-13.00402 z"
           style="fill:#000000;stroke:#000000;stroke-width:0;stroke-linecap:butt;stroke-linejoin:miter;stroke-miterlimit:4;stroke-dasharray:none;stroke-opacity:1" />
        <path
           style="fill:#fde00c;fill-opacity:0.65700486;stroke:none"
           d="m 140.74376,890.22676 c -2.17077,11.20197 -40.58577,11.67624 -44.769801,-7.62803 20.474151,-15.54479 48.164501,-7.25003 44.769801,7.62803 z"
           id="path6075"
           inkscape:connector-curvature="0"
           sodipodi:nodetypes="ccc" />
        <path
           sodipodi:nodetypes="cccc"
           inkscape:connector-curvature="0"
           id="path6077"
           d="m 106.29664,877.27306 c 5.4545,2.41607 17.57432,-4.83362 30.89376,4.56721 1.96382,-0.009 -2.93175,-3.92454 -3.54836,-4.18608 -11.45092,-4.96921 -17.60181,-2.9809 -27.3454,-0.38113 z"
           style="fill:#fdf90c;fill-opacity:0.65882353;stroke:none" />
        <path
           sodipodi:nodetypes="ccc"
           inkscape:connector-curvature="0"
           id="path6079"
           d="m 91.714747,885.80731 c -6.511783,8.61388 3.22071,12.76079 6.560212,10.84357 -4.718213,-0.0144 -7.027015,-5.36871 -6.560212,-10.84357 z"
           style="opacity:0.44392527;fill:#ffdb00;fill-opacity:1;stroke:none" />
      </g>
      <path
         style="display:inline;fill:none;stroke:#d989eb;stroke-width:0.26458332px;stroke-linecap:butt;stroke-linejoin:miter;stroke-opacity:0.77777782"
         d="m -36.783706,130.54969 c -1.296781,2.57139 -0.185083,7.53518 1.477825,7.6447 1.265883,0.25009 3.30285,-0.24492 4.305572,-1.19964"
         id="path6201"
         inkscape:connector-curvature="0"
         sodipodi:nodetypes="ccc" />
    </g>
  </g>
</svg>
