<?xml version="1.0" encoding="UTF-8" standalone="no"?>
<!-- Created with Inkscape (http://www.inkscape.org/) -->

<svg
   xmlns:dc="http://purl.org/dc/elements/1.1/"
   xmlns:cc="http://creativecommons.org/ns#"
   xmlns:rdf="http://www.w3.org/1999/02/22-rdf-syntax-ns#"
   xmlns:svg="http://www.w3.org/2000/svg"
   xmlns="http://www.w3.org/2000/svg"
   xmlns:sodipodi="http://sodipodi.sourceforge.net/DTD/sodipodi-0.dtd"
   xmlns:inkscape="http://www.inkscape.org/namespaces/inkscape"
   width="250"
   height="250"
   viewBox="0 0 66.145831 66.145835"
   version="1.1"
   id="svg1537"
   sodipodi:docname="Tux_junior-8.svg"
   inkscape:version="0.92.5 (2060ec1f9f, 2020-04-08)">
  <defs
     id="defs1531" />
  <sodipodi:namedview
     id="base"
     pagecolor="#ffffff"
     bordercolor="#666666"
     borderopacity="1.0"
     inkscape:pageopacity="0.0"
     inkscape:pageshadow="2"
     inkscape:zoom="1.9247463"
     inkscape:cx="77.520911"
     inkscape:cy="560"
     inkscape:document-units="mm"
     inkscape:current-layer="layer1"
     showgrid="false"
     units="px"
     inkscape:window-width="1920"
     inkscape:window-height="1043"
     inkscape:window-x="1920"
     inkscape:window-y="0"
     inkscape:window-maximized="1" />
  <metadata
     id="metadata1534">
    <rdf:RDF>
      <cc:Work
         rdf:about="">
        <dc:format>image/svg+xml</dc:format>
        <dc:type
           rdf:resource="http://purl.org/dc/dcmitype/StillImage" />
        <dc:title />
      </cc:Work>
    </rdf:RDF>
  </metadata>
  <g
     inkscape:label="Calque 1"
     inkscape:groupmode="layer"
     id="layer1"
     transform="translate(0,-230.85415)">
    <rect
       style="opacity:1;fill:#ffffff;fill-opacity:1;stroke:#000000;stroke-width:0;stroke-miterlimit:4;stroke-dasharray:none;stroke-opacity:1"
       id="rect5827"
       width="66.145836"
       height="66.145836"
       x="-1.2715658e-06"
       y="230.85414" />
    <g
       id="g4638"
       transform="translate(62.705538,106.88423)">
      <g
         id="g7490"
         transform="matrix(0.25219481,0.08001324,-0.08001324,0.25219481,-72.391752,-149.68792)"
         style="display:inline">
        <path
           style="fill:#000000;stroke:#000000;stroke-width:1px;stroke-linecap:butt;stroke-linejoin:miter;stroke-opacity:1"
           d="m 519.86454,1072.9889 c 6.72532,19.6402 28.95982,24.4878 44.16622,23.3519 15.69792,-7.4547 12.63663,-26.7523 1.21016,-29.3566 -13.30558,-6.7033 -25.78018,-8.8243 -40.20361,-7.0008 -13.26566,4.0552 -6.60097,5.6785 -5.17277,13.0055 z"
           id="path7492"
           inkscape:connector-curvature="0"
           sodipodi:nodetypes="ccccc" />
        <path
           style="fill:#7a6f91;fill-opacity:1;stroke:#000000;stroke-width:1px;stroke-linecap:butt;stroke-linejoin:miter;stroke-opacity:1"
           d="m 572.83593,1085.285 c -6.22561,12.1709 -17.21087,8.2134 -22.08067,7.7036 -2.02054,-0.5443 -4.53732,-1.0509 -0.99191,-0.5843 10.86966,-1.232 18.77155,-7.9514 16.43659,-23.0165 8.25824,4.5881 8.97633,9.2455 6.63599,15.8972 z"
           id="path7494"
           inkscape:connector-curvature="0"
           sodipodi:nodetypes="ccccc" />
      </g>
      <path
         sodipodi:nodetypes="cccccccccccccc"
         style="display:inline;fill:#ffb124;fill-opacity:1;stroke:#000000;stroke-width:0.49439499;stroke-linecap:butt;stroke-linejoin:miter;stroke-miterlimit:4;stroke-dasharray:none;stroke-opacity:1"
         d="m -31.140914,176.72035 c 0.298106,-0.68032 0.930989,-1.48709 2.062453,-1.45714 1.1371,-0.0366 2.34024,0.65281 2.39694,1.50955 0.331999,0.58158 1.347417,0.56317 1.982417,0.34026 0.811398,-0.31703 1.684258,-0.54605 2.618872,-0.62736 1.455394,-0.13028 2.973707,-0.17311 4.433598,0.0794 1.200494,0.22312 2.417683,0.90778 2.4969,1.86626 0.115358,0.75055 0.04926,1.50337 0.143906,2.2537 -0.03069,0.97216 -0.601212,2.09198 -1.962679,2.39678 -3.913532,1.06291 -15.321599,0.6155 -18.113032,-1.27466 -1.096724,-0.23299 -1.248463,-1.22068 -1.069472,-1.89322 0.08263,-0.85765 -0.06758,-1.82761 0.750808,-2.51061 0.691938,-0.6668 1.884706,-0.89514 3.008445,-0.92347 0.423703,-0.0435 0.973005,-0.0714 1.250844,0.24053 z"
         id="path5250"
         inkscape:connector-curvature="0" />
      <path
         sodipodi:nodetypes="ccccc"
         style="display:inline;fill:#fdf90c;fill-opacity:0.65882353;stroke:none;stroke-width:0.26458332"
         d="m -25.806517,178.54886 c 1.775724,-1.66655 6.207971,-1.78875 7.755759,-1.74088 0.668946,-0.0937 2.713566,0.56673 2.306452,2.29083 -1.025843,0.13943 -2.02692,-0.66064 -3.085333,-0.6824 -0.572877,-0.0435 -6.320923,0.45696 -6.976878,0.13245 z"
         id="path7220"
         inkscape:connector-curvature="0" />
      <path
         sodipodi:nodetypes="ccccccccc"
         inkscape:connector-curvature="0"
         id="path7128"
         d="m -44.063799,160.72264 c 0.515197,-1.53099 3.960627,-7.41923 5.125985,-8.50289 4.903099,2.17676 10.781267,1.06733 15.621978,2.99972 0.837115,0.34538 0.37719,4.20396 0.639551,5.20138 3.314727,3.90761 6.230066,6.70537 5.850389,12.65714 -0.0066,1.13308 -1.673384,3.84509 -3.065041,4.76898 -1.234731,0.93562 -6.876547,1.52308 -7.777321,1.99689 -4.242647,0.23265 -12.406233,-0.50628 -16.28685,-6.60619 -1.972442,-2.01023 -1.320483,-9.44899 -0.108691,-12.51503 z"
         style="display:inline;fill:#1a1a1a;stroke:#000000;stroke-width:0.05043763;stroke-linecap:butt;stroke-linejoin:miter;stroke-miterlimit:4;stroke-dasharray:none;stroke-opacity:1" />
      <path
         style="display:inline;fill:#f8efff;fill-opacity:1;stroke:#000000;stroke-width:0.10390265px;stroke-linecap:butt;stroke-linejoin:miter;stroke-opacity:1"
         d="m -30.955759,157.27835 c 0.573934,7.07956 -7.887837,14.30326 -2.884487,19.43324 3.427518,1.75432 13.636095,1.81071 14.341422,-1.52093 2.356248,-1.42846 2.486529,-8.58837 -4.631584,-14.8092 0.372427,-1.4119 0.147769,-3.58167 -0.07998,-4.58954 -2.33262,0.27157 -3.349413,2.9705 -6.745367,1.48643 z"
         id="path7130"
         inkscape:connector-curvature="0"
         sodipodi:nodetypes="cccccc" />
      <path
         sodipodi:nodetypes="cccccc"
         inkscape:connector-curvature="0"
         id="path7132"
         d="m -30.656383,158.03101 c 0.573934,7.07956 -7.333773,13.45255 -2.330423,18.58253 2.679144,1.56723 8.678254,1.15589 9.196493,-0.77256 0.298265,-2.73809 1.347973,-11.40272 -2.08108,-13.3069 -0.380762,-1.49987 -0.244025,-3.20027 -0.664475,-5.05248 -1.200467,0.74327 -3.083163,0.99568 -4.120515,0.54941 z"
         style="display:inline;fill:#ffffff;fill-opacity:1;stroke:none;stroke-width:0.26458332" />
      <g
         transform="matrix(0.26458333,0,0,0.26458333,-482.12117,-97.157876)"
         id="g7803"
         style="display:inline">
        <path
           style="fill:#ffb124;fill-opacity:1;stroke:#000000;stroke-width:1.86857951;stroke-linecap:butt;stroke-linejoin:miter;stroke-miterlimit:4;stroke-dasharray:none;stroke-opacity:1"
           d="m 1679.1162,1014.862 c 1.1011,-2.9158 3.4635,-6.4015 7.7425,-6.3865 4.2978,-0.2679 8.8734,2.5372 9.1202,6.1667 1.2775,2.4346 -1.1468,13.1893 4.0689,7.6634 8.3622,-3.5772 15.3454,-8.5392 25.9255,-4.6154 4.5475,0.8276 11.1778,3.1497 11.5138,7.2085 0.4648,3.1727 1.0135,9.7097 -2.3988,16.2203 -7.009,10.6463 -12.4084,8.832 -17.5445,10.2601 -13.4012,-0.2341 -49.3235,-7.1115 -57.5572,-18.1934 -3.0054,-5.7002 -0.017,-12.0249 3.0513,-15.0036 2.5908,-2.8977 7.092,-3.9847 11.3397,-4.2163 1.6003,-0.2267 3.6761,-0.3993 4.7384,0.8965 z"
           id="path5252"
           inkscape:connector-curvature="0"
           inkscape:transform-center-y="-3.7764414"
           inkscape:transform-center-x="-46.597672"
           sodipodi:nodetypes="cccccccccccc" />
        <path
           style="fill:#fde00c;fill-opacity:0.65882353;stroke:none"
           d="m 1737.8548,1027.2085 c 0.3783,8.603 -8.4961,21.0092 -16.6818,21.2365 -3.0732,0.02 -44.6615,-2.6511 -54.3947,-12.156 -5.3403,-8.2681 -5.985,-14.194 -1.698,-15.1125 5.2451,-5.1644 15.3879,-4.4295 16.9695,-3.0583 2.9498,-6.4332 10.3164,-9.9482 13.3131,-3.1975 0.9421,3.0514 -0.8838,12.1392 4.1562,12.5691 4.0822,-1.954 32.2556,-13.9175 38.3357,-0.2813 z"
           id="path7222"
           inkscape:connector-curvature="0"
           sodipodi:nodetypes="cccccccc" />
        <path
           sodipodi:nodetypes="ccccc"
           style="fill:#fdf90c;fill-opacity:0.65882353;stroke:none"
           d="m 1697.5608,1027.199 c 4.1812,-5.4367 22.3385,-8.2205 28.1011,-6.6129 2.8834,-0.5092 12.2704,-0.7649 8.5263,16.7405 -1.5487,-1.6784 -9.2956,-11.1833 -14.4932,-10.9725 -2.7726,0.08 -16.9395,-1.0002 -22.1342,0.8449 z"
           id="path7224"
           inkscape:connector-curvature="0" />
      </g>
      <g
         transform="matrix(0.24618595,0.09693719,-0.09693719,0.24618595,-200.51851,-197.16481)"
         id="g7140"
         style="display:inline">
        <g
           style="fill:#000000"
           transform="matrix(1.1905349,-0.81872567,0.88610436,1.2885124,-554.89167,-143.17847)"
           id="g7142">
          <path
             inkscape:connector-curvature="0"
             id="path7144"
             d="m 471.85629,1192.6554 c -2.91334,14.9727 -11.50424,30.8342 -5.33917,46.0442 11.28434,14.336 29.07916,-5.2565 21.78325,-19.1341 -0.17395,-11.2628 -3.1653,-26.1701 -16.44408,-26.9101 z"
             style="fill:#000000;stroke:#000000;stroke-width:0.43743804px;stroke-linecap:butt;stroke-linejoin:miter;stroke-opacity:1" />
        </g>
        <path
           sodipodi:nodetypes="ccccccc"
           inkscape:connector-curvature="0"
           id="path7146"
           d="m 1109.1452,1071.483 c 11.8907,-0.1394 12.569,-19.9325 7.9876,-31.5685 -5.5366,-14.15 -23.7589,-26.1983 -31.5613,-30.4462 -1.3788,-2.2609 -13.0438,-5.8497 -11.8267,-1.9195 0.9345,3.0399 10.4721,2.1177 12.3204,4.5282 12.9131,4.3964 20.7851,21.4239 25.7579,34.0367 2.548,7.5647 2.4726,17.8033 -2.6779,25.3693 z"
           style="fill:#6f6f91;fill-opacity:1;stroke:none" />
        <path
           sodipodi:nodetypes="ccsc"
           inkscape:connector-curvature="0"
           id="path7148"
           d="m 1074.4999,1035.998 c 11.9732,33.2487 25.1287,37.7534 32.6935,36.2627 7.825,-2.1877 10.539,-6.6624 11.6218,-9.5689 4.6277,-12.4224 1.7702,-30.9018 -31.4608,-53.079"
           style="fill:none;stroke:#d989eb;stroke-width:1px;stroke-linecap:butt;stroke-linejoin:miter;stroke-opacity:0.77777782" />
      </g>
      <g
         transform="matrix(0.26457022,0.00263431,-0.00263431,0.26457022,-51.652575,-79.674217)"
         id="g7150"
         style="display:inline">
        <g
           id="g7152"
           style="display:inline">
          <path
             style="fill:#000000;stroke:#000000;stroke-width:0.19063042;stroke-linecap:butt;stroke-linejoin:miter;stroke-miterlimit:4;stroke-dasharray:none;stroke-opacity:1"
             d="m 54.745204,893.08613 c -19.670925,-10.8331 -29.062091,-37.68025 -20.682741,-59.07034 4.46137,-14.25394 13.158284,-28.41647 27.162522,-34.07071 14.512845,-7.0087 31.355935,-10.01222 46.929015,-5.14811 14.97135,4.31539 27.74105,15.77991 33.88175,30.58705 7.51342,16.91083 8.49027,37.72032 -0.11986,54.38872 -10.07431,16.79846 -29.4643,25.78875 -48.104894,26.4243 -10.358028,0.46231 -20.26579,-3.04582 -29.761555,-6.89611 -4.668727,-1.71339 -9.38122,-3.77057 -13.013475,-7.36746"
             id="path7154"
             inkscape:connector-curvature="0" />
          <path
             style="fill:#cc91cc;fill-opacity:1;stroke:#000000;stroke-width:1.86857915;stroke-linecap:butt;stroke-linejoin:miter;stroke-miterlimit:4;stroke-dasharray:none;stroke-opacity:1"
             d="m 131.89659,812.40054 c -20.83671,-2.47935 -56.051819,-5.39886 -65.114023,15.72677 -6.834216,15.77745 -8.201198,38.52669 8.396721,46.58406 9.177056,4.90656 19.710482,5.99243 29.881782,6.07798 6.4473,-0.77343 12.70317,-3.37976 19.28463,-2.68429 6.93378,-0.19897 12.4483,0.26418 17.57338,-5.04358 11.31501,-18.63644 1.13975,-49.478 -10.02249,-60.66094 z"
             id="path7156"
             inkscape:connector-curvature="0"
             sodipodi:nodetypes="ccccccc" />
          <path
             style="fill:#f8efff;fill-opacity:1;stroke:none"
             d="m 65.423024,844.11617 c -5.253844,24.81212 18.89439,38.75102 38.800486,33.32209 10.57688,-6.08608 17.48202,-6.86494 33.27367,-1.67502 14.18798,-10.95732 8.54176,-48.81712 -6.44693,-60.79011 -13.61021,-1.59702 -62.153709,-10.88147 -65.627226,29.14304 z"
             id="path7158"
             inkscape:connector-curvature="0"
             sodipodi:nodetypes="ccccc" />
          <path
             style="fill:#0b0b28;stroke:#000000;stroke-width:0.19200477;stroke-linecap:butt;stroke-linejoin:miter;stroke-miterlimit:4;stroke-dasharray:none;stroke-opacity:1"
             d="m 140.55139,840.42347 c -1.35281,1.66272 -3.48015,2.61865 -4.01476,5.09691 -0.99823,4.18585 -0.37044,8.62244 -1.07892,12.86375 -0.0612,2.48107 -0.50042,5.28466 0.7931,7.43229 1.66454,2.66635 4.48112,4.31918 7.21951,3.81594 2.12803,-0.83124 3.1493,-3.80558 2.99373,-6.38556 0.58619,-5.76267 1.41052,-11.70013 0.24665,-17.43968 -0.57357,-2.91323 -2.81726,-5.34646 -5.30265,-5.24683 -0.28673,-0.0328 -0.57354,-0.0705 -0.85666,-0.13679 z"
             id="path7160"
             inkscape:connector-curvature="0" />
          <path
             inkscape:connector-curvature="0"
             id="path7162"
             d="m 126.51083,840.06059 c -1.46578,1.68337 -3.77073,2.65118 -4.35001,5.16022 -1.08156,4.23786 -0.40136,8.72957 -1.169,13.02358 -0.0663,2.51189 -0.5422,5.35031 0.85933,7.52462 1.80352,2.69948 4.8553,4.37284 7.82234,3.86335 2.3057,-0.84157 3.41223,-3.85286 3.24372,-6.46489 0.63511,-5.83427 1.52827,-11.84549 0.26722,-17.65635 -0.62145,-2.94943 -3.0525,-5.41289 -5.74543,-5.31202 -0.31066,-0.0332 -0.62142,-0.0713 -0.92817,-0.13849 z"
             style="fill:#0b0b28;stroke:#000000;stroke-width:0.20109792;stroke-linecap:butt;stroke-linejoin:miter;stroke-miterlimit:4;stroke-dasharray:none;stroke-opacity:1" />
          <ellipse
             style="fill:#aa87de;fill-opacity:1;stroke:none"
             id="path7164"
             transform="matrix(0.36719216,0,0,0.38035553,229.97342,687.27728)"
             cx="-271.73105"
             cy="423.03714"
             rx="5.0507627"
             ry="11.111678" />
          <ellipse
             transform="matrix(0.36719216,0,0,0.38035553,243.01188,687.64017)"
             id="path7166"
             style="fill:#aa87de;fill-opacity:1;stroke:none"
             cx="-271.73105"
             cy="423.03714"
             rx="5.0507627"
             ry="11.111678" />
          <path
             style="fill:#7a6f91;fill-opacity:1;stroke:none"
             d="m 114.09243,800.48982 c -12.16838,-6.46671 -39.922075,-6.44153 -56.949807,5.67596 -13.929073,10.46476 -22.156995,32.05888 -21.852026,49.53797 -1.469121,8.09351 15.76593,29.63429 16.779517,25.33985 -12.089498,-15.61999 -13.028496,-47.08536 -0.599786,-61.22391 13.279916,-24.86954 45.70636,-22.60738 62.622102,-19.32987 z"
             id="path7168"
             inkscape:connector-curvature="0"
             sodipodi:nodetypes="cccccc" />
          <path
             style="fill:#ffffff;fill-opacity:0.65882353;stroke:none"
             d="m 97.253424,816.6696 c -22.392479,2.48791 -26.653791,14.97133 -28.246864,25.65542 -2.792091,10.91804 1.222737,25.81562 13.467458,28.70402 10.326807,2.4454 -3.658256,-7.68694 -3.326425,-12.30724 -4.02842,-16.11394 9.913975,-31.75406 18.105831,-42.0522 z"
             id="path7170"
             inkscape:connector-curvature="0"
             sodipodi:nodetypes="ccccc" />
          <ellipse
             style="fill:#ffffff;fill-opacity:1;stroke:none"
             id="path7172"
             transform="matrix(0.41666667,0,0,1,90.822512,719.53409)"
             cx="126.28429"
             cy="127.43235"
             rx="2.1773155"
             ry="1.8144295" />
          <ellipse
             transform="matrix(0.41666667,0,0,1,77.758619,719.53409)"
             id="path7174"
             style="fill:#ffffff;fill-opacity:1;stroke:none"
             cx="126.28429"
             cy="127.43235"
             rx="2.1773155"
             ry="1.8144295" />
          <path
             style="fill:#ff9f39;fill-opacity:1;stroke:#000000;stroke-width:1.56960642;stroke-linecap:butt;stroke-linejoin:miter;stroke-miterlimit:4;stroke-dasharray:none;stroke-opacity:1"
             d="m 92.868532,882.61797 c -5.939958,6.103 -6.65355,7.82824 -4.3773,12.69515 11.444745,9.26888 25.836268,3.66431 39.101178,4.06211 5.44017,-0.0102 12.54688,-3.10725 14.62177,-8.49951 1.43349,-3.41199 0.88485,-7.55308 -1.48507,-10.37357 -2.92127,-3.9772 -7.71334,-5.62886 -12.23511,-6.67357 -15.53028,-3.82674 -23.06577,1.32639 -34.918361,8.08231 z"
             id="path7176"
             inkscape:connector-curvature="0"
             sodipodi:nodetypes="cccccccc" />
          <path
             style="fill:#000000;stroke:#000000;stroke-width:0;stroke-linecap:butt;stroke-linejoin:miter;stroke-miterlimit:4;stroke-dasharray:none;stroke-opacity:1"
             d="m 94.352079,887.437 c 2.800207,-1.48803 0.162247,-0.55831 0.162247,-0.55831 0.47755,8.78707 12.538944,12.07223 26.053004,12.24306 1.48183,0.67284 3.18777,2.4287 1.63547,1.31927 -15.79943,-1.0054 -28.649516,-3.76254 -27.850721,-13.00402 z"
             id="path7178"
             inkscape:connector-curvature="0"
             sodipodi:nodetypes="ccccc" />
          <path
             sodipodi:nodetypes="ccc"
             inkscape:connector-curvature="0"
             id="path7180"
             d="m 140.74376,890.22676 c -2.17077,11.20197 -40.58577,11.67624 -44.769801,-7.62803 20.474151,-15.54479 48.164501,-7.25003 44.769801,7.62803 z"
             style="fill:#fde00c;fill-opacity:0.65700486;stroke:none" />
          <path
             style="fill:#fdf90c;fill-opacity:0.65882353;stroke:none"
             d="m 106.29664,877.27306 c 5.4545,2.41607 17.57432,-4.83362 30.89376,4.56721 1.96382,-0.009 -2.93175,-3.92454 -3.54836,-4.18608 -11.45092,-4.96921 -17.60181,-2.9809 -27.3454,-0.38113 z"
             id="path7182"
             inkscape:connector-curvature="0"
             sodipodi:nodetypes="cccc" />
          <path
             style="opacity:0.44392527;fill:#ffdb00;fill-opacity:1;stroke:none"
             d="m 91.714747,885.80731 c -6.511783,8.61388 3.22071,12.76079 6.560212,10.84357 -4.718213,-0.0144 -7.027015,-5.36871 -6.560212,-10.84357 z"
             id="path7184"
             inkscape:connector-curvature="0"
             sodipodi:nodetypes="ccc" />
        </g>
        <path
           inkscape:connector-curvature="0"
           id="path7186"
           d="m 54.745204,893.08613 c -19.670925,-10.8331 -29.062091,-37.68025 -20.682741,-59.07034 4.46137,-14.25394 13.158284,-28.41647 27.162522,-34.07071 14.512845,-7.0087 31.355935,-10.01222 46.929015,-5.14811 14.97135,4.31539 27.74105,15.77991 33.88175,30.58705 7.51342,16.91083 8.49027,37.72032 -0.11986,54.38872 -10.07431,16.79846 -29.4643,25.78875 -48.104894,26.4243 -10.358028,0.46231 -20.26579,-3.04582 -29.761555,-6.89611 -4.668727,-1.71339 -9.38122,-3.77057 -13.013475,-7.36746"
           style="fill:#000000;stroke:#000000;stroke-width:0.19063042;stroke-linecap:butt;stroke-linejoin:miter;stroke-miterlimit:4;stroke-dasharray:none;stroke-opacity:1" />
        <path
           sodipodi:nodetypes="ccccccc"
           inkscape:connector-curvature="0"
           id="path7188"
           d="m 131.89659,812.40054 c -20.83671,-2.47935 -56.051819,-5.39886 -65.114023,15.72677 -6.834216,15.77745 -8.201198,38.52669 8.396721,46.58406 9.177056,4.90656 19.710482,5.99243 29.881782,6.07798 6.4473,-0.77343 12.70317,-3.37976 19.28463,-2.68429 6.93378,-0.19897 12.4483,0.26418 17.57338,-5.04358 11.31501,-18.63644 1.13975,-49.478 -10.02249,-60.66094 z"
           style="fill:#cc91cc;fill-opacity:1;stroke:#000000;stroke-width:1.86857915;stroke-linecap:butt;stroke-linejoin:miter;stroke-miterlimit:4;stroke-dasharray:none;stroke-opacity:1" />
        <path
           sodipodi:nodetypes="ccccc"
           inkscape:connector-curvature="0"
           id="path7190"
           d="m 65.423024,844.11617 c -5.253844,24.81212 18.89439,38.75102 38.800486,33.32209 10.57688,-6.08608 17.48202,-6.86494 33.27367,-1.67502 14.18798,-10.95732 8.54176,-48.81712 -6.44693,-60.79011 -13.61021,-1.59702 -62.153709,-10.88147 -65.627226,29.14304 z"
           style="fill:#f8efff;fill-opacity:1;stroke:none" />
        <path
           inkscape:connector-curvature="0"
           id="path7192"
           d="m 140.55139,840.42347 c -1.35281,1.66272 -3.48015,2.61865 -4.01476,5.09691 -0.99823,4.18585 -0.37044,8.62244 -1.07892,12.86375 -0.0612,2.48107 -0.50042,5.28466 0.7931,7.43229 1.66454,2.66635 4.48112,4.31918 7.21951,3.81594 2.12803,-0.83124 3.1493,-3.80558 2.99373,-6.38556 0.58619,-5.76267 1.41052,-11.70013 0.24665,-17.43968 -0.57357,-2.91323 -2.81726,-5.34646 -5.30265,-5.24683 -0.28673,-0.0328 -0.57354,-0.0705 -0.85666,-0.13679 z"
           style="fill:#0b0b28;stroke:#000000;stroke-width:0.19200477;stroke-linecap:butt;stroke-linejoin:miter;stroke-miterlimit:4;stroke-dasharray:none;stroke-opacity:1" />
        <path
           style="fill:#0b0b28;stroke:#000000;stroke-width:0.20109792;stroke-linecap:butt;stroke-linejoin:miter;stroke-miterlimit:4;stroke-dasharray:none;stroke-opacity:1"
           d="m 126.51083,840.06059 c -1.46578,1.68337 -3.77073,2.65118 -4.35001,5.16022 -1.08156,4.23786 -0.40136,8.72957 -1.169,13.02358 -0.0663,2.51189 -0.5422,5.35031 0.85933,7.52462 1.80352,2.69948 4.8553,4.37284 7.82234,3.86335 2.3057,-0.84157 3.41223,-3.85286 3.24372,-6.46489 0.63511,-5.83427 1.52827,-11.84549 0.26722,-17.65635 -0.62145,-2.94943 -3.0525,-5.41289 -5.74543,-5.31202 -0.31066,-0.0332 -0.62142,-0.0713 -0.92817,-0.13849 z"
           id="path7194"
           inkscape:connector-curvature="0" />
        <ellipse
           transform="matrix(0.36719216,0,0,0.38035553,229.97342,687.27728)"
           id="path7196"
           style="fill:#aa87de;fill-opacity:1;stroke:none"
           cx="-271.73105"
           cy="423.03714"
           rx="5.0507627"
           ry="11.111678" />
        <ellipse
           style="fill:#aa87de;fill-opacity:1;stroke:none"
           id="path7198"
           transform="matrix(0.36719216,0,0,0.38035553,243.01188,687.64017)"
           cx="-271.73105"
           cy="423.03714"
           rx="5.0507627"
           ry="11.111678" />
        <path
           sodipodi:nodetypes="cccccc"
           inkscape:connector-curvature="0"
           id="path7200"
           d="m 114.09243,800.48982 c -12.16838,-6.46671 -39.922075,-6.44153 -56.949807,5.67596 -13.929073,10.46476 -22.156995,32.05888 -21.852026,49.53797 -1.469121,8.09351 15.76593,29.63429 16.779517,25.33985 -12.089498,-15.61999 -13.028496,-47.08536 -0.599786,-61.22391 13.279916,-24.86954 45.70636,-22.60738 62.622102,-19.32987 z"
           style="fill:#7a6f91;fill-opacity:1;stroke:none" />
        <path
           sodipodi:nodetypes="ccccc"
           inkscape:connector-curvature="0"
           id="path7202"
           d="m 97.253424,816.6696 c -22.392479,2.48791 -26.653791,14.97133 -28.246864,25.65542 -2.792091,10.91804 1.222737,25.81562 13.467458,28.70402 10.326807,2.4454 -3.658256,-7.68694 -3.326425,-12.30724 -4.02842,-16.11394 9.913975,-31.75406 18.105831,-42.0522 z"
           style="fill:#ffffff;fill-opacity:0.65882353;stroke:none" />
        <ellipse
           transform="matrix(0.41666667,0,0,1,90.822512,719.53409)"
           id="path7204"
           style="fill:#ffffff;fill-opacity:1;stroke:none"
           cx="126.28429"
           cy="127.43235"
           rx="2.1773155"
           ry="1.8144295" />
        <ellipse
           style="fill:#ffffff;fill-opacity:1;stroke:none"
           id="path7206"
           transform="matrix(0.41666667,0,0,1,77.758619,719.53409)"
           cx="126.28429"
           cy="127.43235"
           rx="2.1773155"
           ry="1.8144295" />
        <path
           sodipodi:nodetypes="cccccccc"
           inkscape:connector-curvature="0"
           id="path7208"
           d="m 92.868532,882.61797 c -5.939958,6.103 -6.65355,7.82824 -4.3773,12.69515 11.444745,9.26888 25.836268,3.66431 39.101178,4.06211 5.44017,-0.0102 12.54688,-3.10725 14.62177,-8.49951 1.43349,-3.41199 0.88485,-7.55308 -1.48507,-10.37357 -2.92127,-3.9772 -7.71334,-5.62886 -12.23511,-6.67357 -15.53028,-3.82674 -23.06577,1.32639 -34.918361,8.08231 z"
           style="fill:#ff9f39;fill-opacity:1;stroke:#000000;stroke-width:1.56960642;stroke-linecap:butt;stroke-linejoin:miter;stroke-miterlimit:4;stroke-dasharray:none;stroke-opacity:1" />
        <path
           sodipodi:nodetypes="ccccc"
           inkscape:connector-curvature="0"
           id="path7210"
           d="m 94.352079,887.437 c 2.800207,-1.48803 0.162247,-0.55831 0.162247,-0.55831 0.47755,8.78707 12.538944,12.07223 26.053004,12.24306 1.48183,0.67284 3.18777,2.4287 1.63547,1.31927 -15.79943,-1.0054 -28.649516,-3.76254 -27.850721,-13.00402 z"
           style="fill:#000000;stroke:#000000;stroke-width:0;stroke-linecap:butt;stroke-linejoin:miter;stroke-miterlimit:4;stroke-dasharray:none;stroke-opacity:1" />
        <path
           style="fill:#fde00c;fill-opacity:0.65700486;stroke:none"
           d="m 140.74376,890.22676 c -2.17077,11.20197 -40.58577,11.67624 -44.769801,-7.62803 20.474151,-15.54479 48.164501,-7.25003 44.769801,7.62803 z"
           id="path7212"
           inkscape:connector-curvature="0"
           sodipodi:nodetypes="ccc" />
        <path
           sodipodi:nodetypes="cccc"
           inkscape:connector-curvature="0"
           id="path7214"
           d="m 106.29664,877.27306 c 5.4545,2.41607 17.57432,-4.83362 30.89376,4.56721 1.96382,-0.009 -2.93175,-3.92454 -3.54836,-4.18608 -11.45092,-4.96921 -17.60181,-2.9809 -27.3454,-0.38113 z"
           style="fill:#fdf90c;fill-opacity:0.65882353;stroke:none" />
        <path
           sodipodi:nodetypes="ccc"
           inkscape:connector-curvature="0"
           id="path7216"
           d="m 91.714747,885.80731 c -6.511783,8.61388 3.22071,12.76079 6.560212,10.84357 -4.718213,-0.0144 -7.027015,-5.36871 -6.560212,-10.84357 z"
           style="opacity:0.44392527;fill:#ffdb00;fill-opacity:1;stroke:none" />
      </g>
    </g>
  </g>
</svg>
