<?xml version="1.0" encoding="UTF-8" standalone="no"?>
<!-- Created with Inkscape (http://www.inkscape.org/) -->

<svg
   xmlns:dc="http://purl.org/dc/elements/1.1/"
   xmlns:cc="http://creativecommons.org/ns#"
   xmlns:rdf="http://www.w3.org/1999/02/22-rdf-syntax-ns#"
   xmlns:svg="http://www.w3.org/2000/svg"
   xmlns="http://www.w3.org/2000/svg"
   xmlns:sodipodi="http://sodipodi.sourceforge.net/DTD/sodipodi-0.dtd"
   xmlns:inkscape="http://www.inkscape.org/namespaces/inkscape"
   width="250"
   height="250"
   viewBox="0 0 66.145831 66.145835"
   version="1.1"
   id="svg1537"
   sodipodi:docname="Tux_junior-1.svg"
   inkscape:version="0.92.5 (2060ec1f9f, 2020-04-08)">
  <defs
     id="defs1531" />
  <sodipodi:namedview
     id="base"
     pagecolor="#ffffff"
     bordercolor="#666666"
     borderopacity="1.0"
     inkscape:pageopacity="0.0"
     inkscape:pageshadow="2"
     inkscape:zoom="0.48118658"
     inkscape:cx="-286.42316"
     inkscape:cy="560"
     inkscape:document-units="mm"
     inkscape:current-layer="layer1"
     showgrid="false"
     units="px"
     inkscape:window-width="1920"
     inkscape:window-height="1043"
     inkscape:window-x="1920"
     inkscape:window-y="0"
     inkscape:window-maximized="1" />
  <metadata
     id="metadata1534">
    <rdf:RDF>
      <cc:Work
         rdf:about="">
        <dc:format>image/svg+xml</dc:format>
        <dc:type
           rdf:resource="http://purl.org/dc/dcmitype/StillImage" />
        <dc:title />
      </cc:Work>
    </rdf:RDF>
  </metadata>
  <g
     inkscape:label="Calque 1"
     inkscape:groupmode="layer"
     id="layer1"
     transform="translate(0,-230.85415)">
    <rect
       style="opacity:1;fill:#ffffff;fill-opacity:1;stroke:#000000;stroke-width:0;stroke-miterlimit:4;stroke-dasharray:none;stroke-opacity:1"
       id="rect5827"
       width="66.145836"
       height="66.145836"
       x="-1.2715658e-06"
       y="230.85414" />
    <g
       style="display:inline"
       id="g8052"
       transform="matrix(0.26458333,0,0,0.26458333,-150.80262,-43.281157)">
      <path
         style="fill:#000000;stroke:#000000;stroke-width:1px;stroke-linecap:butt;stroke-linejoin:miter;stroke-opacity:1"
         d="m 722.7234,1176.9509 c 6.72532,19.6402 28.95982,24.4878 44.16622,23.352 15.69792,-7.4548 12.63663,-26.7524 1.21016,-29.3567 -13.30558,-6.7032 -25.78018,-8.8243 -40.20361,-7.0008 -13.26566,4.0553 -6.60097,5.6785 -5.17277,13.0055 z"
         id="path7950"
         inkscape:connector-curvature="0"
         sodipodi:nodetypes="ccccc" />
      <path
         style="fill:#7a6f91;fill-opacity:1;stroke:#000000;stroke-width:1px;stroke-linecap:butt;stroke-linejoin:miter;stroke-opacity:1"
         d="m 775.69479,1189.247 c -6.22561,12.1709 -17.21087,8.2134 -22.08067,7.7036 -2.02054,-0.5443 -4.53732,-1.0509 -0.99191,-0.5843 10.86966,-1.232 18.77155,-7.9514 16.43659,-23.0165 8.25824,4.5881 8.97633,9.2455 6.63599,15.8972 z"
         id="path7968"
         inkscape:connector-curvature="0"
         sodipodi:nodetypes="ccccc" />
      <g
         id="g7952"
         transform="rotate(35.777043,59.801118,1670.2237)"
         style="fill:#ffb124;fill-opacity:1">
        <path
           inkscape:connector-curvature="0"
           id="path7954"
           d="m 283.02937,953.02116 c 0.93291,-2.64781 3.09217,-5.86606 7.36515,-6.07038 4.27555,-0.45667 9.00371,1.80435 9.45754,5.01758 7.60106,1.41555 7.48389,-12.76996 22.29498,-14.58268 4.58741,0.50436 12.83953,-1.54938 18.32957,8.04412 0.64533,2.79655 0.60721,5.6525 1.17435,8.45403 0.15692,3.67277 -0.54692,9.62509 -5.59303,11.15558 -6.61064,5.37879 -15.76649,10.82341 -20.33095,11.19458 -11.15025,5.86079 -30.85775,2.01364 -46.12386,-2.93526 -4.19917,-0.57073 -5.04791,-4.25086 -4.56191,-6.83599 0.0713,-3.25573 -0.76712,-6.86944 2.12601,-9.67318 2.42097,-2.70731 6.85268,-3.90237 11.08015,-4.32428 1.58484,-0.28285 3.64745,-0.54183 4.782,0.55584 z"
           style="fill:#ffb124;fill-opacity:1;stroke:#000000;stroke-width:1.86857951;stroke-linecap:butt;stroke-linejoin:miter;stroke-miterlimit:4;stroke-dasharray:none;stroke-opacity:1"
           sodipodi:nodetypes="cccccccccccccc" />
      </g>
      <path
         style="fill:#fde00c;fill-opacity:0.65882353;stroke:none"
         d="m 636.15385,1223.1848 c 10.2666,17.4313 32.11612,40.4236 65.33903,35.0188 1.45689,-3.1334 2.89741,-1.649 0.66389,-3.0056 -23.12129,6.625 -54.66387,-12.081 -63.59671,-33.559 -3.2425,-0.1615 -0.64478,2.2377 -2.40621,1.5458 z"
         id="path7972"
         inkscape:connector-curvature="0"
         sodipodi:nodetypes="ccccc" />
      <g
         transform="translate(-196.58909,-17.162539)"
         id="g7943">
        <path
           sodipodi:nodetypes="ccccccccc"
           inkscape:connector-curvature="0"
           id="path7849"
           d="m 849.6679,1190.9311 c 1.94718,-5.7864 14.96934,-28.0412 19.37378,-32.1369 18.53139,8.2271 40.74809,4.034 59.04369,11.3375 3.16393,1.3054 1.42569,15.889 2.41727,19.6588 12.52812,14.7689 23.54669,25.3431 22.11172,47.838 -0.0251,4.2825 -6.32462,14.5326 -11.58441,18.0245 -4.66676,3.5362 -25.9901,5.7565 -29.39463,7.5473 -16.03517,0.8793 -46.88969,-1.9135 -61.55665,-24.9683 -7.45488,-7.5977 -4.99077,-35.7127 -0.41077,-47.3009 z"
           style="fill:#1a1a1a;stroke:#000000;stroke-width:0.19063042;stroke-linecap:butt;stroke-linejoin:miter;stroke-miterlimit:4;stroke-dasharray:none;stroke-opacity:1" />
        <path
           sodipodi:nodetypes="cccccc"
           inkscape:connector-curvature="0"
           id="path7851"
           d="m 896.06275,1174.3396 c 2.16915,26.7574 -22.74129,52.2918 -3.83097,71.6807 12.95437,6.6305 35.27454,7.9043 45.71853,-3.2735 3.24862,0.9651 8.66051,-38.8179 -11.43132,-44.9452 -1.43905,-5.6687 1.93034,-6.7469 0.34129,-13.7473 -8.81617,1.0264 -17.96245,-4.1056 -30.79753,-9.7147 z"
           style="fill:#d5f6ff;stroke:#000000;stroke-width:0.39270291px;stroke-linecap:butt;stroke-linejoin:miter;stroke-opacity:1" />
        <path
           style="fill:#ffffff;stroke:none"
           d="m 897.34715,1175.6459 c 1.83453,2.7085 -1.39876,6.1546 -0.29435,1.109 0.71754,3.8792 0.004,9.8965 0.33733,14.5957 0.79855,10.941 -14.21614,37.7476 -6.19399,46.3168 2.07112,1.9733 5.86502,4.1596 5.2239,-1.107 -1.82027,-20.8978 1.05664,-33.5254 5.00336,-51.4797 0.95151,-4.205 -2.0448,-6.5606 -4.07627,-9.4348 z"
           id="path7853"
           inkscape:connector-curvature="0"
           sodipodi:nodetypes="cccccccc" />
        <path
           style="fill:#f8efff;fill-opacity:1;stroke:#000000;stroke-width:0.39270291px;stroke-linecap:butt;stroke-linejoin:miter;stroke-opacity:1"
           d="m 902.06275,1179.3396 c 2.16915,26.7574 -29.81236,54.0595 -10.90204,73.4484 12.95437,6.6305 51.53799,6.8437 54.20381,-5.7483 8.90548,-5.3989 5.83209,-31.7469 -10.0171,-48.1272 -0.73194,-2.8403 -4.43362,-4.9791 -7.79044,-9.8582 -8.81617,1.0264 -12.65915,-4.1056 -25.49423,-9.7147 z"
           id="path7855"
           inkscape:connector-curvature="0"
           sodipodi:nodetypes="cccccc" />
        <path
           sodipodi:nodetypes="cccccc"
           inkscape:connector-curvature="0"
           id="path7857"
           d="m 896.06275,1174.3396 c 2.16915,26.7574 -24.50906,54.7666 -5.59874,74.1555 10.12595,5.9234 32.79967,4.3688 34.75838,-2.9198 1.1273,-10.3487 8.66051,-38.818 -11.43132,-44.9452 -1.43905,-5.6688 1.93034,-6.7469 0.34129,-13.7474 -8.81617,1.0264 -5.23453,-6.934 -18.06961,-12.5431 z"
           style="fill:#ffffff;fill-opacity:1;stroke:none" />
      </g>
      <g
         id="g7960"
         transform="matrix(0.69433672,1.2671155,-1.3713953,0.75147856,1989.0986,-340.62802)"
         style="fill:#000000">
        <path
           style="fill:#000000;stroke:#000000;stroke-width:0.43743804px;stroke-linecap:butt;stroke-linejoin:miter;stroke-opacity:1"
           d="m 471.85629,1192.6554 c -2.91334,14.9727 -11.50424,30.8342 -5.33917,46.0442 11.28434,14.336 29.07916,-5.2565 21.78325,-19.1341 -0.17395,-11.2628 -3.1653,-26.1701 -16.44408,-26.9101 z"
           id="path7962"
           inkscape:connector-curvature="0" />
      </g>
      <path
         style="fill:#6f6f91;fill-opacity:1;stroke:none"
         d="m 615.33037,1190.3877 c -1.0619,11.8439 18.56155,14.5173 30.60064,11.1341 14.63672,-4.0796 28.46329,-20.9923 33.47724,-28.3258 2.38866,-1.1435 7.13687,-12.3867 3.10381,-11.5726 -3.1187,0.6228 -3.1642,10.2047 -5.74894,11.8002 -5.67782,12.4032 -23.4131,18.5158 -36.46353,22.1898 -7.78324,1.7711 -17.96199,0.6623 -24.96922,-5.2257 z"
         id="path7964"
         inkscape:connector-curvature="0"
         sodipodi:nodetypes="ccccccc" />
      <g
         transform="translate(607.85886,268.96201)"
         id="g7976">
        <g
           id="g7978"
           style="display:inline">
          <path
             style="fill:#000000;stroke:#000000;stroke-width:0.19063042;stroke-linecap:butt;stroke-linejoin:miter;stroke-miterlimit:4;stroke-dasharray:none;stroke-opacity:1"
             d="m 54.745204,893.08613 c -19.670925,-10.8331 -29.062091,-37.68025 -20.682741,-59.07034 4.46137,-14.25394 13.158284,-28.41647 27.162522,-34.07071 14.512845,-7.0087 31.355935,-10.01222 46.929015,-5.14811 14.97135,4.31539 27.74105,15.77991 33.88175,30.58705 7.51342,16.91083 8.49027,37.72032 -0.11986,54.38872 -10.07431,16.79846 -29.4643,25.78875 -48.104894,26.4243 -10.358028,0.46231 -20.26579,-3.04582 -29.761555,-6.89611 -4.668727,-1.71339 -9.38122,-3.77057 -13.013475,-7.36746"
             id="path7980"
             inkscape:connector-curvature="0" />
          <path
             style="fill:#cc91cc;fill-opacity:1;stroke:#000000;stroke-width:1.86857915;stroke-linecap:butt;stroke-linejoin:miter;stroke-miterlimit:4;stroke-dasharray:none;stroke-opacity:1"
             d="m 131.89659,812.40054 c -20.83671,-2.47935 -56.051819,-5.39886 -65.114023,15.72677 -6.834216,15.77745 -8.201198,38.52669 8.396721,46.58406 9.177056,4.90656 19.710482,5.99243 29.881782,6.07798 6.4473,-0.77343 12.70317,-3.37976 19.28463,-2.68429 6.93378,-0.19897 12.4483,0.26418 17.57338,-5.04358 11.31501,-18.63644 1.13975,-49.478 -10.02249,-60.66094 z"
             id="path7982"
             inkscape:connector-curvature="0"
             sodipodi:nodetypes="ccccccc" />
          <path
             style="fill:#f8efff;fill-opacity:1;stroke:none"
             d="m 65.423024,844.11617 c -5.253844,24.81212 18.89439,38.75102 38.800486,33.32209 10.57688,-6.08608 17.48202,-6.86494 33.27367,-1.67502 14.18798,-10.95732 8.54176,-48.81712 -6.44693,-60.79011 -13.61021,-1.59702 -62.153709,-10.88147 -65.627226,29.14304 z"
             id="path7984"
             inkscape:connector-curvature="0"
             sodipodi:nodetypes="ccccc" />
          <path
             style="fill:#0b0b28;stroke:#000000;stroke-width:0.19200477;stroke-linecap:butt;stroke-linejoin:miter;stroke-miterlimit:4;stroke-dasharray:none;stroke-opacity:1"
             d="m 140.55139,840.42347 c -1.35281,1.66272 -3.48015,2.61865 -4.01476,5.09691 -0.99823,4.18585 -0.37044,8.62244 -1.07892,12.86375 -0.0612,2.48107 -0.50042,5.28466 0.7931,7.43229 1.66454,2.66635 4.48112,4.31918 7.21951,3.81594 2.12803,-0.83124 3.1493,-3.80558 2.99373,-6.38556 0.58619,-5.76267 1.41052,-11.70013 0.24665,-17.43968 -0.57357,-2.91323 -2.81726,-5.34646 -5.30265,-5.24683 -0.28673,-0.0328 -0.57354,-0.0705 -0.85666,-0.13679 z"
             id="path7986"
             inkscape:connector-curvature="0" />
          <path
             inkscape:connector-curvature="0"
             id="path7988"
             d="m 126.51083,840.06059 c -1.46578,1.68337 -3.77073,2.65118 -4.35001,5.16022 -1.08156,4.23786 -0.40136,8.72957 -1.169,13.02358 -0.0663,2.51189 -0.5422,5.35031 0.85933,7.52462 1.80352,2.69948 4.8553,4.37284 7.82234,3.86335 2.3057,-0.84157 3.41223,-3.85286 3.24372,-6.46489 0.63511,-5.83427 1.52827,-11.84549 0.26722,-17.65635 -0.62145,-2.94943 -3.0525,-5.41289 -5.74543,-5.31202 -0.31066,-0.0332 -0.62142,-0.0713 -0.92817,-0.13849 z"
             style="fill:#0b0b28;stroke:#000000;stroke-width:0.20109792;stroke-linecap:butt;stroke-linejoin:miter;stroke-miterlimit:4;stroke-dasharray:none;stroke-opacity:1" />
          <ellipse
             ry="11.111678"
             rx="5.0507627"
             cy="423.03714"
             cx="-271.73105"
             style="fill:#aa87de;fill-opacity:1;stroke:none"
             id="path7990"
             transform="matrix(0.36719216,0,0,0.38035553,229.97342,687.27728)" />
          <ellipse
             ry="11.111678"
             rx="5.0507627"
             cy="423.03714"
             cx="-271.73105"
             transform="matrix(0.36719216,0,0,0.38035553,243.01188,687.64017)"
             id="path7992"
             style="fill:#aa87de;fill-opacity:1;stroke:none" />
          <path
             style="fill:#7a6f91;fill-opacity:1;stroke:none"
             d="m 114.09243,800.48982 c -12.16838,-6.46671 -39.922075,-6.44153 -56.949807,5.67596 -13.929073,10.46476 -22.156995,32.05888 -21.852026,49.53797 -1.469121,8.09351 15.76593,29.63429 16.779517,25.33985 -12.089498,-15.61999 -13.028496,-47.08536 -0.599786,-61.22391 13.279916,-24.86954 45.70636,-22.60738 62.622102,-19.32987 z"
             id="path7994"
             inkscape:connector-curvature="0"
             sodipodi:nodetypes="cccccc" />
          <path
             style="fill:#ffffff;fill-opacity:0.65882353;stroke:none"
             d="m 97.253424,816.6696 c -22.392479,2.48791 -26.653791,14.97133 -28.246864,25.65542 -2.792091,10.91804 1.222737,25.81562 13.467458,28.70402 10.326807,2.4454 -3.658256,-7.68694 -3.326425,-12.30724 -4.02842,-16.11394 9.913975,-31.75406 18.105831,-42.0522 z"
             id="path7996"
             inkscape:connector-curvature="0"
             sodipodi:nodetypes="ccccc" />
          <ellipse
             ry="1.8144295"
             rx="2.1773155"
             cy="127.43235"
             cx="126.28429"
             style="fill:#ffffff;fill-opacity:1;stroke:none"
             id="path7998"
             transform="matrix(0.41666667,0,0,1,90.822512,719.53409)" />
          <ellipse
             ry="1.8144295"
             rx="2.1773155"
             cy="127.43235"
             cx="126.28429"
             transform="matrix(0.41666667,0,0,1,77.758619,719.53409)"
             id="path8000"
             style="fill:#ffffff;fill-opacity:1;stroke:none" />
          <path
             style="fill:#ff9f39;fill-opacity:1;stroke:#000000;stroke-width:1.56960642;stroke-linecap:butt;stroke-linejoin:miter;stroke-miterlimit:4;stroke-dasharray:none;stroke-opacity:1"
             d="m 92.868532,882.61797 c -5.939958,6.103 -6.65355,7.82824 -4.3773,12.69515 11.444745,9.26888 25.836268,3.66431 39.101178,4.06211 5.44017,-0.0102 12.54688,-3.10725 14.62177,-8.49951 1.43349,-3.41199 0.88485,-7.55308 -1.48507,-10.37357 -2.92127,-3.9772 -7.71334,-5.62886 -12.23511,-6.67357 -15.53028,-3.82674 -23.06577,1.32639 -34.918361,8.08231 z"
             id="path8002"
             inkscape:connector-curvature="0"
             sodipodi:nodetypes="cccccccc" />
          <path
             style="fill:#000000;stroke:#000000;stroke-width:0;stroke-linecap:butt;stroke-linejoin:miter;stroke-miterlimit:4;stroke-dasharray:none;stroke-opacity:1"
             d="m 94.352079,887.437 c 2.800207,-1.48803 0.162247,-0.55831 0.162247,-0.55831 0.47755,8.78707 12.538944,12.07223 26.053004,12.24306 1.48183,0.67284 3.18777,2.4287 1.63547,1.31927 -15.79943,-1.0054 -28.649516,-3.76254 -27.850721,-13.00402 z"
             id="path8004"
             inkscape:connector-curvature="0"
             sodipodi:nodetypes="ccccc" />
          <path
             sodipodi:nodetypes="ccc"
             inkscape:connector-curvature="0"
             id="path8006"
             d="m 140.74376,890.22676 c -2.17077,11.20197 -40.58577,11.67624 -44.769801,-7.62803 20.474151,-15.54479 48.164501,-7.25003 44.769801,7.62803 z"
             style="fill:#fde00c;fill-opacity:0.65700486;stroke:none" />
          <path
             style="fill:#fdf90c;fill-opacity:0.65882353;stroke:none"
             d="m 106.29664,877.27306 c 5.4545,2.41607 17.57432,-4.83362 30.89376,4.56721 1.96382,-0.009 -2.93175,-3.92454 -3.54836,-4.18608 -11.45092,-4.96921 -17.60181,-2.9809 -27.3454,-0.38113 z"
             id="path8008"
             inkscape:connector-curvature="0"
             sodipodi:nodetypes="cccc" />
          <path
             style="opacity:0.44392527;fill:#ffdb00;fill-opacity:1;stroke:none"
             d="m 91.714747,885.80731 c -6.511783,8.61388 3.22071,12.76079 6.560212,10.84357 -4.718213,-0.0144 -7.027015,-5.36871 -6.560212,-10.84357 z"
             id="path8010"
             inkscape:connector-curvature="0"
             sodipodi:nodetypes="ccc" />
        </g>
        <path
           inkscape:connector-curvature="0"
           id="path8012"
           d="m 54.745204,893.08613 c -19.670925,-10.8331 -29.062091,-37.68025 -20.682741,-59.07034 4.46137,-14.25394 13.158284,-28.41647 27.162522,-34.07071 14.512845,-7.0087 31.355935,-10.01222 46.929015,-5.14811 14.97135,4.31539 27.74105,15.77991 33.88175,30.58705 7.51342,16.91083 8.49027,37.72032 -0.11986,54.38872 -10.07431,16.79846 -29.4643,25.78875 -48.104894,26.4243 -10.358028,0.46231 -20.26579,-3.04582 -29.761555,-6.89611 -4.668727,-1.71339 -9.38122,-3.77057 -13.013475,-7.36746"
           style="fill:#000000;stroke:#000000;stroke-width:0.19063042;stroke-linecap:butt;stroke-linejoin:miter;stroke-miterlimit:4;stroke-dasharray:none;stroke-opacity:1" />
        <path
           sodipodi:nodetypes="ccccccc"
           inkscape:connector-curvature="0"
           id="path8014"
           d="m 131.89659,812.40054 c -20.83671,-2.47935 -56.051819,-5.39886 -65.114023,15.72677 -6.834216,15.77745 -8.201198,38.52669 8.396721,46.58406 9.177056,4.90656 19.710482,5.99243 29.881782,6.07798 6.4473,-0.77343 12.70317,-3.37976 19.28463,-2.68429 6.93378,-0.19897 12.4483,0.26418 17.57338,-5.04358 11.31501,-18.63644 1.13975,-49.478 -10.02249,-60.66094 z"
           style="fill:#cc91cc;fill-opacity:1;stroke:#000000;stroke-width:1.86857915;stroke-linecap:butt;stroke-linejoin:miter;stroke-miterlimit:4;stroke-dasharray:none;stroke-opacity:1" />
        <path
           sodipodi:nodetypes="ccccc"
           inkscape:connector-curvature="0"
           id="path8016"
           d="m 65.423024,844.11617 c -5.253844,24.81212 18.89439,38.75102 38.800486,33.32209 10.57688,-6.08608 17.48202,-6.86494 33.27367,-1.67502 14.18798,-10.95732 8.54176,-48.81712 -6.44693,-60.79011 -13.61021,-1.59702 -62.153709,-10.88147 -65.627226,29.14304 z"
           style="fill:#f8efff;fill-opacity:1;stroke:none" />
        <path
           inkscape:connector-curvature="0"
           id="path8018"
           d="m 140.55139,840.42347 c -1.35281,1.66272 -3.48015,2.61865 -4.01476,5.09691 -0.99823,4.18585 -0.37044,8.62244 -1.07892,12.86375 -0.0612,2.48107 -0.50042,5.28466 0.7931,7.43229 1.66454,2.66635 4.48112,4.31918 7.21951,3.81594 2.12803,-0.83124 3.1493,-3.80558 2.99373,-6.38556 0.58619,-5.76267 1.41052,-11.70013 0.24665,-17.43968 -0.57357,-2.91323 -2.81726,-5.34646 -5.30265,-5.24683 -0.28673,-0.0328 -0.57354,-0.0705 -0.85666,-0.13679 z"
           style="fill:#0b0b28;stroke:#000000;stroke-width:0.19200477;stroke-linecap:butt;stroke-linejoin:miter;stroke-miterlimit:4;stroke-dasharray:none;stroke-opacity:1" />
        <path
           style="fill:#0b0b28;stroke:#000000;stroke-width:0.20109792;stroke-linecap:butt;stroke-linejoin:miter;stroke-miterlimit:4;stroke-dasharray:none;stroke-opacity:1"
           d="m 126.51083,840.06059 c -1.46578,1.68337 -3.77073,2.65118 -4.35001,5.16022 -1.08156,4.23786 -0.40136,8.72957 -1.169,13.02358 -0.0663,2.51189 -0.5422,5.35031 0.85933,7.52462 1.80352,2.69948 4.8553,4.37284 7.82234,3.86335 2.3057,-0.84157 3.41223,-3.85286 3.24372,-6.46489 0.63511,-5.83427 1.52827,-11.84549 0.26722,-17.65635 -0.62145,-2.94943 -3.0525,-5.41289 -5.74543,-5.31202 -0.31066,-0.0332 -0.62142,-0.0713 -0.92817,-0.13849 z"
           id="path8020"
           inkscape:connector-curvature="0" />
        <ellipse
           ry="11.111678"
           rx="5.0507627"
           cy="423.03714"
           cx="-271.73105"
           transform="matrix(0.36719216,0,0,0.38035553,229.97342,687.27728)"
           id="path8022"
           style="fill:#aa87de;fill-opacity:1;stroke:none" />
        <ellipse
           ry="11.111678"
           rx="5.0507627"
           cy="423.03714"
           cx="-271.73105"
           style="fill:#aa87de;fill-opacity:1;stroke:none"
           id="path8024"
           transform="matrix(0.36719216,0,0,0.38035553,243.01188,687.64017)" />
        <path
           sodipodi:nodetypes="cccccc"
           inkscape:connector-curvature="0"
           id="path8026"
           d="m 114.09243,800.48982 c -12.16838,-6.46671 -39.922075,-6.44153 -56.949807,5.67596 -13.929073,10.46476 -22.156995,32.05888 -21.852026,49.53797 -1.469121,8.09351 15.76593,29.63429 16.779517,25.33985 -12.089498,-15.61999 -13.028496,-47.08536 -0.599786,-61.22391 13.279916,-24.86954 45.70636,-22.60738 62.622102,-19.32987 z"
           style="fill:#7a6f91;fill-opacity:1;stroke:none" />
        <path
           sodipodi:nodetypes="ccccc"
           inkscape:connector-curvature="0"
           id="path8028"
           d="m 97.253424,816.6696 c -22.392479,2.48791 -26.653791,14.97133 -28.246864,25.65542 -2.792091,10.91804 1.222737,25.81562 13.467458,28.70402 10.326807,2.4454 -3.658256,-7.68694 -3.326425,-12.30724 -4.02842,-16.11394 9.913975,-31.75406 18.105831,-42.0522 z"
           style="fill:#ffffff;fill-opacity:0.65882353;stroke:none" />
        <ellipse
           ry="1.8144295"
           rx="2.1773155"
           cy="127.43235"
           cx="126.28429"
           transform="matrix(0.41666667,0,0,1,90.822512,719.53409)"
           id="path8030"
           style="fill:#ffffff;fill-opacity:1;stroke:none" />
        <ellipse
           ry="1.8144295"
           rx="2.1773155"
           cy="127.43235"
           cx="126.28429"
           style="fill:#ffffff;fill-opacity:1;stroke:none"
           id="path8032"
           transform="matrix(0.41666667,0,0,1,77.758619,719.53409)" />
        <path
           sodipodi:nodetypes="cccccccc"
           inkscape:connector-curvature="0"
           id="path8034"
           d="m 92.868532,882.61797 c -5.939958,6.103 -6.65355,7.82824 -4.3773,12.69515 11.444745,9.26888 25.836268,3.66431 39.101178,4.06211 5.44017,-0.0102 12.54688,-3.10725 14.62177,-8.49951 1.43349,-3.41199 0.88485,-7.55308 -1.48507,-10.37357 -2.92127,-3.9772 -7.71334,-5.62886 -12.23511,-6.67357 -15.53028,-3.82674 -23.06577,1.32639 -34.918361,8.08231 z"
           style="fill:#ff9f39;fill-opacity:1;stroke:#000000;stroke-width:1.56960642;stroke-linecap:butt;stroke-linejoin:miter;stroke-miterlimit:4;stroke-dasharray:none;stroke-opacity:1" />
        <path
           sodipodi:nodetypes="ccccc"
           inkscape:connector-curvature="0"
           id="path8036"
           d="m 94.352079,887.437 c 2.800207,-1.48803 0.162247,-0.55831 0.162247,-0.55831 0.47755,8.78707 12.538944,12.07223 26.053004,12.24306 1.48183,0.67284 3.18777,2.4287 1.63547,1.31927 -15.79943,-1.0054 -28.649516,-3.76254 -27.850721,-13.00402 z"
           style="fill:#000000;stroke:#000000;stroke-width:0;stroke-linecap:butt;stroke-linejoin:miter;stroke-miterlimit:4;stroke-dasharray:none;stroke-opacity:1" />
        <path
           style="fill:#fde00c;fill-opacity:0.65700486;stroke:none"
           d="m 140.74376,890.22676 c -2.17077,11.20197 -40.58577,11.67624 -44.769801,-7.62803 20.474151,-15.54479 48.164501,-7.25003 44.769801,7.62803 z"
           id="path8038"
           inkscape:connector-curvature="0"
           sodipodi:nodetypes="ccc" />
        <path
           sodipodi:nodetypes="cccc"
           inkscape:connector-curvature="0"
           id="path8040"
           d="m 106.29664,877.27306 c 5.4545,2.41607 17.57432,-4.83362 30.89376,4.56721 1.96382,-0.009 -2.93175,-3.92454 -3.54836,-4.18608 -11.45092,-4.96921 -17.60181,-2.9809 -27.3454,-0.38113 z"
           style="fill:#fdf90c;fill-opacity:0.65882353;stroke:none" />
        <path
           sodipodi:nodetypes="ccc"
           inkscape:connector-curvature="0"
           id="path8042"
           d="m 91.714747,885.80731 c -6.511783,8.61388 3.22071,12.76079 6.560212,10.84357 -4.718213,-0.0144 -7.027015,-5.36871 -6.560212,-10.84357 z"
           style="opacity:0.44392527;fill:#ffdb00;fill-opacity:1;stroke:none" />
      </g>
      <path
         style="fill:none;stroke:#d989eb;stroke-width:1px;stroke-linecap:butt;stroke-linejoin:miter;stroke-opacity:0.77777782"
         d="m 651.72852,1161.6112 c -34.28767,8.555 -40.09756,21.1885 -39.37831,28.8651 1.38641,8.006 5.40834,11.5353 8.34657,12.5286 5.95704,2.0139 28.86801,11.5329 55.98432,-25.9407"
         id="path8044"
         inkscape:connector-curvature="0"
         sodipodi:nodetypes="ccsc" />
      <path
         sodipodi:nodetypes="cccccccc"
         inkscape:connector-curvature="0"
         id="path8046"
         d="m 721.52626,1232.6559 c 11.37218,-3.1995 11.76251,-29.6591 38.22599,-21.9106 2.30058,2.2339 4.07365,4.9074 6.31275,7.1899 3.62586,5.1721 -2.75068,14.5466 -10.56071,20.8462 -15.44665,11.6317 -14.35992,25.4554 -44.05568,19.5609 -7.04046,2.3465 -12.85552,-10.4534 -12.44555,-13.9603 0.29088,-3.876 3.19971,-7.4789 6.4282,-10.2489 1.99384,-1.8554 13.67417,-3.5163 16.095,-1.4772 z"
         style="fill:#ffb339;fill-opacity:1;stroke:#000000;stroke-width:1.86857951;stroke-linecap:butt;stroke-linejoin:miter;stroke-miterlimit:4;stroke-dasharray:none;stroke-opacity:1" />
      <path
         sodipodi:nodetypes="cccssccc"
         inkscape:connector-curvature="0"
         id="path8048"
         d="m 758.54021,1213.0977 c 1.21266,2.7128 6.09157,7.221 6.61306,10.2955 -1.48987,3.4432 -3.52654,7.2576 -7.05734,10.9428 -7.43492,4.1745 -17.99,17.1474 -21.0257,18.6913 -4.86591,2.4747 -14.71173,5.2993 -18.37817,3.4664 -3.66644,-1.8328 -8.08476,1.6061 -11.7075,-0.79 -12.68635,-16.1446 7.20447,-23.8029 17.01754,-18.827 7.99473,-2.904 17.72432,-33.533 34.53811,-23.779 z"
         style="fill:#fde00c;fill-opacity:0.65882353;stroke:none" />
      <path
         inkscape:connector-curvature="0"
         id="path8050"
         d="m 724.64216,1237.5393 c 5.98902,-10.4245 13.5863,-23.7716 20.29049,-24.8179 2.88465,-1.2111 9.7856,-1.5543 13.77407,0.5559 -5.76771,0.4953 -11.10187,2.5478 -15.87001,6.1745 -1.71419,1.3331 -15.53416,17.3303 -18.19455,18.0875 z"
         style="fill:#fdf90c;fill-opacity:0.65882353;stroke:none"
         sodipodi:nodetypes="ccccc" />
    </g>
  </g>
</svg>
