<?xml version="1.0" encoding="UTF-8" standalone="no"?>
<!-- Created with Inkscape (http://www.inkscape.org/) -->

<svg
   xmlns:dc="http://purl.org/dc/elements/1.1/"
   xmlns:cc="http://creativecommons.org/ns#"
   xmlns:rdf="http://www.w3.org/1999/02/22-rdf-syntax-ns#"
   xmlns:svg="http://www.w3.org/2000/svg"
   xmlns="http://www.w3.org/2000/svg"
   xmlns:sodipodi="http://sodipodi.sourceforge.net/DTD/sodipodi-0.dtd"
   xmlns:inkscape="http://www.inkscape.org/namespaces/inkscape"
   width="250"
   height="250"
   viewBox="0 0 66.145831 66.145835"
   version="1.1"
   id="svg1537"
   sodipodi:docname="Tux_junior-4.svg"
   inkscape:version="0.92.5 (2060ec1f9f, 2020-04-08)">
  <defs
     id="defs1531" />
  <sodipodi:namedview
     id="base"
     pagecolor="#ffffff"
     bordercolor="#666666"
     borderopacity="1.0"
     inkscape:pageopacity="0.0"
     inkscape:pageshadow="2"
     inkscape:zoom="0.68050058"
     inkscape:cx="-144.29416"
     inkscape:cy="560"
     inkscape:document-units="mm"
     inkscape:current-layer="layer1"
     showgrid="false"
     units="px"
     inkscape:window-width="1920"
     inkscape:window-height="1043"
     inkscape:window-x="1920"
     inkscape:window-y="0"
     inkscape:window-maximized="1" />
  <metadata
     id="metadata1534">
    <rdf:RDF>
      <cc:Work
         rdf:about="">
        <dc:format>image/svg+xml</dc:format>
        <dc:type
           rdf:resource="http://purl.org/dc/dcmitype/StillImage" />
        <dc:title />
      </cc:Work>
    </rdf:RDF>
  </metadata>
  <g
     inkscape:label="Calque 1"
     inkscape:groupmode="layer"
     id="layer1"
     transform="translate(0,-230.85415)">
    <rect
       style="opacity:1;fill:#ffffff;fill-opacity:1;stroke:#000000;stroke-width:0;stroke-miterlimit:4;stroke-dasharray:none;stroke-opacity:1"
       id="rect5827"
       width="66.145836"
       height="66.145836"
       x="-1.2715658e-06"
       y="230.85414" />
    <g
       id="g3722"
       transform="translate(-48.530765,114.17842)">
      <g
         transform="matrix(0.25334316,-0.0762993,0.0762993,0.25334316,-212.61428,-9.6714483)"
         id="g6758"
         style="display:inline">
        <path
           inkscape:connector-curvature="0"
           id="path6656"
           d="m 843.45634,918.83681 c 2.99052,0.8786 6.64398,2.9717 6.9512,7.2398 0.59067,4.2655 -1.86245,9.0391 -5.4627,9.5585 -2.33148,1.4572 -1.92524,1.1343 -0.73934,3.4439 8.24265,6.0774 13.45511,13.4997 13.96083,23.1085 -0.48291,4.5969 -1.94208,10.3902 -5.96391,11.0307 -6.5187,3.1237 -12.90529,3.4988 -19.43103,1.2175 -11.35492,-11.935 -14.45658,-16.4477 -14.53288,-31.5696 -0.21111,-10.498 -4.91677,-38.6275 9.79525,-41.7397 3.65754,0.01 7.70055,-0.9075 10.90186,1.9279 3.08442,2.3652 4.50714,6.7718 5.05791,10.9899 0.34649,1.5788 0.67487,3.6358 -0.53719,4.7926 z"
           style="fill:#ffb124;fill-opacity:1;stroke:#000000;stroke-width:1.86857951;stroke-linecap:butt;stroke-linejoin:miter;stroke-miterlimit:4;stroke-dasharray:none;stroke-opacity:1"
           sodipodi:nodetypes="cccccccccccc" />
        <path
           sodipodi:nodetypes="ccccccc"
           inkscape:connector-curvature="0"
           id="path6658"
           d="m 820.6458,953.40531 c 2.25623,6.6942 10.12779,18.2198 15.82253,20.5304 0.72844,-1.5666 19.20785,2.29319 19.58122,-10.3088 -4.63496,6.0925 -14.74083,11.37774 -21.1318,7.6286 -17.81782,-10.4525 -17.61793,-52.4848 -11.52995,-64.497 -1.44448,-0.4343 -2.17528,1.81447 -3.60682,4.3477 -3.83443,8.07449 -0.71326,31.56 0.86482,42.2991 z"
           style="fill:#fde00c;fill-opacity:0.65882353;stroke:none" />
        <path
           style="opacity:0.28971965;fill:#ff6600;stroke:none"
           d="m 829.88887,904.60551 c -6.2195,-2.2918 -7.8776,9.0113 -7.62127,11.9799 -4.36096,37.2725 8.14641,52.286 18.31624,54.5926 4.18218,1.7821 14.63507,-4.5104 13.75242,-7.3361 1.60914,-2.417 0.68579,-12.0277 -2.15122,-14.5412 -2.34528,-3.4185 -7.04241,-6.5874 -10.55277,-9.9602 -2.19517,-1.2905 0.4268,-5.1203 0.60008,-6.696 6.3081,0.4392 9.49768,-8.0456 -5.03883,-12.0119 1.73174,-1.5786 4.95487,-7.6017 3.68917,-9.9687 -1.30643,-7.205 -8.27023,-7.9737 -10.99382,-6.0584 z"
           id="path6660"
           inkscape:connector-curvature="0"
           sodipodi:nodetypes="cccccccccc" />
      </g>
      <path
         sodipodi:nodetypes="ccccccccc"
         inkscape:connector-curvature="0"
         id="path6662"
         d="m 68.410734,151.57289 c 0.515191,-1.53098 3.960638,-7.41923 5.125979,-8.50288 4.903097,2.17675 10.781266,1.06733 15.621977,2.99971 0.837123,0.34539 0.377214,4.20396 0.639569,5.20139 3.314732,3.90761 6.230062,6.70536 5.850392,12.65714 -0.0066,1.13308 -1.673389,3.84508 -3.065041,4.76898 -1.234747,0.93563 -6.876547,1.52307 -7.777329,1.99689 -4.242639,0.23265 -12.406231,-0.50628 -16.286864,-6.6062 -1.972437,-2.01022 -1.320475,-9.44898 -0.108683,-12.51503 z"
         style="display:inline;fill:#1a1a1a;stroke:#000000;stroke-width:0.05043763;stroke-linecap:butt;stroke-linejoin:miter;stroke-miterlimit:4;stroke-dasharray:none;stroke-opacity:1" />
      <path
         sodipodi:nodetypes="cccccc"
         inkscape:connector-curvature="0"
         id="path6664"
         d="m 80.686038,147.18306 c 0.573921,7.07956 -6.016966,13.83554 -1.013611,18.96552 3.427511,1.75432 9.333056,2.09134 12.096361,-0.86612 0.859531,0.25535 2.291427,-10.27056 -3.024536,-11.89175 -0.380749,-1.49984 0.510736,-1.78511 0.0903,-3.6373 -2.332611,0.27157 -4.752564,-1.08628 -8.148514,-2.57035 z"
         style="display:inline;fill:#d5f6ff;stroke:#000000;stroke-width:0.10390265px;stroke-linecap:butt;stroke-linejoin:miter;stroke-opacity:1" />
      <path
         style="display:inline;fill:#ffffff;stroke:none;stroke-width:0.26458332"
         d="m 81.025869,147.52868 c 0.485386,0.71663 -0.370088,1.62841 -0.07788,0.29343 0.189849,1.02637 0.0011,2.61845 0.08925,3.86178 0.211283,2.8948 -3.761354,9.98738 -1.638827,12.25465 0.547984,0.5221 1.551787,1.10056 1.382157,-0.29289 -0.481613,-5.52921 0.27957,-8.87027 1.323806,-13.62067 0.251754,-1.11258 -0.54102,-1.73583 -1.078513,-2.4963 z"
         id="path6666"
         inkscape:connector-curvature="0"
         sodipodi:nodetypes="cccccccc" />
      <path
         style="display:inline;fill:#f8efff;fill-opacity:1;stroke:#000000;stroke-width:0.10390265px;stroke-linecap:butt;stroke-linejoin:miter;stroke-opacity:1"
         d="m 82.273538,148.50598 c 0.573921,7.07956 -7.887853,14.30326 -2.884498,19.43324 3.427511,1.75432 13.636093,1.81071 14.341425,-1.52093 2.356241,-1.42845 1.543073,-8.39968 -2.650358,-12.73365 -0.193659,-0.75149 -1.173062,-1.31739 -2.06122,-2.60832 -2.332612,0.27157 -3.3494,-1.08627 -6.745349,-2.57034 z"
         id="path6668"
         inkscape:connector-curvature="0"
         sodipodi:nodetypes="cccccc" />
      <path
         sodipodi:nodetypes="cccccc"
         inkscape:connector-curvature="0"
         id="path6670"
         d="m 80.686038,147.18306 c 0.573921,7.07956 -6.484689,14.49035 -1.481333,19.62033 2.679158,1.56723 8.678246,1.15589 9.196488,-0.77255 0.298265,-2.73809 2.291426,-10.2706 -3.024537,-11.89175 -0.380748,-1.49987 0.510736,-1.78512 0.0903,-3.63733 -2.332612,0.27156 -1.384969,-1.83463 -4.780918,-3.3187 z"
         style="display:inline;fill:#ffffff;fill-opacity:1;stroke:none;stroke-width:0.26458332" />
      <g
         id="g6674"
         transform="matrix(0.37806686,-0.05667866,0.06134314,0.40918064,-178.02374,-314.50899)"
         style="display:inline;fill:#000000">
        <path
           style="fill:#000000;stroke:#000000;stroke-width:0.43743804px;stroke-linecap:butt;stroke-linejoin:miter;stroke-opacity:1"
           d="m 471.85629,1192.6554 c -2.91334,14.9727 -11.50424,30.8342 -5.33917,46.0442 11.28434,14.336 29.07916,-5.2565 21.78325,-19.1341 -0.17395,-11.2628 -3.1653,-26.1701 -16.44408,-26.9101 z"
           id="path6676"
           inkscape:connector-curvature="0" />
      </g>
      <path
         style="display:inline;fill:#6f6f91;fill-opacity:1;stroke:none;stroke-width:0.26458332"
         d="m 76.675267,166.46309 c 2.844054,1.3455 5.300292,-3.28316 5.559825,-6.58169 0.323871,-4.00718 -2.612941,-8.98535 -3.976032,-10.90024 -0.06577,-0.6976 -2.423932,-2.90359 -2.590151,-1.82775 -0.130207,0.83131 2.244989,1.71781 2.405091,2.50538 2.561323,2.5428 2.459263,7.50509 2.17954,11.08131 -0.271095,2.0945 -1.476145,4.52078 -3.578273,5.72299 z"
         id="path6678"
         inkscape:connector-curvature="0"
         sodipodi:nodetypes="ccccccc" />
      <path
         style="display:inline;fill:none;stroke:#d989eb;stroke-width:0.26458332px;stroke-linecap:butt;stroke-linejoin:miter;stroke-opacity:0.77777782"
         d="m 72.854139,154.88992 c -1.007452,9.29563 1.598996,11.89226 3.570925,12.41483 2.114661,0.38699 3.278944,-0.36255 3.873436,-0.92824 2.540905,-2.41782 4.00389,-7.14402 -1.327967,-16.27128"
         id="path6680"
         inkscape:connector-curvature="0"
         sodipodi:nodetypes="ccsc" />
      <g
         id="g6682"
         transform="matrix(0.26458333,0,0,0.26458333,-57.559424,-82.081945)"
         style="display:inline">
        <path
           style="fill:#ffb339;fill-opacity:1;stroke:#000000;stroke-width:2.05752516;stroke-linecap:butt;stroke-linejoin:miter;stroke-miterlimit:4;stroke-dasharray:none;stroke-opacity:1"
           d="m 504.12924,953.6477 c 0.90636,-3.22153 3.0333,-7.14954 7.30401,-7.44911 4.27077,-0.60555 9.02133,2.07831 9.50729,5.96854 1.43538,2.52763 5.25376,2.05183 7.57424,0.78909 2.95497,-1.7606 6.16948,-3.143 9.66346,-3.87466 5.43976,-1.15631 11.14422,-1.93746 16.72262,-1.34752 4.59223,0.5558 9.39414,3.21264 9.9973,7.55882 0.67329,3.38269 0.66376,6.8457 1.25891,10.23539 0.19368,4.45096 -1.59869,9.78449 -6.62923,11.70129 -4.48137,1.10478 -9.16697,0.23214 -13.72749,0.73754 -7.8202,0.24082 -15.64749,0.73458 -23.47081,0.42662 -4.1034,-1.25664 -8.21029,1.67182 -12.32114,0.48204 -6.32784,-0.65302 -12.73499,-1.00932 -19.10177,-0.48056 -4.20467,-0.64099 -5.09021,-5.09248 -4.63011,-8.23258 0.0387,-3.9481 -0.83584,-8.31919 2.02908,-11.75355 2.39376,-3.31172 6.81327,-4.8144 11.03631,-5.37722 1.58193,-0.36216 3.64185,-0.70118 4.78733,0.61587 z"
           id="path6684"
           inkscape:connector-curvature="0" />
        <path
           sodipodi:nodetypes="cccscscc"
           inkscape:connector-curvature="0"
           id="path6686"
           d="m 562.31033,955.38235 c 1.38424,1.7557 5.28091,15.906 -2.32932,20.2734 -3.25764,2.3825 -61.86285,0.833 -68.92918,0.9827 -2.86964,-1.6159 -3.75077,-11.208 -1.21337,-14.7835 1.2687,-1.7878 8.01883,-6.1993 12.89926,-4.7493 3.48253,4.295 3.7875,4.8914 4.3015,2.2622 1.50964,-7.7221 8.48554,-13.79571 13.51153,-3.0885 6.24169,6.7175 23.13559,-12.78083 41.75958,-0.897 z"
           style="fill:#fde00c;fill-opacity:0.65882353;stroke:none" />
        <path
           sodipodi:nodetypes="ccccc"
           style="fill:#fdf90c;fill-opacity:0.65882353;stroke:none"
           d="m 524.34627,958.05047 c 6.70568,-6.3049 23.45708,-6.7821 29.30693,-6.6066 2.52803,-0.3566 10.25816,2.1326 8.72547,8.6503 -3.87675,0.5305 -7.66327,-2.4899 -11.6636,-2.5685 -2.1655,-0.1624 -23.88843,1.7491 -26.3688,0.5248 z"
           id="path6688"
           inkscape:connector-curvature="0" />
      </g>
      <g
         transform="matrix(0.26130675,-0.0415105,0.0415105,0.26130675,24.670143,-80.793375)"
         id="g6690"
         style="display:inline">
        <g
           id="g6692"
           style="display:inline">
          <path
             style="fill:#000000;stroke:#000000;stroke-width:0.19063042;stroke-linecap:butt;stroke-linejoin:miter;stroke-miterlimit:4;stroke-dasharray:none;stroke-opacity:1"
             d="m 54.745204,893.08613 c -19.670925,-10.8331 -29.062091,-37.68025 -20.682741,-59.07034 4.46137,-14.25394 13.158284,-28.41647 27.162522,-34.07071 14.512845,-7.0087 31.355935,-10.01222 46.929015,-5.14811 14.97135,4.31539 27.74105,15.77991 33.88175,30.58705 7.51342,16.91083 8.49027,37.72032 -0.11986,54.38872 -10.07431,16.79846 -29.4643,25.78875 -48.104894,26.4243 -10.358028,0.46231 -20.26579,-3.04582 -29.761555,-6.89611 -4.668727,-1.71339 -9.38122,-3.77057 -13.013475,-7.36746"
             id="path6694"
             inkscape:connector-curvature="0" />
          <path
             style="fill:#cc91cc;fill-opacity:1;stroke:#000000;stroke-width:1.86857915;stroke-linecap:butt;stroke-linejoin:miter;stroke-miterlimit:4;stroke-dasharray:none;stroke-opacity:1"
             d="m 131.89659,812.40054 c -20.83671,-2.47935 -56.051819,-5.39886 -65.114023,15.72677 -6.834216,15.77745 -8.201198,38.52669 8.396721,46.58406 9.177056,4.90656 19.710482,5.99243 29.881782,6.07798 6.4473,-0.77343 12.70317,-3.37976 19.28463,-2.68429 6.93378,-0.19897 12.4483,0.26418 17.57338,-5.04358 11.31501,-18.63644 1.13975,-49.478 -10.02249,-60.66094 z"
             id="path6696"
             inkscape:connector-curvature="0"
             sodipodi:nodetypes="ccccccc" />
          <path
             style="fill:#f8efff;fill-opacity:1;stroke:none"
             d="m 65.423024,844.11617 c -5.253844,24.81212 18.89439,38.75102 38.800486,33.32209 10.57688,-6.08608 17.48202,-6.86494 33.27367,-1.67502 14.18798,-10.95732 8.54176,-48.81712 -6.44693,-60.79011 -13.61021,-1.59702 -62.153709,-10.88147 -65.627226,29.14304 z"
             id="path6698"
             inkscape:connector-curvature="0"
             sodipodi:nodetypes="ccccc" />
          <path
             style="fill:#0b0b28;stroke:#000000;stroke-width:0.19200477;stroke-linecap:butt;stroke-linejoin:miter;stroke-miterlimit:4;stroke-dasharray:none;stroke-opacity:1"
             d="m 140.55139,840.42347 c -1.35281,1.66272 -3.48015,2.61865 -4.01476,5.09691 -0.99823,4.18585 -0.37044,8.62244 -1.07892,12.86375 -0.0612,2.48107 -0.50042,5.28466 0.7931,7.43229 1.66454,2.66635 4.48112,4.31918 7.21951,3.81594 2.12803,-0.83124 3.1493,-3.80558 2.99373,-6.38556 0.58619,-5.76267 1.41052,-11.70013 0.24665,-17.43968 -0.57357,-2.91323 -2.81726,-5.34646 -5.30265,-5.24683 -0.28673,-0.0328 -0.57354,-0.0705 -0.85666,-0.13679 z"
             id="path6700"
             inkscape:connector-curvature="0" />
          <path
             inkscape:connector-curvature="0"
             id="path6702"
             d="m 126.51083,840.06059 c -1.46578,1.68337 -3.77073,2.65118 -4.35001,5.16022 -1.08156,4.23786 -0.40136,8.72957 -1.169,13.02358 -0.0663,2.51189 -0.5422,5.35031 0.85933,7.52462 1.80352,2.69948 4.8553,4.37284 7.82234,3.86335 2.3057,-0.84157 3.41223,-3.85286 3.24372,-6.46489 0.63511,-5.83427 1.52827,-11.84549 0.26722,-17.65635 -0.62145,-2.94943 -3.0525,-5.41289 -5.74543,-5.31202 -0.31066,-0.0332 -0.62142,-0.0713 -0.92817,-0.13849 z"
             style="fill:#0b0b28;stroke:#000000;stroke-width:0.20109792;stroke-linecap:butt;stroke-linejoin:miter;stroke-miterlimit:4;stroke-dasharray:none;stroke-opacity:1" />
          <ellipse
             style="fill:#aa87de;fill-opacity:1;stroke:none"
             id="path6704"
             transform="matrix(0.36719216,0,0,0.38035553,229.97342,687.27728)"
             cx="-271.73105"
             cy="423.03714"
             rx="5.0507627"
             ry="11.111678" />
          <ellipse
             transform="matrix(0.36719216,0,0,0.38035553,243.01188,687.64017)"
             id="path6706"
             style="fill:#aa87de;fill-opacity:1;stroke:none"
             cx="-271.73105"
             cy="423.03714"
             rx="5.0507627"
             ry="11.111678" />
          <path
             style="fill:#7a6f91;fill-opacity:1;stroke:none"
             d="m 114.09243,800.48982 c -12.16838,-6.46671 -39.922075,-6.44153 -56.949807,5.67596 -13.929073,10.46476 -22.156995,32.05888 -21.852026,49.53797 -1.469121,8.09351 15.76593,29.63429 16.779517,25.33985 -12.089498,-15.61999 -13.028496,-47.08536 -0.599786,-61.22391 13.279916,-24.86954 45.70636,-22.60738 62.622102,-19.32987 z"
             id="path6708"
             inkscape:connector-curvature="0"
             sodipodi:nodetypes="cccccc" />
          <path
             style="fill:#ffffff;fill-opacity:0.65882353;stroke:none"
             d="m 97.253424,816.6696 c -22.392479,2.48791 -26.653791,14.97133 -28.246864,25.65542 -2.792091,10.91804 1.222737,25.81562 13.467458,28.70402 10.326807,2.4454 -3.658256,-7.68694 -3.326425,-12.30724 -4.02842,-16.11394 9.913975,-31.75406 18.105831,-42.0522 z"
             id="path6710"
             inkscape:connector-curvature="0"
             sodipodi:nodetypes="ccccc" />
          <ellipse
             style="fill:#ffffff;fill-opacity:1;stroke:none"
             id="path6712"
             transform="matrix(0.41666667,0,0,1,90.822512,719.53409)"
             cx="126.28429"
             cy="127.43235"
             rx="2.1773155"
             ry="1.8144295" />
          <ellipse
             transform="matrix(0.41666667,0,0,1,77.758619,719.53409)"
             id="path6714"
             style="fill:#ffffff;fill-opacity:1;stroke:none"
             cx="126.28429"
             cy="127.43235"
             rx="2.1773155"
             ry="1.8144295" />
          <path
             style="fill:#ff9f39;fill-opacity:1;stroke:#000000;stroke-width:1.56960642;stroke-linecap:butt;stroke-linejoin:miter;stroke-miterlimit:4;stroke-dasharray:none;stroke-opacity:1"
             d="m 92.868532,882.61797 c -5.939958,6.103 -6.65355,7.82824 -4.3773,12.69515 11.444745,9.26888 25.836268,3.66431 39.101178,4.06211 5.44017,-0.0102 12.54688,-3.10725 14.62177,-8.49951 1.43349,-3.41199 0.88485,-7.55308 -1.48507,-10.37357 -2.92127,-3.9772 -7.71334,-5.62886 -12.23511,-6.67357 -15.53028,-3.82674 -23.06577,1.32639 -34.918361,8.08231 z"
             id="path6716"
             inkscape:connector-curvature="0"
             sodipodi:nodetypes="cccccccc" />
          <path
             style="fill:#000000;stroke:#000000;stroke-width:0;stroke-linecap:butt;stroke-linejoin:miter;stroke-miterlimit:4;stroke-dasharray:none;stroke-opacity:1"
             d="m 94.352079,887.437 c 2.800207,-1.48803 0.162247,-0.55831 0.162247,-0.55831 0.47755,8.78707 12.538944,12.07223 26.053004,12.24306 1.48183,0.67284 3.18777,2.4287 1.63547,1.31927 -15.79943,-1.0054 -28.649516,-3.76254 -27.850721,-13.00402 z"
             id="path6718"
             inkscape:connector-curvature="0"
             sodipodi:nodetypes="ccccc" />
          <path
             sodipodi:nodetypes="ccc"
             inkscape:connector-curvature="0"
             id="path6720"
             d="m 140.74376,890.22676 c -2.17077,11.20197 -40.58577,11.67624 -44.769801,-7.62803 20.474151,-15.54479 48.164501,-7.25003 44.769801,7.62803 z"
             style="fill:#fde00c;fill-opacity:0.65700486;stroke:none" />
          <path
             style="fill:#fdf90c;fill-opacity:0.65882353;stroke:none"
             d="m 106.29664,877.27306 c 5.4545,2.41607 17.57432,-4.83362 30.89376,4.56721 1.96382,-0.009 -2.93175,-3.92454 -3.54836,-4.18608 -11.45092,-4.96921 -17.60181,-2.9809 -27.3454,-0.38113 z"
             id="path6722"
             inkscape:connector-curvature="0"
             sodipodi:nodetypes="cccc" />
          <path
             style="opacity:0.44392527;fill:#ffdb00;fill-opacity:1;stroke:none"
             d="m 91.714747,885.80731 c -6.511783,8.61388 3.22071,12.76079 6.560212,10.84357 -4.718213,-0.0144 -7.027015,-5.36871 -6.560212,-10.84357 z"
             id="path6724"
             inkscape:connector-curvature="0"
             sodipodi:nodetypes="ccc" />
        </g>
        <path
           inkscape:connector-curvature="0"
           id="path6726"
           d="m 54.745204,893.08613 c -19.670925,-10.8331 -29.062091,-37.68025 -20.682741,-59.07034 4.46137,-14.25394 13.158284,-28.41647 27.162522,-34.07071 14.512845,-7.0087 31.355935,-10.01222 46.929015,-5.14811 14.97135,4.31539 27.74105,15.77991 33.88175,30.58705 7.51342,16.91083 8.49027,37.72032 -0.11986,54.38872 -10.07431,16.79846 -29.4643,25.78875 -48.104894,26.4243 -10.358028,0.46231 -20.26579,-3.04582 -29.761555,-6.89611 -4.668727,-1.71339 -9.38122,-3.77057 -13.013475,-7.36746"
           style="fill:#000000;stroke:#000000;stroke-width:0.19063042;stroke-linecap:butt;stroke-linejoin:miter;stroke-miterlimit:4;stroke-dasharray:none;stroke-opacity:1" />
        <path
           sodipodi:nodetypes="ccccccc"
           inkscape:connector-curvature="0"
           id="path6728"
           d="m 131.89659,812.40054 c -20.83671,-2.47935 -56.051819,-5.39886 -65.114023,15.72677 -6.834216,15.77745 -8.201198,38.52669 8.396721,46.58406 9.177056,4.90656 19.710482,5.99243 29.881782,6.07798 6.4473,-0.77343 12.70317,-3.37976 19.28463,-2.68429 6.93378,-0.19897 12.4483,0.26418 17.57338,-5.04358 11.31501,-18.63644 1.13975,-49.478 -10.02249,-60.66094 z"
           style="fill:#cc91cc;fill-opacity:1;stroke:#000000;stroke-width:1.86857915;stroke-linecap:butt;stroke-linejoin:miter;stroke-miterlimit:4;stroke-dasharray:none;stroke-opacity:1" />
        <path
           sodipodi:nodetypes="ccccc"
           inkscape:connector-curvature="0"
           id="path6730"
           d="m 65.423024,844.11617 c -5.253844,24.81212 18.89439,38.75102 38.800486,33.32209 10.57688,-6.08608 17.48202,-6.86494 33.27367,-1.67502 14.18798,-10.95732 8.54176,-48.81712 -6.44693,-60.79011 -13.61021,-1.59702 -62.153709,-10.88147 -65.627226,29.14304 z"
           style="fill:#f8efff;fill-opacity:1;stroke:none" />
        <path
           inkscape:connector-curvature="0"
           id="path6732"
           d="m 140.55139,840.42347 c -1.35281,1.66272 -3.48015,2.61865 -4.01476,5.09691 -0.99823,4.18585 -0.37044,8.62244 -1.07892,12.86375 -0.0612,2.48107 -0.50042,5.28466 0.7931,7.43229 1.66454,2.66635 4.48112,4.31918 7.21951,3.81594 2.12803,-0.83124 3.1493,-3.80558 2.99373,-6.38556 0.58619,-5.76267 1.41052,-11.70013 0.24665,-17.43968 -0.57357,-2.91323 -2.81726,-5.34646 -5.30265,-5.24683 -0.28673,-0.0328 -0.57354,-0.0705 -0.85666,-0.13679 z"
           style="fill:#0b0b28;stroke:#000000;stroke-width:0.19200477;stroke-linecap:butt;stroke-linejoin:miter;stroke-miterlimit:4;stroke-dasharray:none;stroke-opacity:1" />
        <path
           style="fill:#0b0b28;stroke:#000000;stroke-width:0.20109792;stroke-linecap:butt;stroke-linejoin:miter;stroke-miterlimit:4;stroke-dasharray:none;stroke-opacity:1"
           d="m 126.51083,840.06059 c -1.46578,1.68337 -3.77073,2.65118 -4.35001,5.16022 -1.08156,4.23786 -0.40136,8.72957 -1.169,13.02358 -0.0663,2.51189 -0.5422,5.35031 0.85933,7.52462 1.80352,2.69948 4.8553,4.37284 7.82234,3.86335 2.3057,-0.84157 3.41223,-3.85286 3.24372,-6.46489 0.63511,-5.83427 1.52827,-11.84549 0.26722,-17.65635 -0.62145,-2.94943 -3.0525,-5.41289 -5.74543,-5.31202 -0.31066,-0.0332 -0.62142,-0.0713 -0.92817,-0.13849 z"
           id="path6734"
           inkscape:connector-curvature="0" />
        <ellipse
           transform="matrix(0.36719216,0,0,0.38035553,229.97342,687.27728)"
           id="path6736"
           style="fill:#aa87de;fill-opacity:1;stroke:none"
           cx="-271.73105"
           cy="423.03714"
           rx="5.0507627"
           ry="11.111678" />
        <ellipse
           style="fill:#aa87de;fill-opacity:1;stroke:none"
           id="path6738"
           transform="matrix(0.36719216,0,0,0.38035553,243.01188,687.64017)"
           cx="-271.73105"
           cy="423.03714"
           rx="5.0507627"
           ry="11.111678" />
        <path
           sodipodi:nodetypes="cccccc"
           inkscape:connector-curvature="0"
           id="path6740"
           d="m 114.09243,800.48982 c -12.16838,-6.46671 -39.922075,-6.44153 -56.949807,5.67596 -13.929073,10.46476 -22.156995,32.05888 -21.852026,49.53797 -1.469121,8.09351 15.76593,29.63429 16.779517,25.33985 -12.089498,-15.61999 -13.028496,-47.08536 -0.599786,-61.22391 13.279916,-24.86954 45.70636,-22.60738 62.622102,-19.32987 z"
           style="fill:#7a6f91;fill-opacity:1;stroke:none" />
        <path
           sodipodi:nodetypes="ccccc"
           inkscape:connector-curvature="0"
           id="path6742"
           d="m 97.253424,816.6696 c -22.392479,2.48791 -26.653791,14.97133 -28.246864,25.65542 -2.792091,10.91804 1.222737,25.81562 13.467458,28.70402 10.326807,2.4454 -3.658256,-7.68694 -3.326425,-12.30724 -4.02842,-16.11394 9.913975,-31.75406 18.105831,-42.0522 z"
           style="fill:#ffffff;fill-opacity:0.65882353;stroke:none" />
        <ellipse
           transform="matrix(0.41666667,0,0,1,90.822512,719.53409)"
           id="path6744"
           style="fill:#ffffff;fill-opacity:1;stroke:none"
           cx="126.28429"
           cy="127.43235"
           rx="2.1773155"
           ry="1.8144295" />
        <ellipse
           style="fill:#ffffff;fill-opacity:1;stroke:none"
           id="path6746"
           transform="matrix(0.41666667,0,0,1,77.758619,719.53409)"
           cx="126.28429"
           cy="127.43235"
           rx="2.1773155"
           ry="1.8144295" />
        <path
           sodipodi:nodetypes="cccccccc"
           inkscape:connector-curvature="0"
           id="path6748"
           d="m 92.868532,882.61797 c -5.939958,6.103 -6.65355,7.82824 -4.3773,12.69515 11.444745,9.26888 25.836268,3.66431 39.101178,4.06211 5.44017,-0.0102 12.54688,-3.10725 14.62177,-8.49951 1.43349,-3.41199 0.88485,-7.55308 -1.48507,-10.37357 -2.92127,-3.9772 -7.71334,-5.62886 -12.23511,-6.67357 -15.53028,-3.82674 -23.06577,1.32639 -34.918361,8.08231 z"
           style="fill:#ff9f39;fill-opacity:1;stroke:#000000;stroke-width:1.56960642;stroke-linecap:butt;stroke-linejoin:miter;stroke-miterlimit:4;stroke-dasharray:none;stroke-opacity:1" />
        <path
           sodipodi:nodetypes="ccccc"
           inkscape:connector-curvature="0"
           id="path6750"
           d="m 94.352079,887.437 c 2.800207,-1.48803 0.162247,-0.55831 0.162247,-0.55831 0.47755,8.78707 12.538944,12.07223 26.053004,12.24306 1.48183,0.67284 3.18777,2.4287 1.63547,1.31927 -15.79943,-1.0054 -28.649516,-3.76254 -27.850721,-13.00402 z"
           style="fill:#000000;stroke:#000000;stroke-width:0;stroke-linecap:butt;stroke-linejoin:miter;stroke-miterlimit:4;stroke-dasharray:none;stroke-opacity:1" />
        <path
           style="fill:#fde00c;fill-opacity:0.65700486;stroke:none"
           d="m 140.74376,890.22676 c -2.17077,11.20197 -40.58577,11.67624 -44.769801,-7.62803 20.474151,-15.54479 48.164501,-7.25003 44.769801,7.62803 z"
           id="path6752"
           inkscape:connector-curvature="0"
           sodipodi:nodetypes="ccc" />
        <path
           sodipodi:nodetypes="cccc"
           inkscape:connector-curvature="0"
           id="path6754"
           d="m 106.29664,877.27306 c 5.4545,2.41607 17.57432,-4.83362 30.89376,4.56721 1.96382,-0.009 -2.93175,-3.92454 -3.54836,-4.18608 -11.45092,-4.96921 -17.60181,-2.9809 -27.3454,-0.38113 z"
           style="fill:#fdf90c;fill-opacity:0.65882353;stroke:none" />
        <path
           sodipodi:nodetypes="ccc"
           inkscape:connector-curvature="0"
           id="path6756"
           d="m 91.714747,885.80731 c -6.511783,8.61388 3.22071,12.76079 6.560212,10.84357 -4.718213,-0.0144 -7.027015,-5.36871 -6.560212,-10.84357 z"
           style="opacity:0.44392527;fill:#ffdb00;fill-opacity:1;stroke:none" />
      </g>
    </g>
  </g>
</svg>
