<?xml version="1.0" encoding="UTF-8" standalone="no"?>
<!-- Created with Inkscape (http://www.inkscape.org/) -->

<svg
   xmlns:dc="http://purl.org/dc/elements/1.1/"
   xmlns:cc="http://creativecommons.org/ns#"
   xmlns:rdf="http://www.w3.org/1999/02/22-rdf-syntax-ns#"
   xmlns:svg="http://www.w3.org/2000/svg"
   xmlns="http://www.w3.org/2000/svg"
   xmlns:sodipodi="http://sodipodi.sourceforge.net/DTD/sodipodi-0.dtd"
   xmlns:inkscape="http://www.inkscape.org/namespaces/inkscape"
   width="250"
   height="250"
   viewBox="0 0 66.145831 66.145835"
   version="1.1"
   id="svg1537"
   sodipodi:docname="Tux_junior-3.svg"
   inkscape:version="0.92.5 (2060ec1f9f, 2020-04-08)">
  <defs
     id="defs1531" />
  <sodipodi:namedview
     id="base"
     pagecolor="#ffffff"
     bordercolor="#666666"
     borderopacity="1.0"
     inkscape:pageopacity="0.0"
     inkscape:pageshadow="2"
     inkscape:zoom="0.48118658"
     inkscape:cx="-286.42316"
     inkscape:cy="560"
     inkscape:document-units="mm"
     inkscape:current-layer="layer1"
     showgrid="false"
     units="px"
     inkscape:window-width="1920"
     inkscape:window-height="1043"
     inkscape:window-x="1920"
     inkscape:window-y="0"
     inkscape:window-maximized="1" />
  <metadata
     id="metadata1534">
    <rdf:RDF>
      <cc:Work
         rdf:about="">
        <dc:format>image/svg+xml</dc:format>
        <dc:type
           rdf:resource="http://purl.org/dc/dcmitype/StillImage" />
        <dc:title />
      </cc:Work>
    </rdf:RDF>
  </metadata>
  <g
     inkscape:label="Calque 1"
     inkscape:groupmode="layer"
     id="layer1"
     transform="translate(0,-230.85415)">
    <rect
       style="opacity:1;fill:#ffffff;fill-opacity:1;stroke:#000000;stroke-width:0;stroke-miterlimit:4;stroke-dasharray:none;stroke-opacity:1"
       id="rect5827"
       width="66.145836"
       height="66.145836"
       x="-1.2715658e-06"
       y="230.85414" />
    <g
       id="g3485"
       transform="translate(11.190366,109.61955)">
      <path
         inkscape:connector-curvature="0"
         id="path8681"
         d="m 10.776778,165.80753 c 0.791242,0.23246 1.757886,0.78626 1.839172,1.91553 0.156281,1.12858 -0.492773,2.3916 -1.44534,2.52902 -0.61687,0.38555 -0.509386,0.30012 -0.195617,0.9112 2.180868,1.60798 3.559998,3.57179 3.693803,6.11412 -0.12777,1.21627 -0.513842,2.74908 -1.577951,2.91854 -1.724739,0.82648 -3.4145246,0.92573 -5.1411266,0.32213 -3.0043227,-3.1578 -3.8249702,-4.35179 -3.8451579,-8.35279 -0.055856,-2.77759 -1.3008954,-10.22019 2.5916599,-11.04363 0.9677242,0.003 2.0374372,-0.24011 2.8844505,0.51009 0.8160861,0.6258 1.1925141,1.79171 1.3382391,2.90775 0.09168,0.41772 0.178559,0.96197 -0.142132,1.26804 z"
         style="display:inline;fill:#ffb124;fill-opacity:1;stroke:#000000;stroke-width:0.49439499;stroke-linecap:butt;stroke-linejoin:miter;stroke-miterlimit:4;stroke-dasharray:none;stroke-opacity:1"
         sodipodi:nodetypes="cccccccccccc" />
      <path
         sodipodi:nodetypes="ccccccc"
         inkscape:connector-curvature="0"
         id="path8683"
         d="m 4.7414892,174.95378 c 0.5969609,1.77117 2.6796446,4.82065 4.1863779,5.432 0.1927331,-0.4145 5.0820769,0.60674 5.1808639,-2.72754 -1.226333,1.61198 -3.900177,3.01038 -5.5911215,2.0184 -4.7142983,-2.76555 -4.6614107,-13.8866 -3.0506328,-17.06483 -0.3821853,-0.11491 -0.5755428,0.48009 -0.9543044,1.15033 -1.0145262,2.13638 -0.1887167,8.35025 0.2288169,11.19164 z"
         style="display:inline;fill:#fde00c;fill-opacity:0.65882353;stroke:none;stroke-width:0.26458332" />
      <path
         style="display:inline;opacity:0.28971965;fill:#ff6600;stroke:none;stroke-width:0.26458332"
         d="m 7.1870516,162.04216 c -1.6455761,-0.60637 -2.0842817,2.38424 -2.0164611,3.16969 -1.1538373,9.86168 2.1554044,13.834 4.8461715,14.44429 1.106536,0.47151 3.872196,-1.19338 3.638661,-1.94101 0.425752,-0.6395 0.181449,-3.18233 -0.569176,-3.84736 -0.620522,-0.90448 -1.863305,-1.74292 -2.792087,-2.6353 -0.5808059,-0.34145 0.112924,-1.35475 0.158771,-1.77165 1.669018,0.1162 2.512928,-2.12873 -1.3331907,-3.17815 0.4581895,-0.41767 1.3109757,-2.01128 0.9760927,-2.63755 -0.3456594,-1.90633 -2.1881649,-2.10971 -2.9087814,-1.60296 z"
         id="path8685"
         inkscape:connector-curvature="0"
         sodipodi:nodetypes="cccccccccc" />
      <g
         id="g8667"
         transform="matrix(0.23053051,0.12984616,-0.12984616,0.23053051,47.251532,-157.96122)"
         style="display:inline">
        <path
           style="fill:#000000;stroke:#000000;stroke-width:1px;stroke-linecap:butt;stroke-linejoin:miter;stroke-opacity:1"
           d="m 519.86454,1072.9889 c 6.72532,19.6402 28.95982,24.4878 44.16622,23.3519 15.69792,-7.4547 12.63663,-26.7523 1.21016,-29.3566 -13.30558,-6.7033 -25.78018,-8.8243 -40.20361,-7.0008 -13.26566,4.0552 -6.60097,5.6785 -5.17277,13.0055 z"
           id="path8669"
           inkscape:connector-curvature="0"
           sodipodi:nodetypes="ccccc" />
        <path
           style="fill:#7a6f91;fill-opacity:1;stroke:#000000;stroke-width:1px;stroke-linecap:butt;stroke-linejoin:miter;stroke-opacity:1"
           d="m 572.83593,1085.285 c -6.22561,12.1709 -17.21087,8.2134 -22.08067,7.7036 -2.02054,-0.5443 -4.53732,-1.0509 -0.99191,-0.5843 10.86966,-1.232 18.77155,-7.9514 16.43659,-23.0165 8.25824,4.5881 8.97633,9.2455 6.63599,15.8972 z"
           id="path8671"
           inkscape:connector-curvature="0"
           sodipodi:nodetypes="ccccc" />
      </g>
      <g
         transform="matrix(0.26458333,0,0,0.26458333,-214.8819,-159.10718)"
         id="g8461"
         style="display:inline">
        <path
           sodipodi:nodetypes="ccccccccc"
           inkscape:connector-curvature="0"
           id="path8463"
           d="m 849.6679,1190.9311 c 1.94718,-5.7864 14.96934,-28.0412 19.37378,-32.1369 18.53139,8.2271 40.74809,4.034 59.04369,11.3375 3.16393,1.3054 1.42569,15.889 2.41727,19.6588 12.52812,14.7689 23.54669,25.3431 22.11172,47.838 -0.0251,4.2825 -6.32462,14.5326 -11.58441,18.0245 -4.66676,3.5362 -25.9901,5.7565 -29.39463,7.5473 -16.03517,0.8793 -46.88969,-1.9135 -61.55665,-24.9683 -7.45488,-7.5977 -4.99077,-35.7127 -0.41077,-47.3009 z"
           style="fill:#1a1a1a;stroke:#000000;stroke-width:0.19063042;stroke-linecap:butt;stroke-linejoin:miter;stroke-miterlimit:4;stroke-dasharray:none;stroke-opacity:1" />
        <path
           sodipodi:nodetypes="cccccc"
           inkscape:connector-curvature="0"
           id="path8465"
           d="m 896.06275,1174.3396 c 2.16915,26.7574 -22.74129,52.2918 -3.83097,71.6807 12.95437,6.6305 35.27454,7.9043 45.71853,-3.2735 3.24862,0.9651 8.66051,-38.8179 -11.43132,-44.9452 -1.43905,-5.6687 1.93034,-6.7469 0.34129,-13.7473 -8.81617,1.0264 -17.96245,-4.1056 -30.79753,-9.7147 z"
           style="fill:#d5f6ff;stroke:#000000;stroke-width:0.39270291px;stroke-linecap:butt;stroke-linejoin:miter;stroke-opacity:1" />
        <path
           style="fill:#ffffff;stroke:none"
           d="m 897.34715,1175.6459 c 1.83453,2.7085 -1.39876,6.1546 -0.29435,1.109 0.71754,3.8792 0.004,9.8965 0.33733,14.5957 0.79855,10.941 -14.21614,37.7476 -6.19399,46.3168 2.07112,1.9733 5.86502,4.1596 5.2239,-1.107 -1.82027,-20.8978 1.05664,-33.5254 5.00336,-51.4797 0.95151,-4.205 -2.0448,-6.5606 -4.07627,-9.4348 z"
           id="path8467"
           inkscape:connector-curvature="0"
           sodipodi:nodetypes="cccccccc" />
        <path
           style="fill:#f8efff;fill-opacity:1;stroke:#000000;stroke-width:0.39270291px;stroke-linecap:butt;stroke-linejoin:miter;stroke-opacity:1"
           d="m 902.06275,1179.3396 c 2.16915,26.7574 -29.81236,54.0595 -10.90204,73.4484 12.95437,6.6305 51.53799,6.8437 54.20381,-5.7483 8.90548,-5.3989 5.83209,-31.7469 -10.0171,-48.1272 -0.73194,-2.8403 -4.43362,-4.9791 -7.79044,-9.8582 -8.81617,1.0264 -12.65915,-4.1056 -25.49423,-9.7147 z"
           id="path8469"
           inkscape:connector-curvature="0"
           sodipodi:nodetypes="cccccc" />
        <path
           sodipodi:nodetypes="cccccc"
           inkscape:connector-curvature="0"
           id="path8471"
           d="m 896.06275,1174.3396 c 2.16915,26.7574 -24.50906,54.7666 -5.59874,74.1555 10.12595,5.9234 32.79967,4.3688 34.75838,-2.9198 1.1273,-10.3487 8.66051,-38.818 -11.43132,-44.9452 -1.43905,-5.6688 1.93034,-6.7469 0.34129,-13.7474 -8.81617,1.0264 -5.23453,-6.934 -18.06961,-12.5431 z"
           style="fill:#ffffff;fill-opacity:1;stroke:none" />
      </g>
      <g
         transform="matrix(0.26458333,0,0,0.26458333,-113.11432,-77.861444)"
         id="g8673"
         style="display:inline">
        <path
           inkscape:connector-curvature="0"
           id="path8675"
           d="m 504.12924,953.6477 c 0.90636,-3.22153 3.0333,-7.14954 7.30401,-7.44911 4.27077,-0.60555 9.02133,2.07831 9.50729,5.96854 1.43538,2.52763 5.25376,2.05183 7.57424,0.78909 2.95497,-1.7606 6.16948,-3.143 9.66346,-3.87466 5.43976,-1.15631 11.14422,-1.93746 16.72262,-1.34752 4.59223,0.5558 9.39414,3.21264 9.9973,7.55882 0.67329,3.38269 0.66376,6.8457 1.25891,10.23539 0.19368,4.45096 -1.59869,9.78449 -6.62923,11.70129 -4.48137,1.10478 -9.16697,0.23214 -13.72749,0.73754 -7.8202,0.24082 -15.64749,0.73458 -23.47081,0.42662 -4.1034,-1.25664 -8.21029,1.67182 -12.32114,0.48204 -6.32784,-0.65302 -12.73499,-1.00932 -19.10177,-0.48056 -4.20467,-0.64099 -5.09021,-5.09248 -4.63011,-8.23258 0.0387,-3.9481 -0.83584,-8.31919 2.02908,-11.75355 2.39376,-3.31172 6.81327,-4.8144 11.03631,-5.37722 1.58193,-0.36216 3.64185,-0.70118 4.78733,0.61587 z"
           style="fill:#ffb339;fill-opacity:1;stroke:#000000;stroke-width:2.05752516;stroke-linecap:butt;stroke-linejoin:miter;stroke-miterlimit:4;stroke-dasharray:none;stroke-opacity:1" />
        <path
           style="fill:#fde00c;fill-opacity:0.65882353;stroke:none"
           d="m 562.31033,955.38235 c 1.38424,1.7557 5.28091,15.906 -2.32932,20.2734 -3.25764,2.3825 -61.86285,0.833 -68.92918,0.9827 -2.86964,-1.6159 -3.75077,-11.208 -1.21337,-14.7835 1.2687,-1.7878 8.01883,-6.1993 12.89926,-4.7493 3.48253,4.295 3.7875,4.8914 4.3015,2.2622 1.50964,-7.7221 8.48554,-13.79571 13.51153,-3.0885 6.24169,6.7175 23.13559,-12.78083 41.75958,-0.897 z"
           id="path8677"
           inkscape:connector-curvature="0"
           sodipodi:nodetypes="cccscscc" />
        <path
           inkscape:connector-curvature="0"
           id="path8679"
           d="m 524.34627,958.05047 c 6.70568,-6.3049 23.45708,-6.7821 29.30693,-6.6066 2.52803,-0.3566 10.25816,2.1326 8.72547,8.6503 -3.87675,0.5305 -7.66327,-2.4899 -11.6636,-2.5685 -2.1655,-0.1624 -23.88843,1.7491 -26.3688,0.5248 z"
           style="fill:#fdf90c;fill-opacity:0.65882353;stroke:none"
           sodipodi:nodetypes="ccccc" />
      </g>
      <g
         id="g8687"
         transform="matrix(0.15787773,-0.21231807,0.21231807,0.15787773,-285.15371,85.908747)"
         style="display:inline">
        <g
           id="g8689"
           transform="matrix(0.69433672,1.2671155,-1.3713953,0.75147856,1786.2397,-444.59003)"
           style="fill:#000000">
          <path
             style="fill:#000000;stroke:#000000;stroke-width:0.43743804px;stroke-linecap:butt;stroke-linejoin:miter;stroke-opacity:1"
             d="m 471.85629,1192.6554 c -2.91334,14.9727 -11.50424,30.8342 -5.33917,46.0442 11.28434,14.336 29.07916,-5.2565 21.78325,-19.1341 -0.17395,-11.2628 -3.1653,-26.1701 -16.44408,-26.9101 z"
             id="path8691"
             inkscape:connector-curvature="0" />
        </g>
        <path
           style="fill:#6f6f91;fill-opacity:1;stroke:none"
           d="m 412.47151,1086.4257 c -1.0619,11.8439 18.56155,14.5173 30.60064,11.1341 14.63672,-4.0796 28.46329,-20.9923 33.47724,-28.3259 2.38866,-1.1435 7.13687,-12.3866 3.10381,-11.5725 -3.1187,0.6228 -3.1642,10.2047 -5.74894,11.8002 -5.67782,12.4032 -23.4131,18.5158 -36.46353,22.1897 -7.78324,1.7712 -17.96199,0.6624 -24.96922,-5.2256 z"
           id="path8693"
           inkscape:connector-curvature="0"
           sodipodi:nodetypes="ccccccc" />
        <path
           style="fill:none;stroke:#d989eb;stroke-width:1px;stroke-linecap:butt;stroke-linejoin:miter;stroke-opacity:0.77777782"
           d="m 448.86966,1057.6492 c -34.28767,8.555 -40.09756,21.1885 -39.37831,28.8651 1.38641,8.006 5.40834,11.5353 8.34657,12.5286 5.95704,2.0139 28.86801,11.5329 55.98432,-25.9407"
           id="path8695"
           inkscape:connector-curvature="0"
           sodipodi:nodetypes="ccsc" />
      </g>
      <g
         transform="matrix(0.26458333,0,0,0.26458333,-0.42664596,-82.501633)"
         id="g8491"
         style="display:inline">
        <g
           id="g8493"
           style="display:inline">
          <path
             style="fill:#000000;stroke:#000000;stroke-width:0.19063042;stroke-linecap:butt;stroke-linejoin:miter;stroke-miterlimit:4;stroke-dasharray:none;stroke-opacity:1"
             d="m 54.745204,893.08613 c -19.670925,-10.8331 -29.062091,-37.68025 -20.682741,-59.07034 4.46137,-14.25394 13.158284,-28.41647 27.162522,-34.07071 14.512845,-7.0087 31.355935,-10.01222 46.929015,-5.14811 14.97135,4.31539 27.74105,15.77991 33.88175,30.58705 7.51342,16.91083 8.49027,37.72032 -0.11986,54.38872 -10.07431,16.79846 -29.4643,25.78875 -48.104894,26.4243 -10.358028,0.46231 -20.26579,-3.04582 -29.761555,-6.89611 -4.668727,-1.71339 -9.38122,-3.77057 -13.013475,-7.36746"
             id="path8495"
             inkscape:connector-curvature="0" />
          <path
             style="fill:#cc91cc;fill-opacity:1;stroke:#000000;stroke-width:1.86857915;stroke-linecap:butt;stroke-linejoin:miter;stroke-miterlimit:4;stroke-dasharray:none;stroke-opacity:1"
             d="m 131.89659,812.40054 c -20.83671,-2.47935 -56.051819,-5.39886 -65.114023,15.72677 -6.834216,15.77745 -8.201198,38.52669 8.396721,46.58406 9.177056,4.90656 19.710482,5.99243 29.881782,6.07798 6.4473,-0.77343 12.70317,-3.37976 19.28463,-2.68429 6.93378,-0.19897 12.4483,0.26418 17.57338,-5.04358 11.31501,-18.63644 1.13975,-49.478 -10.02249,-60.66094 z"
             id="path8497"
             inkscape:connector-curvature="0"
             sodipodi:nodetypes="ccccccc" />
          <path
             style="fill:#f8efff;fill-opacity:1;stroke:none"
             d="m 65.423024,844.11617 c -5.253844,24.81212 18.89439,38.75102 38.800486,33.32209 10.57688,-6.08608 17.48202,-6.86494 33.27367,-1.67502 14.18798,-10.95732 8.54176,-48.81712 -6.44693,-60.79011 -13.61021,-1.59702 -62.153709,-10.88147 -65.627226,29.14304 z"
             id="path8499"
             inkscape:connector-curvature="0"
             sodipodi:nodetypes="ccccc" />
          <path
             style="fill:#0b0b28;stroke:#000000;stroke-width:0.19200477;stroke-linecap:butt;stroke-linejoin:miter;stroke-miterlimit:4;stroke-dasharray:none;stroke-opacity:1"
             d="m 140.55139,840.42347 c -1.35281,1.66272 -3.48015,2.61865 -4.01476,5.09691 -0.99823,4.18585 -0.37044,8.62244 -1.07892,12.86375 -0.0612,2.48107 -0.50042,5.28466 0.7931,7.43229 1.66454,2.66635 4.48112,4.31918 7.21951,3.81594 2.12803,-0.83124 3.1493,-3.80558 2.99373,-6.38556 0.58619,-5.76267 1.41052,-11.70013 0.24665,-17.43968 -0.57357,-2.91323 -2.81726,-5.34646 -5.30265,-5.24683 -0.28673,-0.0328 -0.57354,-0.0705 -0.85666,-0.13679 z"
             id="path8501"
             inkscape:connector-curvature="0" />
          <path
             inkscape:connector-curvature="0"
             id="path8503"
             d="m 126.51083,840.06059 c -1.46578,1.68337 -3.77073,2.65118 -4.35001,5.16022 -1.08156,4.23786 -0.40136,8.72957 -1.169,13.02358 -0.0663,2.51189 -0.5422,5.35031 0.85933,7.52462 1.80352,2.69948 4.8553,4.37284 7.82234,3.86335 2.3057,-0.84157 3.41223,-3.85286 3.24372,-6.46489 0.63511,-5.83427 1.52827,-11.84549 0.26722,-17.65635 -0.62145,-2.94943 -3.0525,-5.41289 -5.74543,-5.31202 -0.31066,-0.0332 -0.62142,-0.0713 -0.92817,-0.13849 z"
             style="fill:#0b0b28;stroke:#000000;stroke-width:0.20109792;stroke-linecap:butt;stroke-linejoin:miter;stroke-miterlimit:4;stroke-dasharray:none;stroke-opacity:1" />
          <ellipse
             style="fill:#aa87de;fill-opacity:1;stroke:none"
             id="path8505"
             transform="matrix(0.36719216,0,0,0.38035553,229.97342,687.27728)"
             cx="-271.73105"
             cy="423.03714"
             rx="5.0507627"
             ry="11.111678" />
          <ellipse
             transform="matrix(0.36719216,0,0,0.38035553,243.01188,687.64017)"
             id="path8507"
             style="fill:#aa87de;fill-opacity:1;stroke:none"
             cx="-271.73105"
             cy="423.03714"
             rx="5.0507627"
             ry="11.111678" />
          <path
             style="fill:#7a6f91;fill-opacity:1;stroke:none"
             d="m 114.09243,800.48982 c -12.16838,-6.46671 -39.922075,-6.44153 -56.949807,5.67596 -13.929073,10.46476 -22.156995,32.05888 -21.852026,49.53797 -1.469121,8.09351 15.76593,29.63429 16.779517,25.33985 -12.089498,-15.61999 -13.028496,-47.08536 -0.599786,-61.22391 13.279916,-24.86954 45.70636,-22.60738 62.622102,-19.32987 z"
             id="path8509"
             inkscape:connector-curvature="0"
             sodipodi:nodetypes="cccccc" />
          <path
             style="fill:#ffffff;fill-opacity:0.65882353;stroke:none"
             d="m 97.253424,816.6696 c -22.392479,2.48791 -26.653791,14.97133 -28.246864,25.65542 -2.792091,10.91804 1.222737,25.81562 13.467458,28.70402 10.326807,2.4454 -3.658256,-7.68694 -3.326425,-12.30724 -4.02842,-16.11394 9.913975,-31.75406 18.105831,-42.0522 z"
             id="path8511"
             inkscape:connector-curvature="0"
             sodipodi:nodetypes="ccccc" />
          <ellipse
             style="fill:#ffffff;fill-opacity:1;stroke:none"
             id="path8513"
             transform="matrix(0.41666667,0,0,1,90.822512,719.53409)"
             cx="126.28429"
             cy="127.43235"
             rx="2.1773155"
             ry="1.8144295" />
          <ellipse
             transform="matrix(0.41666667,0,0,1,77.758619,719.53409)"
             id="path8515"
             style="fill:#ffffff;fill-opacity:1;stroke:none"
             cx="126.28429"
             cy="127.43235"
             rx="2.1773155"
             ry="1.8144295" />
          <path
             style="fill:#ff9f39;fill-opacity:1;stroke:#000000;stroke-width:1.56960642;stroke-linecap:butt;stroke-linejoin:miter;stroke-miterlimit:4;stroke-dasharray:none;stroke-opacity:1"
             d="m 92.868532,882.61797 c -5.939958,6.103 -6.65355,7.82824 -4.3773,12.69515 11.444745,9.26888 25.836268,3.66431 39.101178,4.06211 5.44017,-0.0102 12.54688,-3.10725 14.62177,-8.49951 1.43349,-3.41199 0.88485,-7.55308 -1.48507,-10.37357 -2.92127,-3.9772 -7.71334,-5.62886 -12.23511,-6.67357 -15.53028,-3.82674 -23.06577,1.32639 -34.918361,8.08231 z"
             id="path8517"
             inkscape:connector-curvature="0"
             sodipodi:nodetypes="cccccccc" />
          <path
             style="fill:#000000;stroke:#000000;stroke-width:0;stroke-linecap:butt;stroke-linejoin:miter;stroke-miterlimit:4;stroke-dasharray:none;stroke-opacity:1"
             d="m 94.352079,887.437 c 2.800207,-1.48803 0.162247,-0.55831 0.162247,-0.55831 0.47755,8.78707 12.538944,12.07223 26.053004,12.24306 1.48183,0.67284 3.18777,2.4287 1.63547,1.31927 -15.79943,-1.0054 -28.649516,-3.76254 -27.850721,-13.00402 z"
             id="path8519"
             inkscape:connector-curvature="0"
             sodipodi:nodetypes="ccccc" />
          <path
             sodipodi:nodetypes="ccc"
             inkscape:connector-curvature="0"
             id="path8521"
             d="m 140.74376,890.22676 c -2.17077,11.20197 -40.58577,11.67624 -44.769801,-7.62803 20.474151,-15.54479 48.164501,-7.25003 44.769801,7.62803 z"
             style="fill:#fde00c;fill-opacity:0.65700486;stroke:none" />
          <path
             style="fill:#fdf90c;fill-opacity:0.65882353;stroke:none"
             d="m 106.29664,877.27306 c 5.4545,2.41607 17.57432,-4.83362 30.89376,4.56721 1.96382,-0.009 -2.93175,-3.92454 -3.54836,-4.18608 -11.45092,-4.96921 -17.60181,-2.9809 -27.3454,-0.38113 z"
             id="path8523"
             inkscape:connector-curvature="0"
             sodipodi:nodetypes="cccc" />
          <path
             style="opacity:0.44392527;fill:#ffdb00;fill-opacity:1;stroke:none"
             d="m 91.714747,885.80731 c -6.511783,8.61388 3.22071,12.76079 6.560212,10.84357 -4.718213,-0.0144 -7.027015,-5.36871 -6.560212,-10.84357 z"
             id="path8525"
             inkscape:connector-curvature="0"
             sodipodi:nodetypes="ccc" />
        </g>
        <path
           inkscape:connector-curvature="0"
           id="path8527"
           d="m 54.745204,893.08613 c -19.670925,-10.8331 -29.062091,-37.68025 -20.682741,-59.07034 4.46137,-14.25394 13.158284,-28.41647 27.162522,-34.07071 14.512845,-7.0087 31.355935,-10.01222 46.929015,-5.14811 14.97135,4.31539 27.74105,15.77991 33.88175,30.58705 7.51342,16.91083 8.49027,37.72032 -0.11986,54.38872 -10.07431,16.79846 -29.4643,25.78875 -48.104894,26.4243 -10.358028,0.46231 -20.26579,-3.04582 -29.761555,-6.89611 -4.668727,-1.71339 -9.38122,-3.77057 -13.013475,-7.36746"
           style="fill:#000000;stroke:#000000;stroke-width:0.19063042;stroke-linecap:butt;stroke-linejoin:miter;stroke-miterlimit:4;stroke-dasharray:none;stroke-opacity:1" />
        <path
           sodipodi:nodetypes="ccccccc"
           inkscape:connector-curvature="0"
           id="path8529"
           d="m 131.89659,812.40054 c -20.83671,-2.47935 -56.051819,-5.39886 -65.114023,15.72677 -6.834216,15.77745 -8.201198,38.52669 8.396721,46.58406 9.177056,4.90656 19.710482,5.99243 29.881782,6.07798 6.4473,-0.77343 12.70317,-3.37976 19.28463,-2.68429 6.93378,-0.19897 12.4483,0.26418 17.57338,-5.04358 11.31501,-18.63644 1.13975,-49.478 -10.02249,-60.66094 z"
           style="fill:#cc91cc;fill-opacity:1;stroke:#000000;stroke-width:1.86857915;stroke-linecap:butt;stroke-linejoin:miter;stroke-miterlimit:4;stroke-dasharray:none;stroke-opacity:1" />
        <path
           sodipodi:nodetypes="ccccc"
           inkscape:connector-curvature="0"
           id="path8531"
           d="m 65.423024,844.11617 c -5.253844,24.81212 18.89439,38.75102 38.800486,33.32209 10.57688,-6.08608 17.48202,-6.86494 33.27367,-1.67502 14.18798,-10.95732 8.54176,-48.81712 -6.44693,-60.79011 -13.61021,-1.59702 -62.153709,-10.88147 -65.627226,29.14304 z"
           style="fill:#f8efff;fill-opacity:1;stroke:none" />
        <path
           inkscape:connector-curvature="0"
           id="path8533"
           d="m 140.55139,840.42347 c -1.35281,1.66272 -3.48015,2.61865 -4.01476,5.09691 -0.99823,4.18585 -0.37044,8.62244 -1.07892,12.86375 -0.0612,2.48107 -0.50042,5.28466 0.7931,7.43229 1.66454,2.66635 4.48112,4.31918 7.21951,3.81594 2.12803,-0.83124 3.1493,-3.80558 2.99373,-6.38556 0.58619,-5.76267 1.41052,-11.70013 0.24665,-17.43968 -0.57357,-2.91323 -2.81726,-5.34646 -5.30265,-5.24683 -0.28673,-0.0328 -0.57354,-0.0705 -0.85666,-0.13679 z"
           style="fill:#0b0b28;stroke:#000000;stroke-width:0.19200477;stroke-linecap:butt;stroke-linejoin:miter;stroke-miterlimit:4;stroke-dasharray:none;stroke-opacity:1" />
        <path
           style="fill:#0b0b28;stroke:#000000;stroke-width:0.20109792;stroke-linecap:butt;stroke-linejoin:miter;stroke-miterlimit:4;stroke-dasharray:none;stroke-opacity:1"
           d="m 126.51083,840.06059 c -1.46578,1.68337 -3.77073,2.65118 -4.35001,5.16022 -1.08156,4.23786 -0.40136,8.72957 -1.169,13.02358 -0.0663,2.51189 -0.5422,5.35031 0.85933,7.52462 1.80352,2.69948 4.8553,4.37284 7.82234,3.86335 2.3057,-0.84157 3.41223,-3.85286 3.24372,-6.46489 0.63511,-5.83427 1.52827,-11.84549 0.26722,-17.65635 -0.62145,-2.94943 -3.0525,-5.41289 -5.74543,-5.31202 -0.31066,-0.0332 -0.62142,-0.0713 -0.92817,-0.13849 z"
           id="path8535"
           inkscape:connector-curvature="0" />
        <ellipse
           transform="matrix(0.36719216,0,0,0.38035553,229.97342,687.27728)"
           id="path8537"
           style="fill:#aa87de;fill-opacity:1;stroke:none"
           cx="-271.73105"
           cy="423.03714"
           rx="5.0507627"
           ry="11.111678" />
        <ellipse
           style="fill:#aa87de;fill-opacity:1;stroke:none"
           id="path8539"
           transform="matrix(0.36719216,0,0,0.38035553,243.01188,687.64017)"
           cx="-271.73105"
           cy="423.03714"
           rx="5.0507627"
           ry="11.111678" />
        <path
           sodipodi:nodetypes="cccccc"
           inkscape:connector-curvature="0"
           id="path8541"
           d="m 114.09243,800.48982 c -12.16838,-6.46671 -39.922075,-6.44153 -56.949807,5.67596 -13.929073,10.46476 -22.156995,32.05888 -21.852026,49.53797 -1.469121,8.09351 15.76593,29.63429 16.779517,25.33985 -12.089498,-15.61999 -13.028496,-47.08536 -0.599786,-61.22391 13.279916,-24.86954 45.70636,-22.60738 62.622102,-19.32987 z"
           style="fill:#7a6f91;fill-opacity:1;stroke:none" />
        <path
           sodipodi:nodetypes="ccccc"
           inkscape:connector-curvature="0"
           id="path8543"
           d="m 97.253424,816.6696 c -22.392479,2.48791 -26.653791,14.97133 -28.246864,25.65542 -2.792091,10.91804 1.222737,25.81562 13.467458,28.70402 10.326807,2.4454 -3.658256,-7.68694 -3.326425,-12.30724 -4.02842,-16.11394 9.913975,-31.75406 18.105831,-42.0522 z"
           style="fill:#ffffff;fill-opacity:0.65882353;stroke:none" />
        <ellipse
           transform="matrix(0.41666667,0,0,1,90.822512,719.53409)"
           id="path8545"
           style="fill:#ffffff;fill-opacity:1;stroke:none"
           cx="126.28429"
           cy="127.43235"
           rx="2.1773155"
           ry="1.8144295" />
        <ellipse
           style="fill:#ffffff;fill-opacity:1;stroke:none"
           id="path8547"
           transform="matrix(0.41666667,0,0,1,77.758619,719.53409)"
           cx="126.28429"
           cy="127.43235"
           rx="2.1773155"
           ry="1.8144295" />
        <path
           sodipodi:nodetypes="cccccccc"
           inkscape:connector-curvature="0"
           id="path8549"
           d="m 92.868532,882.61797 c -5.939958,6.103 -6.65355,7.82824 -4.3773,12.69515 11.444745,9.26888 25.836268,3.66431 39.101178,4.06211 5.44017,-0.0102 12.54688,-3.10725 14.62177,-8.49951 1.43349,-3.41199 0.88485,-7.55308 -1.48507,-10.37357 -2.92127,-3.9772 -7.71334,-5.62886 -12.23511,-6.67357 -15.53028,-3.82674 -23.06577,1.32639 -34.918361,8.08231 z"
           style="fill:#ff9f39;fill-opacity:1;stroke:#000000;stroke-width:1.56960642;stroke-linecap:butt;stroke-linejoin:miter;stroke-miterlimit:4;stroke-dasharray:none;stroke-opacity:1" />
        <path
           sodipodi:nodetypes="ccccc"
           inkscape:connector-curvature="0"
           id="path8551"
           d="m 94.352079,887.437 c 2.800207,-1.48803 0.162247,-0.55831 0.162247,-0.55831 0.47755,8.78707 12.538944,12.07223 26.053004,12.24306 1.48183,0.67284 3.18777,2.4287 1.63547,1.31927 -15.79943,-1.0054 -28.649516,-3.76254 -27.850721,-13.00402 z"
           style="fill:#000000;stroke:#000000;stroke-width:0;stroke-linecap:butt;stroke-linejoin:miter;stroke-miterlimit:4;stroke-dasharray:none;stroke-opacity:1" />
        <path
           style="fill:#fde00c;fill-opacity:0.65700486;stroke:none"
           d="m 140.74376,890.22676 c -2.17077,11.20197 -40.58577,11.67624 -44.769801,-7.62803 20.474151,-15.54479 48.164501,-7.25003 44.769801,7.62803 z"
           id="path8553"
           inkscape:connector-curvature="0"
           sodipodi:nodetypes="ccc" />
        <path
           sodipodi:nodetypes="cccc"
           inkscape:connector-curvature="0"
           id="path8555"
           d="m 106.29664,877.27306 c 5.4545,2.41607 17.57432,-4.83362 30.89376,4.56721 1.96382,-0.009 -2.93175,-3.92454 -3.54836,-4.18608 -11.45092,-4.96921 -17.60181,-2.9809 -27.3454,-0.38113 z"
           style="fill:#fdf90c;fill-opacity:0.65882353;stroke:none" />
        <path
           sodipodi:nodetypes="ccc"
           inkscape:connector-curvature="0"
           id="path8557"
           d="m 91.714747,885.80731 c -6.511783,8.61388 3.22071,12.76079 6.560212,10.84357 -4.718213,-0.0144 -7.027015,-5.36871 -6.560212,-10.84357 z"
           style="opacity:0.44392527;fill:#ffdb00;fill-opacity:1;stroke:none" />
      </g>
    </g>
  </g>
</svg>
