<?xml version="1.0" encoding="UTF-8" standalone="no"?>
<!-- Created with Inkscape (http://www.inkscape.org/) -->

<svg
   xmlns:dc="http://purl.org/dc/elements/1.1/"
   xmlns:cc="http://creativecommons.org/ns#"
   xmlns:rdf="http://www.w3.org/1999/02/22-rdf-syntax-ns#"
   xmlns:svg="http://www.w3.org/2000/svg"
   xmlns="http://www.w3.org/2000/svg"
   xmlns:sodipodi="http://sodipodi.sourceforge.net/DTD/sodipodi-0.dtd"
   xmlns:inkscape="http://www.inkscape.org/namespaces/inkscape"
   width="250"
   height="250"
   viewBox="0 0 66.145831 66.145835"
   version="1.1"
   id="svg1537"
   sodipodi:docname="Tux_junior-5.svg"
   inkscape:version="0.92.5 (2060ec1f9f, 2020-04-08)">
  <defs
     id="defs1531" />
  <sodipodi:namedview
     id="base"
     pagecolor="#ffffff"
     bordercolor="#666666"
     borderopacity="1.0"
     inkscape:pageopacity="0.0"
     inkscape:pageshadow="2"
     inkscape:zoom="1.9247463"
     inkscape:cx="77.520911"
     inkscape:cy="185.92473"
     inkscape:document-units="mm"
     inkscape:current-layer="layer1"
     showgrid="false"
     units="px"
     inkscape:window-width="1920"
     inkscape:window-height="1043"
     inkscape:window-x="1920"
     inkscape:window-y="0"
     inkscape:window-maximized="1" />
  <metadata
     id="metadata1534">
    <rdf:RDF>
      <cc:Work
         rdf:about="">
        <dc:format>image/svg+xml</dc:format>
        <dc:type
           rdf:resource="http://purl.org/dc/dcmitype/StillImage" />
        <dc:title />
      </cc:Work>
    </rdf:RDF>
  </metadata>
  <g
     inkscape:label="Calque 1"
     inkscape:groupmode="layer"
     id="layer1"
     transform="translate(0,-230.85415)">
    <rect
       style="opacity:1;fill:#ffffff;fill-opacity:1;stroke:#000000;stroke-width:0;stroke-miterlimit:4;stroke-dasharray:none;stroke-opacity:1"
       id="rect5827"
       width="66.145836"
       height="66.145836"
       x="-1.2715658e-06"
       y="230.85414" />
    <g
       id="g3943"
       transform="translate(-121.4726,105.06069)">
      <path
         sodipodi:nodetypes="ccccccccccc"
         style="display:inline;fill:#ffb339;fill-opacity:1;stroke:#000000;stroke-width:0.49439499;stroke-linecap:butt;stroke-linejoin:miter;stroke-miterlimit:4;stroke-dasharray:none;stroke-opacity:1"
         d="m 156.94684,174.1477 c 0.32962,-0.66564 0.99949,-1.44196 2.12834,-1.35914 1.13757,0.0167 2.30719,0.7615 2.32373,1.61994 0.30448,0.59647 1.31966,0.6255 1.96437,0.43254 2.12408,-0.59801 6.36074,-3.98251 9.13725,0.5412 0.20082,1.99978 0.19299,5.40084 -1.69407,5.78234 -6.85464,2.59186 -10.14368,2.882 -13.85245,1.41684 -1.08468,-0.284 -5.37125,-4.81438 -5.16104,-5.47782 0.12264,-0.85284 0.018,-1.82875 0.86733,-2.47275 0.72237,-0.63375 1.9245,-0.80608 3.04832,-0.78187 0.42529,-0.0238 0.97528,-0.0259 1.23822,0.29872 z"
         id="path3388"
         inkscape:connector-curvature="0" />
      <path
         inkscape:connector-curvature="0"
         id="path6890"
         d="m 161.31924,177.08212 c 1.49903,-1.91924 5.86005,-2.72 7.39683,-2.91015 0.64664,-0.19527 2.76841,0.14369 2.63064,1.90984 -0.99232,0.29517 -2.10431,-0.34184 -3.15351,-0.20098 -0.5728,0.0449 -6.17599,1.42134 -6.87396,1.20129 z"
         style="display:inline;fill:#fdf90c;fill-opacity:0.65882353;stroke:none;stroke-width:0.26458332"
         sodipodi:nodetypes="ccccc" />
      <path
         style="display:inline;fill:#1a1a1a;stroke:#000000;stroke-width:0.05043763;stroke-linecap:butt;stroke-linejoin:miter;stroke-miterlimit:4;stroke-dasharray:none;stroke-opacity:1"
         d="m 141.05261,160.49944 c 0.5152,-1.53098 3.96063,-7.41923 5.12598,-8.50289 4.9031,2.17676 10.78127,1.06733 15.62198,2.99972 0.83712,0.34538 0.37719,4.20396 0.63955,5.20139 3.31473,3.9076 6.23007,6.70536 5.85039,12.65713 -0.007,1.13308 -1.67338,3.84509 -3.06504,4.76898 -1.23473,0.93564 -6.87655,1.52308 -7.77732,1.9969 -4.24265,0.23264 -12.40623,-0.50628 -16.28685,-6.6062 -1.97244,-2.01022 -1.32048,-9.44898 -0.10869,-12.51503 z"
         id="path6775"
         inkscape:connector-curvature="0"
         sodipodi:nodetypes="ccccccccc" />
      <path
         sodipodi:nodetypes="cccccc"
         inkscape:connector-curvature="0"
         id="path6781"
         d="m 154.16065,157.05515 c 0.57393,7.07956 -7.88784,14.30326 -2.88449,19.43324 3.42752,1.75432 13.6361,1.81071 14.34142,-1.52093 2.35625,-1.42845 2.48653,-8.58837 -4.63158,-14.80921 0.37243,-1.4119 0.14777,-3.58165 -0.08,-4.58954 -2.33262,0.27157 -3.34941,2.97051 -6.74537,1.48644 z"
         style="display:inline;fill:#f8efff;fill-opacity:1;stroke:#000000;stroke-width:0.10390265px;stroke-linecap:butt;stroke-linejoin:miter;stroke-opacity:1" />
      <path
         style="display:inline;fill:#ffffff;fill-opacity:1;stroke:none;stroke-width:0.26458332"
         d="m 154.46003,157.8078 c 0.57393,7.07956 -7.33378,13.45256 -2.33043,18.58254 2.67915,1.56723 8.67826,1.1559 9.1965,-0.77255 0.29826,-2.73809 1.34797,-11.40272 -2.08109,-13.30691 -0.38076,-1.49987 -0.24402,-3.20027 -0.66447,-5.05249 -1.20047,0.74329 -3.08316,0.9957 -4.12051,0.54941 z"
         id="path6783"
         inkscape:connector-curvature="0"
         sodipodi:nodetypes="cccccc" />
      <g
         style="display:inline;fill:#000000"
         transform="matrix(0.31499569,-0.21662117,0.23444845,0.34091891,-285.06575,-148.41378)"
         id="g6785">
        <path
           inkscape:connector-curvature="0"
           id="path6787"
           d="m 471.85629,1192.6554 c -2.91334,14.9727 -11.50424,30.8342 -5.33917,46.0442 11.28434,14.336 29.07916,-5.2565 21.78325,-19.1341 -0.17395,-11.2628 -3.1653,-26.1701 -16.44408,-26.9101 z"
           style="fill:#000000;stroke:#000000;stroke-width:0.43743804px;stroke-linecap:butt;stroke-linejoin:miter;stroke-opacity:1" />
      </g>
      <path
         sodipodi:nodetypes="ccccccc"
         inkscape:connector-curvature="0"
         id="path6789"
         d="m 155.21065,172.96538 c 3.14608,-0.0369 3.32555,-5.2738 2.11338,-8.35248 -1.46489,-3.74386 -6.2862,-6.93163 -8.35059,-8.05555 -0.36481,-0.59822 -3.45117,-1.54775 -3.12915,-0.50788 0.24726,0.80431 2.77075,0.56031 3.25977,1.19807 3.4166,1.16324 5.4994,5.66843 6.81512,9.00556 0.67415,2.00148 0.6542,4.71046 -0.70853,6.71228 z"
         style="display:inline;fill:#6f6f91;fill-opacity:1;stroke:none;stroke-width:0.26458332" />
      <path
         sodipodi:nodetypes="ccsc"
         inkscape:connector-curvature="0"
         id="path6791"
         d="m 146.04408,163.57666 c 3.16791,8.79705 6.64863,9.98891 8.65015,9.5945 2.07037,-0.57882 2.78845,-1.76277 3.07494,-2.53176 1.22441,-3.28677 0.46836,-8.17611 -8.324,-14.04384"
         style="display:inline;fill:none;stroke:#d989eb;stroke-width:0.26458332px;stroke-linecap:butt;stroke-linejoin:miter;stroke-opacity:0.77777782" />
      <g
         id="g6801"
         transform="matrix(0.26449053,-0.007007,0.007007,0.26449053,123.01885,-77.253872)"
         style="display:inline">
        <g
           style="display:inline"
           id="g6803">
          <path
             inkscape:connector-curvature="0"
             id="path6805"
             d="m 54.745204,893.08613 c -19.670925,-10.8331 -29.062091,-37.68025 -20.682741,-59.07034 4.46137,-14.25394 13.158284,-28.41647 27.162522,-34.07071 14.512845,-7.0087 31.355935,-10.01222 46.929015,-5.14811 14.97135,4.31539 27.74105,15.77991 33.88175,30.58705 7.51342,16.91083 8.49027,37.72032 -0.11986,54.38872 -10.07431,16.79846 -29.4643,25.78875 -48.104894,26.4243 -10.358028,0.46231 -20.26579,-3.04582 -29.761555,-6.89611 -4.668727,-1.71339 -9.38122,-3.77057 -13.013475,-7.36746"
             style="fill:#000000;stroke:#000000;stroke-width:0.19063042;stroke-linecap:butt;stroke-linejoin:miter;stroke-miterlimit:4;stroke-dasharray:none;stroke-opacity:1" />
          <path
             sodipodi:nodetypes="ccccccc"
             inkscape:connector-curvature="0"
             id="path6807"
             d="m 131.89659,812.40054 c -20.83671,-2.47935 -56.051819,-5.39886 -65.114023,15.72677 -6.834216,15.77745 -8.201198,38.52669 8.396721,46.58406 9.177056,4.90656 19.710482,5.99243 29.881782,6.07798 6.4473,-0.77343 12.70317,-3.37976 19.28463,-2.68429 6.93378,-0.19897 12.4483,0.26418 17.57338,-5.04358 11.31501,-18.63644 1.13975,-49.478 -10.02249,-60.66094 z"
             style="fill:#cc91cc;fill-opacity:1;stroke:#000000;stroke-width:1.86857915;stroke-linecap:butt;stroke-linejoin:miter;stroke-miterlimit:4;stroke-dasharray:none;stroke-opacity:1" />
          <path
             sodipodi:nodetypes="ccccc"
             inkscape:connector-curvature="0"
             id="path6809"
             d="m 65.423024,844.11617 c -5.253844,24.81212 18.89439,38.75102 38.800486,33.32209 10.57688,-6.08608 17.48202,-6.86494 33.27367,-1.67502 14.18798,-10.95732 8.54176,-48.81712 -6.44693,-60.79011 -13.61021,-1.59702 -62.153709,-10.88147 -65.627226,29.14304 z"
             style="fill:#f8efff;fill-opacity:1;stroke:none" />
          <path
             inkscape:connector-curvature="0"
             id="path6811"
             d="m 140.55139,840.42347 c -1.35281,1.66272 -3.48015,2.61865 -4.01476,5.09691 -0.99823,4.18585 -0.37044,8.62244 -1.07892,12.86375 -0.0612,2.48107 -0.50042,5.28466 0.7931,7.43229 1.66454,2.66635 4.48112,4.31918 7.21951,3.81594 2.12803,-0.83124 3.1493,-3.80558 2.99373,-6.38556 0.58619,-5.76267 1.41052,-11.70013 0.24665,-17.43968 -0.57357,-2.91323 -2.81726,-5.34646 -5.30265,-5.24683 -0.28673,-0.0328 -0.57354,-0.0705 -0.85666,-0.13679 z"
             style="fill:#0b0b28;stroke:#000000;stroke-width:0.19200477;stroke-linecap:butt;stroke-linejoin:miter;stroke-miterlimit:4;stroke-dasharray:none;stroke-opacity:1" />
          <path
             style="fill:#0b0b28;stroke:#000000;stroke-width:0.20109792;stroke-linecap:butt;stroke-linejoin:miter;stroke-miterlimit:4;stroke-dasharray:none;stroke-opacity:1"
             d="m 126.51083,840.06059 c -1.46578,1.68337 -3.77073,2.65118 -4.35001,5.16022 -1.08156,4.23786 -0.40136,8.72957 -1.169,13.02358 -0.0663,2.51189 -0.5422,5.35031 0.85933,7.52462 1.80352,2.69948 4.8553,4.37284 7.82234,3.86335 2.3057,-0.84157 3.41223,-3.85286 3.24372,-6.46489 0.63511,-5.83427 1.52827,-11.84549 0.26722,-17.65635 -0.62145,-2.94943 -3.0525,-5.41289 -5.74543,-5.31202 -0.31066,-0.0332 -0.62142,-0.0713 -0.92817,-0.13849 z"
             id="path6813"
             inkscape:connector-curvature="0" />
          <ellipse
             transform="matrix(0.36719216,0,0,0.38035553,229.97342,687.27728)"
             id="path6815"
             style="fill:#aa87de;fill-opacity:1;stroke:none"
             cx="-271.73105"
             cy="423.03714"
             rx="5.0507627"
             ry="11.111678" />
          <ellipse
             style="fill:#aa87de;fill-opacity:1;stroke:none"
             id="path6817"
             transform="matrix(0.36719216,0,0,0.38035553,243.01188,687.64017)"
             cx="-271.73105"
             cy="423.03714"
             rx="5.0507627"
             ry="11.111678" />
          <path
             sodipodi:nodetypes="cccccc"
             inkscape:connector-curvature="0"
             id="path6819"
             d="m 114.09243,800.48982 c -12.16838,-6.46671 -39.922075,-6.44153 -56.949807,5.67596 -13.929073,10.46476 -22.156995,32.05888 -21.852026,49.53797 -1.469121,8.09351 15.76593,29.63429 16.779517,25.33985 -12.089498,-15.61999 -13.028496,-47.08536 -0.599786,-61.22391 13.279916,-24.86954 45.70636,-22.60738 62.622102,-19.32987 z"
             style="fill:#7a6f91;fill-opacity:1;stroke:none" />
          <path
             sodipodi:nodetypes="ccccc"
             inkscape:connector-curvature="0"
             id="path6821"
             d="m 97.253424,816.6696 c -22.392479,2.48791 -26.653791,14.97133 -28.246864,25.65542 -2.792091,10.91804 1.222737,25.81562 13.467458,28.70402 10.326807,2.4454 -3.658256,-7.68694 -3.326425,-12.30724 -4.02842,-16.11394 9.913975,-31.75406 18.105831,-42.0522 z"
             style="fill:#ffffff;fill-opacity:0.65882353;stroke:none" />
          <ellipse
             transform="matrix(0.41666667,0,0,1,90.822512,719.53409)"
             id="path6823"
             style="fill:#ffffff;fill-opacity:1;stroke:none"
             cx="126.28429"
             cy="127.43235"
             rx="2.1773155"
             ry="1.8144295" />
          <ellipse
             style="fill:#ffffff;fill-opacity:1;stroke:none"
             id="path6825"
             transform="matrix(0.41666667,0,0,1,77.758619,719.53409)"
             cx="126.28429"
             cy="127.43235"
             rx="2.1773155"
             ry="1.8144295" />
          <path
             sodipodi:nodetypes="cccccccc"
             inkscape:connector-curvature="0"
             id="path6827"
             d="m 92.868532,882.61797 c -5.939958,6.103 -6.65355,7.82824 -4.3773,12.69515 11.444745,9.26888 25.836268,3.66431 39.101178,4.06211 5.44017,-0.0102 12.54688,-3.10725 14.62177,-8.49951 1.43349,-3.41199 0.88485,-7.55308 -1.48507,-10.37357 -2.92127,-3.9772 -7.71334,-5.62886 -12.23511,-6.67357 -15.53028,-3.82674 -23.06577,1.32639 -34.918361,8.08231 z"
             style="fill:#ff9f39;fill-opacity:1;stroke:#000000;stroke-width:1.56960642;stroke-linecap:butt;stroke-linejoin:miter;stroke-miterlimit:4;stroke-dasharray:none;stroke-opacity:1" />
          <path
             sodipodi:nodetypes="ccccc"
             inkscape:connector-curvature="0"
             id="path6829"
             d="m 94.352079,887.437 c 2.800207,-1.48803 0.162247,-0.55831 0.162247,-0.55831 0.47755,8.78707 12.538944,12.07223 26.053004,12.24306 1.48183,0.67284 3.18777,2.4287 1.63547,1.31927 -15.79943,-1.0054 -28.649516,-3.76254 -27.850721,-13.00402 z"
             style="fill:#000000;stroke:#000000;stroke-width:0;stroke-linecap:butt;stroke-linejoin:miter;stroke-miterlimit:4;stroke-dasharray:none;stroke-opacity:1" />
          <path
             style="fill:#fde00c;fill-opacity:0.65700486;stroke:none"
             d="m 140.74376,890.22676 c -2.17077,11.20197 -40.58577,11.67624 -44.769801,-7.62803 20.474151,-15.54479 48.164501,-7.25003 44.769801,7.62803 z"
             id="path6831"
             inkscape:connector-curvature="0"
             sodipodi:nodetypes="ccc" />
          <path
             sodipodi:nodetypes="cccc"
             inkscape:connector-curvature="0"
             id="path6833"
             d="m 106.29664,877.27306 c 5.4545,2.41607 17.57432,-4.83362 30.89376,4.56721 1.96382,-0.009 -2.93175,-3.92454 -3.54836,-4.18608 -11.45092,-4.96921 -17.60181,-2.9809 -27.3454,-0.38113 z"
             style="fill:#fdf90c;fill-opacity:0.65882353;stroke:none" />
          <path
             sodipodi:nodetypes="ccc"
             inkscape:connector-curvature="0"
             id="path6835"
             d="m 91.714747,885.80731 c -6.511783,8.61388 3.22071,12.76079 6.560212,10.84357 -4.718213,-0.0144 -7.027015,-5.36871 -6.560212,-10.84357 z"
             style="opacity:0.44392527;fill:#ffdb00;fill-opacity:1;stroke:none" />
        </g>
        <path
           style="fill:#000000;stroke:#000000;stroke-width:0.19063042;stroke-linecap:butt;stroke-linejoin:miter;stroke-miterlimit:4;stroke-dasharray:none;stroke-opacity:1"
           d="m 54.745204,893.08613 c -19.670925,-10.8331 -29.062091,-37.68025 -20.682741,-59.07034 4.46137,-14.25394 13.158284,-28.41647 27.162522,-34.07071 14.512845,-7.0087 31.355935,-10.01222 46.929015,-5.14811 14.97135,4.31539 27.74105,15.77991 33.88175,30.58705 7.51342,16.91083 8.49027,37.72032 -0.11986,54.38872 -10.07431,16.79846 -29.4643,25.78875 -48.104894,26.4243 -10.358028,0.46231 -20.26579,-3.04582 -29.761555,-6.89611 -4.668727,-1.71339 -9.38122,-3.77057 -13.013475,-7.36746"
           id="path6837"
           inkscape:connector-curvature="0" />
        <path
           style="fill:#cc91cc;fill-opacity:1;stroke:#000000;stroke-width:1.86857915;stroke-linecap:butt;stroke-linejoin:miter;stroke-miterlimit:4;stroke-dasharray:none;stroke-opacity:1"
           d="m 131.89659,812.40054 c -20.83671,-2.47935 -56.051819,-5.39886 -65.114023,15.72677 -6.834216,15.77745 -8.201198,38.52669 8.396721,46.58406 9.177056,4.90656 19.710482,5.99243 29.881782,6.07798 6.4473,-0.77343 12.70317,-3.37976 19.28463,-2.68429 6.93378,-0.19897 12.4483,0.26418 17.57338,-5.04358 11.31501,-18.63644 1.13975,-49.478 -10.02249,-60.66094 z"
           id="path6839"
           inkscape:connector-curvature="0"
           sodipodi:nodetypes="ccccccc" />
        <path
           style="fill:#f8efff;fill-opacity:1;stroke:none"
           d="m 65.423024,844.11617 c -5.253844,24.81212 18.89439,38.75102 38.800486,33.32209 10.57688,-6.08608 17.48202,-6.86494 33.27367,-1.67502 14.18798,-10.95732 8.54176,-48.81712 -6.44693,-60.79011 -13.61021,-1.59702 -62.153709,-10.88147 -65.627226,29.14304 z"
           id="path6841"
           inkscape:connector-curvature="0"
           sodipodi:nodetypes="ccccc" />
        <path
           style="fill:#0b0b28;stroke:#000000;stroke-width:0.19200477;stroke-linecap:butt;stroke-linejoin:miter;stroke-miterlimit:4;stroke-dasharray:none;stroke-opacity:1"
           d="m 140.55139,840.42347 c -1.35281,1.66272 -3.48015,2.61865 -4.01476,5.09691 -0.99823,4.18585 -0.37044,8.62244 -1.07892,12.86375 -0.0612,2.48107 -0.50042,5.28466 0.7931,7.43229 1.66454,2.66635 4.48112,4.31918 7.21951,3.81594 2.12803,-0.83124 3.1493,-3.80558 2.99373,-6.38556 0.58619,-5.76267 1.41052,-11.70013 0.24665,-17.43968 -0.57357,-2.91323 -2.81726,-5.34646 -5.30265,-5.24683 -0.28673,-0.0328 -0.57354,-0.0705 -0.85666,-0.13679 z"
           id="path6843"
           inkscape:connector-curvature="0" />
        <path
           inkscape:connector-curvature="0"
           id="path6845"
           d="m 126.51083,840.06059 c -1.46578,1.68337 -3.77073,2.65118 -4.35001,5.16022 -1.08156,4.23786 -0.40136,8.72957 -1.169,13.02358 -0.0663,2.51189 -0.5422,5.35031 0.85933,7.52462 1.80352,2.69948 4.8553,4.37284 7.82234,3.86335 2.3057,-0.84157 3.41223,-3.85286 3.24372,-6.46489 0.63511,-5.83427 1.52827,-11.84549 0.26722,-17.65635 -0.62145,-2.94943 -3.0525,-5.41289 -5.74543,-5.31202 -0.31066,-0.0332 -0.62142,-0.0713 -0.92817,-0.13849 z"
           style="fill:#0b0b28;stroke:#000000;stroke-width:0.20109792;stroke-linecap:butt;stroke-linejoin:miter;stroke-miterlimit:4;stroke-dasharray:none;stroke-opacity:1" />
        <ellipse
           style="fill:#aa87de;fill-opacity:1;stroke:none"
           id="path6847"
           transform="matrix(0.36719216,0,0,0.38035553,229.97342,687.27728)"
           cx="-271.73105"
           cy="423.03714"
           rx="5.0507627"
           ry="11.111678" />
        <ellipse
           transform="matrix(0.36719216,0,0,0.38035553,243.01188,687.64017)"
           id="path6849"
           style="fill:#aa87de;fill-opacity:1;stroke:none"
           cx="-271.73105"
           cy="423.03714"
           rx="5.0507627"
           ry="11.111678" />
        <path
           style="fill:#7a6f91;fill-opacity:1;stroke:none"
           d="m 114.09243,800.48982 c -12.16838,-6.46671 -39.922075,-6.44153 -56.949807,5.67596 -13.929073,10.46476 -22.156995,32.05888 -21.852026,49.53797 -1.469121,8.09351 15.76593,29.63429 16.779517,25.33985 -12.089498,-15.61999 -13.028496,-47.08536 -0.599786,-61.22391 13.279916,-24.86954 45.70636,-22.60738 62.622102,-19.32987 z"
           id="path6851"
           inkscape:connector-curvature="0"
           sodipodi:nodetypes="cccccc" />
        <path
           style="fill:#ffffff;fill-opacity:0.65882353;stroke:none"
           d="m 97.253424,816.6696 c -22.392479,2.48791 -26.653791,14.97133 -28.246864,25.65542 -2.792091,10.91804 1.222737,25.81562 13.467458,28.70402 10.326807,2.4454 -3.658256,-7.68694 -3.326425,-12.30724 -4.02842,-16.11394 9.913975,-31.75406 18.105831,-42.0522 z"
           id="path6853"
           inkscape:connector-curvature="0"
           sodipodi:nodetypes="ccccc" />
        <ellipse
           style="fill:#ffffff;fill-opacity:1;stroke:none"
           id="path6855"
           transform="matrix(0.41666667,0,0,1,90.822512,719.53409)"
           cx="126.28429"
           cy="127.43235"
           rx="2.1773155"
           ry="1.8144295" />
        <ellipse
           transform="matrix(0.41666667,0,0,1,77.758619,719.53409)"
           id="path6857"
           style="fill:#ffffff;fill-opacity:1;stroke:none"
           cx="126.28429"
           cy="127.43235"
           rx="2.1773155"
           ry="1.8144295" />
        <path
           style="fill:#ff9f39;fill-opacity:1;stroke:#000000;stroke-width:1.56960642;stroke-linecap:butt;stroke-linejoin:miter;stroke-miterlimit:4;stroke-dasharray:none;stroke-opacity:1"
           d="m 92.868532,882.61797 c -5.939958,6.103 -6.65355,7.82824 -4.3773,12.69515 11.444745,9.26888 25.836268,3.66431 39.101178,4.06211 5.44017,-0.0102 12.54688,-3.10725 14.62177,-8.49951 1.43349,-3.41199 0.88485,-7.55308 -1.48507,-10.37357 -2.92127,-3.9772 -7.71334,-5.62886 -12.23511,-6.67357 -15.53028,-3.82674 -23.06577,1.32639 -34.918361,8.08231 z"
           id="path6859"
           inkscape:connector-curvature="0"
           sodipodi:nodetypes="cccccccc" />
        <path
           style="fill:#000000;stroke:#000000;stroke-width:0;stroke-linecap:butt;stroke-linejoin:miter;stroke-miterlimit:4;stroke-dasharray:none;stroke-opacity:1"
           d="m 94.352079,887.437 c 2.800207,-1.48803 0.162247,-0.55831 0.162247,-0.55831 0.47755,8.78707 12.538944,12.07223 26.053004,12.24306 1.48183,0.67284 3.18777,2.4287 1.63547,1.31927 -15.79943,-1.0054 -28.649516,-3.76254 -27.850721,-13.00402 z"
           id="path6861"
           inkscape:connector-curvature="0"
           sodipodi:nodetypes="ccccc" />
        <path
           sodipodi:nodetypes="ccc"
           inkscape:connector-curvature="0"
           id="path6863"
           d="m 140.74376,890.22676 c -2.17077,11.20197 -40.58577,11.67624 -44.769801,-7.62803 20.474151,-15.54479 48.164501,-7.25003 44.769801,7.62803 z"
           style="fill:#fde00c;fill-opacity:0.65700486;stroke:none" />
        <path
           style="fill:#fdf90c;fill-opacity:0.65882353;stroke:none"
           d="m 106.29664,877.27306 c 5.4545,2.41607 17.57432,-4.83362 30.89376,4.56721 1.96382,-0.009 -2.93175,-3.92454 -3.54836,-4.18608 -11.45092,-4.96921 -17.60181,-2.9809 -27.3454,-0.38113 z"
           id="path6865"
           inkscape:connector-curvature="0"
           sodipodi:nodetypes="cccc" />
        <path
           style="opacity:0.44392527;fill:#ffdb00;fill-opacity:1;stroke:none"
           d="m 91.714747,885.80731 c -6.511783,8.61388 3.22071,12.76079 6.560212,10.84357 -4.718213,-0.0144 -7.027015,-5.36871 -6.560212,-10.84357 z"
           id="path6867"
           inkscape:connector-curvature="0"
           sodipodi:nodetypes="ccc" />
      </g>
      <g
         transform="matrix(0.26458333,0,0,0.26458333,-113.90996,-90.530257)"
         id="g6898"
         style="display:inline">
        <path
           sodipodi:nodetypes="cccccccccccc"
           style="fill:#ffb124;fill-opacity:1;stroke:#000000;stroke-width:1.86857951;stroke-linecap:butt;stroke-linejoin:miter;stroke-miterlimit:4;stroke-dasharray:none;stroke-opacity:1"
           d="m 966.66799,994.72184 c 3.11684,-0.0211 7.21869,0.92949 8.74367,4.92768 1.79565,3.91398 0.82333,9.19218 -2.47419,10.72778 -1.81221,2.0676 -1.51635,1.6413 0.2852,3.5108 9.64506,3.4422 24.34059,2.4905 27.59573,11.5452 0.8633,4.5409 1.1367,10.5089 -2.52953,12.282 -5.34097,4.8708 -11.34808,7.0717 -18.25446,6.7692 -12.80147,-1.5979 -24.63681,-4.5203 -29.07066,-18.9777 -3.2295,-9.9912 -9.79583,-42.62848 3.39371,-49.85105 3.50504,-1.04517 5.59889,-2.58532 9.48186,-0.79356 3.63545,1.37525 0.2172,11.23566 1.96097,15.11574 0.78706,1.41181 1.69468,3.28672 0.8677,4.74391 z"
           id="path6769"
           inkscape:connector-curvature="0" />
        <path
           inkscape:connector-curvature="0"
           id="path6799"
           d="m 964.05953,1017.4381 c 6.7057,-1.4403 26.98702,1.4099 32.83682,5.8292 2.528,1.4773 5.21545,12.3478 -2.36852,13.4673 -0.0947,-2.2819 3.17858,-8.3014 -3.59522,-12.0384 -2.1655,-1.7333 -24.39268,-4.2344 -26.87308,-7.2581 z"
           style="fill:#fdf90c;fill-opacity:0.65882353;stroke:none"
           sodipodi:nodetypes="ccccc" />
        <path
           sodipodi:nodetypes="cccccccc"
           inkscape:connector-curvature="0"
           id="path6888"
           d="m 1000.0128,1032.3933 c -1.12633,1.9313 -7.06502,12.0032 -21.73366,10.0528 -16.0174,-1.6536 -32.12988,-8.3151 -29.20016,-52.4275 0.704,-9.81774 8.32394,-15.9543 12.30184,-14.11071 2.12837,1.02955 2.90745,2.41564 3.34685,4.46228 -3.22427,10.36124 2.63608,8.59431 -0.27633,16.68169 9.79364,-3.05702 15.44135,6.62154 5.30376,13.20454 1.58421,12.3035 34.4898,0.4536 30.2577,22.1369 z"
           style="fill:#fde00c;fill-opacity:0.65882353;stroke:none" />
      </g>
    </g>
  </g>
</svg>
