<?xml version="1.0" encoding="UTF-8" standalone="no"?>
<!-- Created with Inkscape (http://www.inkscape.org/) -->

<svg
   xmlns:dc="http://purl.org/dc/elements/1.1/"
   xmlns:cc="http://creativecommons.org/ns#"
   xmlns:rdf="http://www.w3.org/1999/02/22-rdf-syntax-ns#"
   xmlns:svg="http://www.w3.org/2000/svg"
   xmlns="http://www.w3.org/2000/svg"
   xmlns:sodipodi="http://sodipodi.sourceforge.net/DTD/sodipodi-0.dtd"
   xmlns:inkscape="http://www.inkscape.org/namespaces/inkscape"
   width="250"
   height="250"
   viewBox="0 0 66.145831 66.145835"
   version="1.1"
   id="svg1537"
   sodipodi:docname="Tux_junior-7.svg"
   inkscape:version="0.92.5 (2060ec1f9f, 2020-04-08)">
  <defs
     id="defs1531" />
  <sodipodi:namedview
     id="base"
     pagecolor="#ffffff"
     bordercolor="#666666"
     borderopacity="1.0"
     inkscape:pageopacity="0.0"
     inkscape:pageshadow="2"
     inkscape:zoom="1.9247463"
     inkscape:cx="77.520911"
     inkscape:cy="560"
     inkscape:document-units="mm"
     inkscape:current-layer="layer1"
     showgrid="false"
     units="px"
     inkscape:window-width="1920"
     inkscape:window-height="1043"
     inkscape:window-x="1920"
     inkscape:window-y="0"
     inkscape:window-maximized="1" />
  <metadata
     id="metadata1534">
    <rdf:RDF>
      <cc:Work
         rdf:about="">
        <dc:format>image/svg+xml</dc:format>
        <dc:type
           rdf:resource="http://purl.org/dc/dcmitype/StillImage" />
        <dc:title />
      </cc:Work>
    </rdf:RDF>
  </metadata>
  <g
     inkscape:label="Calque 1"
     inkscape:groupmode="layer"
     id="layer1"
     transform="translate(0,-230.85415)">
    <rect
       style="opacity:1;fill:#ffffff;fill-opacity:1;stroke:#000000;stroke-width:0;stroke-miterlimit:4;stroke-dasharray:none;stroke-opacity:1"
       id="rect5827"
       width="66.145836"
       height="66.145836"
       x="-1.2715658e-06"
       y="230.85414" />
    <g
       id="g4401"
       transform="translate(132.45617,106.42835)">
      <g
         transform="matrix(0.25219481,0.08001324,-0.08001324,0.25219481,-143.8487,-149.21611)"
         id="g7583"
         style="display:inline">
        <path
           sodipodi:nodetypes="ccccc"
           inkscape:connector-curvature="0"
           id="path7585"
           d="m 519.86454,1072.9889 c 6.72532,19.6402 28.95982,24.4878 44.16622,23.3519 15.69792,-7.4547 12.63663,-26.7523 1.21016,-29.3566 -13.30558,-6.7033 -25.78018,-8.8243 -40.20361,-7.0008 -13.26566,4.0552 -6.60097,5.6785 -5.17277,13.0055 z"
           style="fill:#000000;stroke:#000000;stroke-width:1px;stroke-linecap:butt;stroke-linejoin:miter;stroke-opacity:1" />
        <path
           sodipodi:nodetypes="ccccc"
           inkscape:connector-curvature="0"
           id="path7587"
           d="m 572.83593,1085.285 c -6.22561,12.1709 -17.21087,8.2134 -22.08067,7.7036 -2.02054,-0.5443 -4.53732,-1.0509 -0.99191,-0.5843 10.86966,-1.232 18.77155,-7.9514 16.43659,-23.0165 8.25824,4.5881 8.97633,9.2455 6.63599,15.8972 z"
           style="fill:#7a6f91;fill-opacity:1;stroke:#000000;stroke-width:1px;stroke-linecap:butt;stroke-linejoin:miter;stroke-opacity:1" />
      </g>
      <path
         sodipodi:nodetypes="ccccccccccccccc"
         inkscape:connector-curvature="0"
         id="path4764"
         d="m -95.926397,176.34503 c 0.199892,-0.71538 0.713528,-1.60284 1.83806,-1.73164 1.120748,-0.19548 2.408607,0.31861 2.584714,1.15895 0.410184,0.52935 1.41306,0.36888 2.010516,0.0592 0.75901,-0.42756 1.591204,-0.77658 2.505234,-0.98798 1.42277,-0.33284 2.920126,-0.5879 4.400999,-0.54237 1.219888,0.0528 2.521003,0.56018 2.733675,1.49813 0.219366,0.72699 0.259345,1.48164 0.458153,2.2113 0.105754,0.9669 -0.679741,2.53297 -1.985037,3.02543 -4.253653,1.85997 -11.23606,2.04619 -17.735602,2.21834 -1.118575,-0.0771 -1.407135,-1.03381 -1.324105,-1.72479 -0.0383,-0.86077 -0.3229,-3.12094 0.39166,-3.91183 0.591688,-0.75716 1.740747,-1.1503 2.849431,-1.33575 0.413411,-0.10245 0.953452,-0.20696 1.272196,0.063 z"
         style="display:inline;fill:#ffb124;fill-opacity:1;stroke:#000000;stroke-width:0.49439499;stroke-linecap:butt;stroke-linejoin:miter;stroke-miterlimit:4;stroke-dasharray:none;stroke-opacity:1" />
      <path
         inkscape:connector-curvature="0"
         id="path7030"
         d="m -90.368772,176.89986 c 1.596469,-1.83899 5.99313,-2.41267 7.537714,-2.52292 0.655902,-0.16149 2.757223,0.28697 2.528121,2.0436 -1.00629,0.24335 -2.083753,-0.45043 -3.138858,-0.36412 -0.574331,0.0152 -6.241336,1.09935 -6.926977,0.84344 z"
         style="display:inline;fill:#fdf90c;fill-opacity:0.65882353;stroke:none;stroke-width:0.26458332"
         sodipodi:nodetypes="ccccc" />
      <path
         style="display:inline;fill:#1a1a1a;stroke:#000000;stroke-width:0.05043763;stroke-linecap:butt;stroke-linejoin:miter;stroke-miterlimit:4;stroke-dasharray:none;stroke-opacity:1"
         d="m -115.14338,160.43969 c 0.5152,-1.53099 3.96063,-7.41923 5.12599,-8.50289 4.9031,2.17675 10.781267,1.06733 15.621978,2.99971 0.837115,0.34539 0.37719,4.20397 0.63955,5.2014 3.314726,3.9076 6.230064,6.70536 5.850387,12.65713 -0.0066,1.13308 -1.673384,3.84509 -3.065039,4.76899 -1.234731,0.93562 -6.876547,1.52307 -7.777321,1.99689 -4.242645,0.23264 -12.406235,-0.50628 -16.286855,-6.6062 -1.97244,-2.01023 -1.32048,-9.44899 -0.10869,-12.51503 z"
         id="path7032"
         inkscape:connector-curvature="0"
         sodipodi:nodetypes="ccccccccc" />
      <path
         sodipodi:nodetypes="cccccc"
         inkscape:connector-curvature="0"
         id="path7034"
         d="m -102.03534,156.9954 c 0.57394,7.07956 -7.88783,14.30327 -2.88448,19.43325 3.42751,1.75432 13.636092,1.8107 14.341418,-1.52093 2.356247,-1.42846 2.486528,-8.58838 -4.631583,-14.80921 0.372427,-1.4119 0.14777,-3.58167 -0.07998,-4.58954 -2.332619,0.27157 -3.349413,2.9705 -6.745365,1.48643 z"
         style="display:inline;fill:#f8efff;fill-opacity:1;stroke:#000000;stroke-width:0.10390265px;stroke-linecap:butt;stroke-linejoin:miter;stroke-opacity:1" />
      <path
         style="display:inline;fill:#ffffff;fill-opacity:1;stroke:none;stroke-width:0.26458332"
         d="m -101.73596,157.74806 c 0.57393,7.07956 -7.33377,13.45255 -2.33042,18.58253 2.67914,1.56723 8.678251,1.15589 9.19649,-0.77256 0.298265,-2.73809 1.347973,-11.40272 -2.08108,-13.3069 -0.380762,-1.49987 -0.244025,-3.20026 -0.664475,-5.05248 -1.200467,0.74327 -3.083165,0.99568 -4.120515,0.54941 z"
         id="path7036"
         inkscape:connector-curvature="0"
         sodipodi:nodetypes="cccccc" />
      <g
         id="g7044"
         transform="matrix(0.26361661,-0.02259692,0.02259692,0.26361661,-413.6276,-84.82956)"
         style="display:inline">
        <g
           id="g7046"
           transform="matrix(1.1905349,-0.81872567,0.88610436,1.2885124,-554.89167,-143.17847)"
           style="fill:#000000">
          <path
             style="fill:#000000;stroke:#000000;stroke-width:0.43743804px;stroke-linecap:butt;stroke-linejoin:miter;stroke-opacity:1"
             d="m 471.85629,1192.6554 c -2.91334,14.9727 -11.50424,30.8342 -5.33917,46.0442 11.28434,14.336 29.07916,-5.2565 21.78325,-19.1341 -0.17395,-11.2628 -3.1653,-26.1701 -16.44408,-26.9101 z"
             id="path7048"
             inkscape:connector-curvature="0" />
        </g>
        <path
           style="fill:#6f6f91;fill-opacity:1;stroke:none"
           d="m 1109.1452,1071.483 c 11.8907,-0.1394 12.569,-19.9325 7.9876,-31.5685 -5.5366,-14.15 -23.7589,-26.1983 -31.5613,-30.4462 -1.3788,-2.2609 -13.0438,-5.8497 -11.8267,-1.9195 0.9345,3.0399 10.4721,2.1177 12.3204,4.5282 12.9131,4.3964 20.7851,21.4239 25.7579,34.0367 2.548,7.5647 2.4726,17.8033 -2.6779,25.3693 z"
           id="path7050"
           inkscape:connector-curvature="0"
           sodipodi:nodetypes="ccccccc" />
        <path
           style="fill:none;stroke:#d989eb;stroke-width:1px;stroke-linecap:butt;stroke-linejoin:miter;stroke-opacity:0.77777782"
           d="m 1074.4999,1035.998 c 11.9732,33.2487 25.1287,37.7534 32.6935,36.2627 7.825,-2.1877 10.539,-6.6624 11.6218,-9.5689 4.6277,-12.4224 1.7702,-30.9018 -31.4608,-53.079"
           id="path7052"
           inkscape:connector-curvature="0"
           sodipodi:nodetypes="ccsc" />
      </g>
      <g
         id="g7054"
         transform="matrix(0.26457022,0.00263431,-0.00263431,0.26457022,-122.73213,-78.36964)"
         style="display:inline">
        <g
           style="display:inline"
           id="g7056">
          <path
             inkscape:connector-curvature="0"
             id="path7058"
             d="m 54.745204,893.08613 c -19.670925,-10.8331 -29.062091,-37.68025 -20.682741,-59.07034 4.46137,-14.25394 13.158284,-28.41647 27.162522,-34.07071 14.512845,-7.0087 31.355935,-10.01222 46.929015,-5.14811 14.97135,4.31539 27.74105,15.77991 33.88175,30.58705 7.51342,16.91083 8.49027,37.72032 -0.11986,54.38872 -10.07431,16.79846 -29.4643,25.78875 -48.104894,26.4243 -10.358028,0.46231 -20.26579,-3.04582 -29.761555,-6.89611 -4.668727,-1.71339 -9.38122,-3.77057 -13.013475,-7.36746"
             style="fill:#000000;stroke:#000000;stroke-width:0.19063042;stroke-linecap:butt;stroke-linejoin:miter;stroke-miterlimit:4;stroke-dasharray:none;stroke-opacity:1" />
          <path
             sodipodi:nodetypes="ccccccc"
             inkscape:connector-curvature="0"
             id="path7060"
             d="m 131.89659,812.40054 c -20.83671,-2.47935 -56.051819,-5.39886 -65.114023,15.72677 -6.834216,15.77745 -8.201198,38.52669 8.396721,46.58406 9.177056,4.90656 19.710482,5.99243 29.881782,6.07798 6.4473,-0.77343 12.70317,-3.37976 19.28463,-2.68429 6.93378,-0.19897 12.4483,0.26418 17.57338,-5.04358 11.31501,-18.63644 1.13975,-49.478 -10.02249,-60.66094 z"
             style="fill:#cc91cc;fill-opacity:1;stroke:#000000;stroke-width:1.86857915;stroke-linecap:butt;stroke-linejoin:miter;stroke-miterlimit:4;stroke-dasharray:none;stroke-opacity:1" />
          <path
             sodipodi:nodetypes="ccccc"
             inkscape:connector-curvature="0"
             id="path7062"
             d="m 65.423024,844.11617 c -5.253844,24.81212 18.89439,38.75102 38.800486,33.32209 10.57688,-6.08608 17.48202,-6.86494 33.27367,-1.67502 14.18798,-10.95732 8.54176,-48.81712 -6.44693,-60.79011 -13.61021,-1.59702 -62.153709,-10.88147 -65.627226,29.14304 z"
             style="fill:#f8efff;fill-opacity:1;stroke:none" />
          <path
             inkscape:connector-curvature="0"
             id="path7064"
             d="m 140.55139,840.42347 c -1.35281,1.66272 -3.48015,2.61865 -4.01476,5.09691 -0.99823,4.18585 -0.37044,8.62244 -1.07892,12.86375 -0.0612,2.48107 -0.50042,5.28466 0.7931,7.43229 1.66454,2.66635 4.48112,4.31918 7.21951,3.81594 2.12803,-0.83124 3.1493,-3.80558 2.99373,-6.38556 0.58619,-5.76267 1.41052,-11.70013 0.24665,-17.43968 -0.57357,-2.91323 -2.81726,-5.34646 -5.30265,-5.24683 -0.28673,-0.0328 -0.57354,-0.0705 -0.85666,-0.13679 z"
             style="fill:#0b0b28;stroke:#000000;stroke-width:0.19200477;stroke-linecap:butt;stroke-linejoin:miter;stroke-miterlimit:4;stroke-dasharray:none;stroke-opacity:1" />
          <path
             style="fill:#0b0b28;stroke:#000000;stroke-width:0.20109792;stroke-linecap:butt;stroke-linejoin:miter;stroke-miterlimit:4;stroke-dasharray:none;stroke-opacity:1"
             d="m 126.51083,840.06059 c -1.46578,1.68337 -3.77073,2.65118 -4.35001,5.16022 -1.08156,4.23786 -0.40136,8.72957 -1.169,13.02358 -0.0663,2.51189 -0.5422,5.35031 0.85933,7.52462 1.80352,2.69948 4.8553,4.37284 7.82234,3.86335 2.3057,-0.84157 3.41223,-3.85286 3.24372,-6.46489 0.63511,-5.83427 1.52827,-11.84549 0.26722,-17.65635 -0.62145,-2.94943 -3.0525,-5.41289 -5.74543,-5.31202 -0.31066,-0.0332 -0.62142,-0.0713 -0.92817,-0.13849 z"
             id="path7066"
             inkscape:connector-curvature="0" />
          <ellipse
             transform="matrix(0.36719216,0,0,0.38035553,229.97342,687.27728)"
             id="path7068"
             style="fill:#aa87de;fill-opacity:1;stroke:none"
             cx="-271.73105"
             cy="423.03714"
             rx="5.0507627"
             ry="11.111678" />
          <ellipse
             style="fill:#aa87de;fill-opacity:1;stroke:none"
             id="path7070"
             transform="matrix(0.36719216,0,0,0.38035553,243.01188,687.64017)"
             cx="-271.73105"
             cy="423.03714"
             rx="5.0507627"
             ry="11.111678" />
          <path
             sodipodi:nodetypes="cccccc"
             inkscape:connector-curvature="0"
             id="path7072"
             d="m 114.09243,800.48982 c -12.16838,-6.46671 -39.922075,-6.44153 -56.949807,5.67596 -13.929073,10.46476 -22.156995,32.05888 -21.852026,49.53797 -1.469121,8.09351 15.76593,29.63429 16.779517,25.33985 -12.089498,-15.61999 -13.028496,-47.08536 -0.599786,-61.22391 13.279916,-24.86954 45.70636,-22.60738 62.622102,-19.32987 z"
             style="fill:#7a6f91;fill-opacity:1;stroke:none" />
          <path
             sodipodi:nodetypes="ccccc"
             inkscape:connector-curvature="0"
             id="path7074"
             d="m 97.253424,816.6696 c -22.392479,2.48791 -26.653791,14.97133 -28.246864,25.65542 -2.792091,10.91804 1.222737,25.81562 13.467458,28.70402 10.326807,2.4454 -3.658256,-7.68694 -3.326425,-12.30724 -4.02842,-16.11394 9.913975,-31.75406 18.105831,-42.0522 z"
             style="fill:#ffffff;fill-opacity:0.65882353;stroke:none" />
          <ellipse
             transform="matrix(0.41666667,0,0,1,90.822512,719.53409)"
             id="path7076"
             style="fill:#ffffff;fill-opacity:1;stroke:none"
             cx="126.28429"
             cy="127.43235"
             rx="2.1773155"
             ry="1.8144295" />
          <ellipse
             style="fill:#ffffff;fill-opacity:1;stroke:none"
             id="path7078"
             transform="matrix(0.41666667,0,0,1,77.758619,719.53409)"
             cx="126.28429"
             cy="127.43235"
             rx="2.1773155"
             ry="1.8144295" />
          <path
             sodipodi:nodetypes="cccccccc"
             inkscape:connector-curvature="0"
             id="path7080"
             d="m 92.868532,882.61797 c -5.939958,6.103 -6.65355,7.82824 -4.3773,12.69515 11.444745,9.26888 25.836268,3.66431 39.101178,4.06211 5.44017,-0.0102 12.54688,-3.10725 14.62177,-8.49951 1.43349,-3.41199 0.88485,-7.55308 -1.48507,-10.37357 -2.92127,-3.9772 -7.71334,-5.62886 -12.23511,-6.67357 -15.53028,-3.82674 -23.06577,1.32639 -34.918361,8.08231 z"
             style="fill:#ff9f39;fill-opacity:1;stroke:#000000;stroke-width:1.56960642;stroke-linecap:butt;stroke-linejoin:miter;stroke-miterlimit:4;stroke-dasharray:none;stroke-opacity:1" />
          <path
             sodipodi:nodetypes="ccccc"
             inkscape:connector-curvature="0"
             id="path7082"
             d="m 94.352079,887.437 c 2.800207,-1.48803 0.162247,-0.55831 0.162247,-0.55831 0.47755,8.78707 12.538944,12.07223 26.053004,12.24306 1.48183,0.67284 3.18777,2.4287 1.63547,1.31927 -15.79943,-1.0054 -28.649516,-3.76254 -27.850721,-13.00402 z"
             style="fill:#000000;stroke:#000000;stroke-width:0;stroke-linecap:butt;stroke-linejoin:miter;stroke-miterlimit:4;stroke-dasharray:none;stroke-opacity:1" />
          <path
             style="fill:#fde00c;fill-opacity:0.65700486;stroke:none"
             d="m 140.74376,890.22676 c -2.17077,11.20197 -40.58577,11.67624 -44.769801,-7.62803 20.474151,-15.54479 48.164501,-7.25003 44.769801,7.62803 z"
             id="path7084"
             inkscape:connector-curvature="0"
             sodipodi:nodetypes="ccc" />
          <path
             sodipodi:nodetypes="cccc"
             inkscape:connector-curvature="0"
             id="path7086"
             d="m 106.29664,877.27306 c 5.4545,2.41607 17.57432,-4.83362 30.89376,4.56721 1.96382,-0.009 -2.93175,-3.92454 -3.54836,-4.18608 -11.45092,-4.96921 -17.60181,-2.9809 -27.3454,-0.38113 z"
             style="fill:#fdf90c;fill-opacity:0.65882353;stroke:none" />
          <path
             sodipodi:nodetypes="ccc"
             inkscape:connector-curvature="0"
             id="path7088"
             d="m 91.714747,885.80731 c -6.511783,8.61388 3.22071,12.76079 6.560212,10.84357 -4.718213,-0.0144 -7.027015,-5.36871 -6.560212,-10.84357 z"
             style="opacity:0.44392527;fill:#ffdb00;fill-opacity:1;stroke:none" />
        </g>
        <path
           style="fill:#000000;stroke:#000000;stroke-width:0.19063042;stroke-linecap:butt;stroke-linejoin:miter;stroke-miterlimit:4;stroke-dasharray:none;stroke-opacity:1"
           d="m 54.745204,893.08613 c -19.670925,-10.8331 -29.062091,-37.68025 -20.682741,-59.07034 4.46137,-14.25394 13.158284,-28.41647 27.162522,-34.07071 14.512845,-7.0087 31.355935,-10.01222 46.929015,-5.14811 14.97135,4.31539 27.74105,15.77991 33.88175,30.58705 7.51342,16.91083 8.49027,37.72032 -0.11986,54.38872 -10.07431,16.79846 -29.4643,25.78875 -48.104894,26.4243 -10.358028,0.46231 -20.26579,-3.04582 -29.761555,-6.89611 -4.668727,-1.71339 -9.38122,-3.77057 -13.013475,-7.36746"
           id="path7090"
           inkscape:connector-curvature="0" />
        <path
           style="fill:#cc91cc;fill-opacity:1;stroke:#000000;stroke-width:1.86857915;stroke-linecap:butt;stroke-linejoin:miter;stroke-miterlimit:4;stroke-dasharray:none;stroke-opacity:1"
           d="m 131.89659,812.40054 c -20.83671,-2.47935 -56.051819,-5.39886 -65.114023,15.72677 -6.834216,15.77745 -8.201198,38.52669 8.396721,46.58406 9.177056,4.90656 19.710482,5.99243 29.881782,6.07798 6.4473,-0.77343 12.70317,-3.37976 19.28463,-2.68429 6.93378,-0.19897 12.4483,0.26418 17.57338,-5.04358 11.31501,-18.63644 1.13975,-49.478 -10.02249,-60.66094 z"
           id="path7092"
           inkscape:connector-curvature="0"
           sodipodi:nodetypes="ccccccc" />
        <path
           style="fill:#f8efff;fill-opacity:1;stroke:none"
           d="m 65.423024,844.11617 c -5.253844,24.81212 18.89439,38.75102 38.800486,33.32209 10.57688,-6.08608 17.48202,-6.86494 33.27367,-1.67502 14.18798,-10.95732 8.54176,-48.81712 -6.44693,-60.79011 -13.61021,-1.59702 -62.153709,-10.88147 -65.627226,29.14304 z"
           id="path7094"
           inkscape:connector-curvature="0"
           sodipodi:nodetypes="ccccc" />
        <path
           style="fill:#0b0b28;stroke:#000000;stroke-width:0.19200477;stroke-linecap:butt;stroke-linejoin:miter;stroke-miterlimit:4;stroke-dasharray:none;stroke-opacity:1"
           d="m 140.55139,840.42347 c -1.35281,1.66272 -3.48015,2.61865 -4.01476,5.09691 -0.99823,4.18585 -0.37044,8.62244 -1.07892,12.86375 -0.0612,2.48107 -0.50042,5.28466 0.7931,7.43229 1.66454,2.66635 4.48112,4.31918 7.21951,3.81594 2.12803,-0.83124 3.1493,-3.80558 2.99373,-6.38556 0.58619,-5.76267 1.41052,-11.70013 0.24665,-17.43968 -0.57357,-2.91323 -2.81726,-5.34646 -5.30265,-5.24683 -0.28673,-0.0328 -0.57354,-0.0705 -0.85666,-0.13679 z"
           id="path7096"
           inkscape:connector-curvature="0" />
        <path
           inkscape:connector-curvature="0"
           id="path7098"
           d="m 126.51083,840.06059 c -1.46578,1.68337 -3.77073,2.65118 -4.35001,5.16022 -1.08156,4.23786 -0.40136,8.72957 -1.169,13.02358 -0.0663,2.51189 -0.5422,5.35031 0.85933,7.52462 1.80352,2.69948 4.8553,4.37284 7.82234,3.86335 2.3057,-0.84157 3.41223,-3.85286 3.24372,-6.46489 0.63511,-5.83427 1.52827,-11.84549 0.26722,-17.65635 -0.62145,-2.94943 -3.0525,-5.41289 -5.74543,-5.31202 -0.31066,-0.0332 -0.62142,-0.0713 -0.92817,-0.13849 z"
           style="fill:#0b0b28;stroke:#000000;stroke-width:0.20109792;stroke-linecap:butt;stroke-linejoin:miter;stroke-miterlimit:4;stroke-dasharray:none;stroke-opacity:1" />
        <ellipse
           style="fill:#aa87de;fill-opacity:1;stroke:none"
           id="path7100"
           transform="matrix(0.36719216,0,0,0.38035553,229.97342,687.27728)"
           cx="-271.73105"
           cy="423.03714"
           rx="5.0507627"
           ry="11.111678" />
        <ellipse
           transform="matrix(0.36719216,0,0,0.38035553,243.01188,687.64017)"
           id="path7102"
           style="fill:#aa87de;fill-opacity:1;stroke:none"
           cx="-271.73105"
           cy="423.03714"
           rx="5.0507627"
           ry="11.111678" />
        <path
           style="fill:#7a6f91;fill-opacity:1;stroke:none"
           d="m 114.09243,800.48982 c -12.16838,-6.46671 -39.922075,-6.44153 -56.949807,5.67596 -13.929073,10.46476 -22.156995,32.05888 -21.852026,49.53797 -1.469121,8.09351 15.76593,29.63429 16.779517,25.33985 -12.089498,-15.61999 -13.028496,-47.08536 -0.599786,-61.22391 13.279916,-24.86954 45.70636,-22.60738 62.622102,-19.32987 z"
           id="path7104"
           inkscape:connector-curvature="0"
           sodipodi:nodetypes="cccccc" />
        <path
           style="fill:#ffffff;fill-opacity:0.65882353;stroke:none"
           d="m 97.253424,816.6696 c -22.392479,2.48791 -26.653791,14.97133 -28.246864,25.65542 -2.792091,10.91804 1.222737,25.81562 13.467458,28.70402 10.326807,2.4454 -3.658256,-7.68694 -3.326425,-12.30724 -4.02842,-16.11394 9.913975,-31.75406 18.105831,-42.0522 z"
           id="path7106"
           inkscape:connector-curvature="0"
           sodipodi:nodetypes="ccccc" />
        <ellipse
           style="fill:#ffffff;fill-opacity:1;stroke:none"
           id="path7108"
           transform="matrix(0.41666667,0,0,1,90.822512,719.53409)"
           cx="126.28429"
           cy="127.43235"
           rx="2.1773155"
           ry="1.8144295" />
        <ellipse
           transform="matrix(0.41666667,0,0,1,77.758619,719.53409)"
           id="path7110"
           style="fill:#ffffff;fill-opacity:1;stroke:none"
           cx="126.28429"
           cy="127.43235"
           rx="2.1773155"
           ry="1.8144295" />
        <path
           style="fill:#ff9f39;fill-opacity:1;stroke:#000000;stroke-width:1.56960642;stroke-linecap:butt;stroke-linejoin:miter;stroke-miterlimit:4;stroke-dasharray:none;stroke-opacity:1"
           d="m 92.868532,882.61797 c -5.939958,6.103 -6.65355,7.82824 -4.3773,12.69515 11.444745,9.26888 25.836268,3.66431 39.101178,4.06211 5.44017,-0.0102 12.54688,-3.10725 14.62177,-8.49951 1.43349,-3.41199 0.88485,-7.55308 -1.48507,-10.37357 -2.92127,-3.9772 -7.71334,-5.62886 -12.23511,-6.67357 -15.53028,-3.82674 -23.06577,1.32639 -34.918361,8.08231 z"
           id="path7112"
           inkscape:connector-curvature="0"
           sodipodi:nodetypes="cccccccc" />
        <path
           style="fill:#000000;stroke:#000000;stroke-width:0;stroke-linecap:butt;stroke-linejoin:miter;stroke-miterlimit:4;stroke-dasharray:none;stroke-opacity:1"
           d="m 94.352079,887.437 c 2.800207,-1.48803 0.162247,-0.55831 0.162247,-0.55831 0.47755,8.78707 12.538944,12.07223 26.053004,12.24306 1.48183,0.67284 3.18777,2.4287 1.63547,1.31927 -15.79943,-1.0054 -28.649516,-3.76254 -27.850721,-13.00402 z"
           id="path7114"
           inkscape:connector-curvature="0"
           sodipodi:nodetypes="ccccc" />
        <path
           sodipodi:nodetypes="ccc"
           inkscape:connector-curvature="0"
           id="path7116"
           d="m 140.74376,890.22676 c -2.17077,11.20197 -40.58577,11.67624 -44.769801,-7.62803 20.474151,-15.54479 48.164501,-7.25003 44.769801,7.62803 z"
           style="fill:#fde00c;fill-opacity:0.65700486;stroke:none" />
        <path
           style="fill:#fdf90c;fill-opacity:0.65882353;stroke:none"
           d="m 106.29664,877.27306 c 5.4545,2.41607 17.57432,-4.83362 30.89376,4.56721 1.96382,-0.009 -2.93175,-3.92454 -3.54836,-4.18608 -11.45092,-4.96921 -17.60181,-2.9809 -27.3454,-0.38113 z"
           id="path7118"
           inkscape:connector-curvature="0"
           sodipodi:nodetypes="cccc" />
        <path
           style="opacity:0.44392527;fill:#ffdb00;fill-opacity:1;stroke:none"
           d="m 91.714747,885.80731 c -6.511783,8.61388 3.22071,12.76079 6.560212,10.84357 -4.718213,-0.0144 -7.027015,-5.36871 -6.560212,-10.84357 z"
           id="path7120"
           inkscape:connector-curvature="0"
           sodipodi:nodetypes="ccc" />
      </g>
      <path
         style="display:inline;fill:#ffb124;fill-opacity:1;stroke:#000000;stroke-width:0.49439499;stroke-linecap:butt;stroke-linejoin:miter;stroke-miterlimit:4;stroke-dasharray:none;stroke-opacity:1"
         d="m -112.73863,169.44711 c 0.59103,-0.57515 1.54813,-1.14533 2.57178,-0.66167 1.05992,0.41801 1.84149,1.60356 1.49351,2.50089 0.033,0.72668 -1.75455,3.03171 0.1152,2.2928 2.40504,0.081 4.63505,-0.32451 6.73003,1.80274 0.99684,0.7085 2.325022,2.0088 1.95016,3.01906 -0.24458,0.8124 -0.84653,2.44033 -2.39461,3.61754 -2.87393,1.76469 -3.96417,0.72416 -5.35509,0.49014 -3.18489,-1.55964 -11.02098,-7.23784 -11.75057,-10.81704 -0.0806,-1.70307 1.34506,-2.88324 2.41448,-3.25279 0.94589,-0.40365 2.14638,-0.15912 3.19019,0.26191 0.40891,0.12526 0.9257,0.31679 1.03487,0.74645 z"
         id="path5406"
         inkscape:connector-curvature="0"
         inkscape:transform-center-y="17.941193"
         inkscape:transform-center-x="-44.698254"
         sodipodi:nodetypes="cccccccccccc" />
      <path
         style="display:inline;fill:#fde00c;fill-opacity:0.65882353;stroke:none;stroke-width:0.26458332"
         d="m -100.85162,179.31343 c -1.2886,1.87899 -2.95423,4.87405 -7.8259,2.14093 -0.65288,-0.48469 -9.58598,-6.44552 -10.13166,-10.00337 0.75234,-2.22022 2.24957,-2.66456 3.11335,-2.55415 3.20477,0.79129 3.12786,0.92218 3.24411,1.46367 1.64703,-0.89082 3.38627,-0.55639 2.9459,1.34753 -0.28625,0.79502 -1.29207,2.36518 0.83722,2.40874 3.24948,-0.23543 9.455628,1.62952 7.81698,5.19665 z"
         id="path7040"
         inkscape:connector-curvature="0"
         sodipodi:nodetypes="cccccccc" />
      <path
         sodipodi:nodetypes="ccccc"
         style="display:inline;fill:#fdf90c;fill-opacity:0.65882353;stroke:none;stroke-width:0.26458332"
         d="m -110.34828,174.83662 c 1.4796,-1.05065 6.09973,0.032 7.43254,0.88591 0.76886,0.095 2.69134,1.042 0.38553,5.17921 -0.26146,-0.54475 0.21502,-3.36156 -1.11604,-3.71168 -0.70747,-0.19512 -5.24486,-2.41695 -6.70203,-2.35344 z"
         id="path7042"
         inkscape:connector-curvature="0" />
    </g>
  </g>
</svg>
